<svg xmlns="http://www.w3.org/2000/svg" width="164.515" height="39.233" viewBox="0 0 164.515 39.233"><defs><style>.a{fill:#3e3e3e;}</style></defs><g transform="translate(-4.727 -4.206)"><path class="a" d="M202.638,5.961a.427.427,0,0,0-.112-.07.5.5,0,0,0,.3-.128.356.356,0,0,0,.1-.251.4.4,0,0,0-.058-.211.3.3,0,0,0-.156-.134.827.827,0,0,0-.284-.038l-.62,0,0,1.4h.186l0-.622h.214a.537.537,0,0,1,.1.007.285.285,0,0,1,.084.037.5.5,0,0,1,.1.1c.034.045.078.11.133.192l.185.292h.231l-.241-.383A.941.941,0,0,0,202.638,5.961Zm-.252-.216h-.4V5.282h.444a.329.329,0,0,1,.227.064.2.2,0,0,1,.071.163.237.237,0,0,1-.037.126.208.208,0,0,1-.108.083.561.561,0,0,1-.2.026Z" transform="translate(-34.597 -0.162)"/><path class="a" d="M178.087,27.582a6.951,6.951,0,0,1-3.95.862,19.22,19.22,0,0,1-4.07-.242,1.265,1.265,0,0,1-.752-1.336l.018-8.078,4.766.009a3.688,3.688,0,0,1,2.407.555,4.579,4.579,0,0,1,.81,2.5h.61l.015-7.236h-.61a4.757,4.757,0,0,1-.759,2.353,3.464,3.464,0,0,1-2.472.635l-4.765-.009.016-7.469c0-.6.095-.951.3-1.046a3.008,3.008,0,0,1,.868-.058l4.185.009a5.9,5.9,0,0,1,3.223.587c.505.373.871,1.3,1.1,2.794l.611,0-.074-4.359L164.65,8.026l0,.581a4.366,4.366,0,0,1,2.116.555,3.091,3.091,0,0,1,.754,2.472l-.03,14.213a3.063,3.063,0,0,1-.763,2.409,4.234,4.234,0,0,1-2.12.575l0,.581,15.138.031,1.235-5.225-.61,0A7.445,7.445,0,0,1,178.087,27.582Z" transform="translate(-28.067 -0.671)"/><path class="a" d="M196.236,19.15q-2.378-1.723-4.729-3.412-2.527-1.979-2.521-4.044a3.206,3.206,0,0,1,1.2-2.585,3.56,3.56,0,0,1,2.268-.778,4.435,4.435,0,0,1,3.572,1.867,9.194,9.194,0,0,1,1.649,3.925l.7,0L197.744,7.5h-.639a6.89,6.89,0,0,0-.145.7c-.081.273-.3.406-.672.406a9.28,9.28,0,0,1-1.6-.553,6.8,6.8,0,0,0-2.384-.561,4.735,4.735,0,0,0-3.459,1.36,5.342,5.342,0,0,0-1.552,4.033,5.017,5.017,0,0,0,1.361,3.578A18.6,18.6,0,0,0,191.908,19a21.03,21.03,0,0,1,4.117,3.375,4.23,4.23,0,0,1,.868,2.651,3.635,3.635,0,0,1-1.141,2.611,4,4,0,0,1-2.938,1.216q-4.04-.009-5.712-5.736l-.669,0,.859,6.6.64,0c.08-.72.447-1.075,1.107-1.073a6.563,6.563,0,0,1,1.508.523,5.992,5.992,0,0,0,2.529.59,5.723,5.723,0,0,0,4.508-1.85,5.606,5.606,0,0,0,1.407-3.865A6.984,6.984,0,0,0,196.236,19.15Z" transform="translate(-31.899 -0.576)"/><path class="a" d="M38.5,29.07v0l5.323.011V28.5a3.283,3.283,0,0,1-1.225-.235,1.184,1.184,0,0,1-.692-1.223,3.379,3.379,0,0,1,.236-1.279L43.6,22.079l8.133.016,1.042,2.879a6.747,6.747,0,0,1,.491,2.095,1.207,1.207,0,0,1-.731,1.218,5.852,5.852,0,0,1-1.6.23l0,.58,5.649.012,1.24,0,.754,0h.487l5.847.013v-.581a3.2,3.2,0,0,1-2.206-.787,5.384,5.384,0,0,1-.663-3.255l.032-15.027.2.06,7.371,19.6h.233l7.6-19.6.293-.174-.034,15.811a4.181,4.181,0,0,1-.586,2.642,3.733,3.733,0,0,1-2.358.749v.582l7.588.016v0l1.13,0v0l5.322.01,0-.58a3.3,3.3,0,0,1-1.225-.236,1.181,1.181,0,0,1-.691-1.222,3.342,3.342,0,0,1,.236-1.279l1.46-3.688,8.133.018,1.042,2.877a6.736,6.736,0,0,1,.491,2.095,1.208,1.208,0,0,1-.731,1.219,5.889,5.889,0,0,1-1.6.229l0,.58,6.889.014.754,0,6.33.013,0-.58a2.824,2.824,0,0,1-2.235-1.051,6.191,6.191,0,0,1-.632-3.4l.027-13.048h.293L120.5,29.539h.059l.037-17.116c0-1.786.189-2.915.557-3.4a3.389,3.389,0,0,1,1.921-.636v-.58l-6.336-.012v.58a3.831,3.831,0,0,1,2.21.646c.48.526.721,1.657.716,3.4l-.025,12.408-12-17.057-4.008-.008v.58a3.511,3.511,0,0,1,1.249.182,4.134,4.134,0,0,1,1.218,1.4l-.032,14.269a13.864,13.864,0,0,1-.18,2.936,2.4,2.4,0,0,1-2.274,1.5l-.8,0a3.182,3.182,0,0,1-1.491-.491,5.514,5.514,0,0,1-1.389-2.359L93.089,7.426h-.114L87.069,23.368a20.1,20.1,0,0,1-2.134,4.582,1.274,1.274,0,0,1-.664.5c-.245.058-.49.1-.735.139l-1.2,0A3.975,3.975,0,0,1,80.287,28,2.989,2.989,0,0,1,79.5,25.59L79.536,11.2a2.881,2.881,0,0,1,.794-2.409,5.158,5.158,0,0,1,2.095-.461V7.781l-5.262-.012L70.3,25.624,63.678,7.739l-5-.011v.551a3.808,3.808,0,0,1,2.062.441,4.5,4.5,0,0,1,.406,2.441l-.03,13.34a7.66,7.66,0,0,1-.417,3.252,2.6,2.6,0,0,1-1.853.749l-1.231,0a2.9,2.9,0,0,1-1.3-.463,5.506,5.506,0,0,1-1.389-2.359L48.077,7.33h-.115L42.056,23.272a20.11,20.11,0,0,1-2.134,4.581,1.272,1.272,0,0,1-.666.5c-.245.058-.491.1-.735.139l-1.048,0a4.082,4.082,0,0,1-2.347-.611,2.993,2.993,0,0,1-.862-2.5l.031-13.946a3.14,3.14,0,0,1,.874-2.558,4.8,4.8,0,0,1,2.445-.575V7.713L29.3,7.694v.58a4.613,4.613,0,0,1,2.557.675,3.322,3.322,0,0,1,.719,2.472l-.032,13.946a3.182,3.182,0,0,1-.7,2.384,4.068,4.068,0,0,1-2.586.719v.582l8.313.016ZM92.736,10.447l3.637,10.675-7.5-.016Zm-45.012-.1,3.638,10.676-7.5-.016Z" transform="translate(-4.307 -0.548)"/><path class="a" d="M146.165,9.759a5.261,5.261,0,0,1,3.344-.777l1.741,0-.035,16.188a4.8,4.8,0,0,1-.526,2.672,3.422,3.422,0,0,1-2.5.952l0,.58,7.99.016,0-.58a3.831,3.831,0,0,1-2.468-.788,3.677,3.677,0,0,1-.634-2.441l.035-16.6,1.687,0a5.469,5.469,0,0,1,3.341.735q.958.784,1.416,3.488l.639,0-.162-5.2-15.751-.032-.186,5.2.669,0C145.1,11.384,145.564,10.244,146.165,9.759Z" transform="translate(-24.466 -0.663)"/><path class="a" d="M203.218,4.641a1.473,1.473,0,0,0-2.083-.007h0l0,0a1.473,1.473,0,1,0,2.083,0h0Zm-.2,1.885h0a1.194,1.194,0,1,1,0-1.688l0,0a1.2,1.2,0,0,1,0,1.688Z" transform="translate(-34.403 0)"/><path class="a" d="M59.376,44.251H58.7v6.056h3.134V49.7H59.376Z" transform="translate(-9.476 -7.03)"/><rect class="a" width="0.671" height="6.055" transform="translate(59.85 37.221)"/><path class="a" d="M84.954,49.739l-1.928-5.488h-1.1v6.055H82.6V44.8l1.928,5.511h1.1V44.251h-.673Z" transform="translate(-13.553 -7.03)"/><path class="a" d="M97.377,47.756H98.7a3.64,3.64,0,0,1-.26,1.5.969.969,0,0,1-.975.568,1.017,1.017,0,0,1-.95-.524,4.355,4.355,0,0,1-.3-1.951,5.079,5.079,0,0,1,.3-2.093,1.024,1.024,0,0,1,.982-.587q1.08,0,1.132,1.285h.691a1.936,1.936,0,0,0-.474-1.383,1.724,1.724,0,0,0-1.332-.509,1.655,1.655,0,0,0-1.5.765,4.813,4.813,0,0,0-.489,2.493,4.394,4.394,0,0,0,.492,2.4,1.638,1.638,0,0,0,1.436.713,1.324,1.324,0,0,0,1.4-1.073v.978h.511V47.149H97.377Z" transform="translate(-15.941 -6.996)"/><path class="a" d="M110.2,47.468h2.188V46.86H110.2v-2h2.334v-.608H109.53v6.055h3.025V49.7H110.2Z" transform="translate(-18.398 -7.03)"/><path class="a" d="M125.979,49.73q-.114-.855-.13-1.308a1.21,1.21,0,0,0-.244-.765,1.3,1.3,0,0,0-.84-.339,1.3,1.3,0,0,0,1.182-1.45,1.612,1.612,0,0,0-.421-1.187,2.174,2.174,0,0,0-1.562-.43h-1.588v6.056h.669v-2.65h1.148a1,1,0,0,1,.761.3,1.32,1.32,0,0,1,.279.936,5.82,5.82,0,0,0,.04.678,5.268,5.268,0,0,0,.149.741h.8v-.143C126.106,50.148,126.026,50,125.979,49.73ZM124.1,47.05h-1.052V44.859h.943q1.269,0,1.269,1.08,0,1.112-1.16,1.111Z" transform="translate(-20.653 -7.03)"/><rect class="a" width="0.669" height="6.055" transform="translate(113.22 37.221)"/><path class="a" d="M147.3,47.468h2.19V46.86H147.3v-2h2.334v-.608h-3.005v6.055h3.024V49.7H147.3Z" transform="translate(-24.912 -7.03)"/><rect class="a" width="127.089" height="0.485" transform="translate(23.236 32.627)"/><path class="a" d="M20.406,10.423Q17.533,7.717,12.332,7.7L4.775,7.688l0,.579a4.3,4.3,0,0,1,2.265.645,3.352,3.352,0,0,1,.605,2.382L7.611,25.507A3.321,3.321,0,0,1,7.026,27.8a3.928,3.928,0,0,1-2.3.689v.58l7.966.017q5.72.012,8.578-3.7a11.145,11.145,0,0,0,2.167-6.908Q23.449,13.219,20.406,10.423ZM11.327,28.1A2.848,2.848,0,0,1,9.9,27.862a1.5,1.5,0,0,1-.463-1.305L9.476,10.2a2.136,2.136,0,0,1,.179-1.076c.2-.293.636-.435,1.336-.434q5.378.011,7.493,2.252A10.364,10.364,0,0,1,21.142,18.5q-.02,9.62-9.816,9.6Z" transform="translate(0 -0.611)"/></g></svg>