<svg xmlns="http://www.w3.org/2000/svg" width="133.823" height="26.717" viewBox="0 0 133.823 26.717"><defs><style>.a{fill:#3e3e3e;}</style></defs><g transform="translate(0)"><path class="a" d="M275.617,170.675a1.061,1.061,0,0,1-2.117,0c0-8.312-2.117-14.549-6.046-18.478a18.212,18.212,0,0,0-12.432-4.877v23.355a1.06,1.06,0,0,1-.984.984,1.092,1.092,0,0,1-1.132-.984V146.15c0-.907,1.132-.944,1.132-.944,3.288,0,9.826.641,14.7,5.555a20.559,20.559,0,0,1,4.761,7.332V146.15a1.065,1.065,0,0,1,1.135-.944,1.052,1.052,0,0,1,.982.944Z" transform="translate(-252.906 -145.206)"/><path class="a" d="M285.278,158.667v8.012a1.054,1.054,0,0,1-1.1,1.171,1.164,1.164,0,0,1-1.1-1.171v-2.571a9.371,9.371,0,0,1-7.332,3.554,9.448,9.448,0,1,1,9.524-9.561Zm-2.192,0V158.1a7.331,7.331,0,1,0-14.663,0,7.337,7.337,0,0,0,14.663.566Z" transform="translate(-237.698 -141.132)"/><path class="a" d="M299.7,158.033v8.615a1.069,1.069,0,0,1-1.021,1.021,1.107,1.107,0,0,1-1.173-1.021v-8.615a7.394,7.394,0,0,0-7.292-7.294l.037,15.947a1.191,1.191,0,0,1-1.1,1.21,1.323,1.323,0,0,1-1.171-1.134l-.036-15.947a7.292,7.292,0,0,0-7.446,7.219l.039,8.615a1.118,1.118,0,0,1-1.21,1.021,1.034,1.034,0,0,1-.982-1.021v-8.615c0-5.254,4.081-9.374,10.581-9.374C295.471,148.659,299.7,152.213,299.7,158.033Z" transform="translate(-223.779 -141.254)"/><path class="a" d="M292.736,148.624a1.057,1.057,0,0,1,1.021,1.1v17.12a1.133,1.133,0,0,1-1.021,1.057,1.042,1.042,0,0,1-1.1-1.057V149.72A1,1,0,0,1,292.736,148.624Z" transform="translate(-208.571 -141.294)"/><path class="a" d="M314.786,158.063v8.467a1.1,1.1,0,0,1-1.021,1.019,1.13,1.13,0,0,1-1.171-1.019v-8.467a7.294,7.294,0,0,0-14.588,0l-.15,8.617a.97.97,0,0,1-1.021,1.021,1.068,1.068,0,0,1-1.019-1.021v-8.617a9.486,9.486,0,0,1,18.969,0Z" transform="translate(-203.79 -141.172)"/><path class="a" d="M322.691,150.95a13.1,13.1,0,0,1,1.4,1.512,1.126,1.126,0,0,1,.264.68,1.55,1.55,0,0,1-.264.643s-10.62,8.917-11.941,10.088a7.432,7.432,0,0,0,10.241-1.019,1.018,1.018,0,0,1,1.473-.152,1.309,1.309,0,0,1,.227,1.473,9.469,9.469,0,0,1-16.666-4.986,9.316,9.316,0,0,1,2.192-6.916,8.391,8.391,0,0,1,6.234-3.326A9.009,9.009,0,0,1,322.691,150.95Zm-11.9,11.414c1.171-1.21,9.713-8.2,11.073-9.411-.189-.15-.341-.15-.491-.3a6.991,6.991,0,0,0-5.4-1.7,7.072,7.072,0,0,0-4.836,2.683,6.557,6.557,0,0,0-1.662,4.536A7.964,7.964,0,0,0,310.786,162.364Z" transform="translate(-190.53 -141.012)"/></g></svg>