<svg xmlns="http://www.w3.org/2000/svg" width="204.443" height="34.082" viewBox="0 0 204.443 34.082"><defs><style>.a{fill:#3e3e3e;}</style></defs><path class="a" d="M55.557,253.479H51.266l-1.206-6.52H43.082l-1.222,6.52H37.622l7.118-32.968h3.647Zm-6.091-9.859-2.9-15.642h-.105L43.724,243.62Z" transform="translate(-37.622 -219.864)"/><path class="a" d="M61.121,245.659q0,8.254-7.4,8.254-8.125,0-8.125-8.2V220.53h4.4v23.317a14.18,14.18,0,0,0,.647,5.19q.643,1.436,2.819,1.435c1.451,0,2.355-.5,2.719-1.513a18.074,18.074,0,0,0,.542-5.371V220.53h4.4Z" transform="translate(-24.088 -219.831)"/><path class="a" d="M53.807,220.511h6.417a8.564,8.564,0,0,1,7.183,3.428q2.626,3.431,2.625,12.9,0,9.132-2.3,12.886t-8.281,3.752H53.807Zm4.451,3.391v26.241a7.274,7.274,0,0,0,4.246-1.036,6.523,6.523,0,0,0,2.161-3.855,37.245,37.245,0,0,0,.712-8.465q0-7.194-1.333-10.04t-5.19-2.846Z" transform="translate(-10.149 -219.864)"/><path class="a" d="M62.183,220.511h4.451v32.968H62.183Z" transform="translate(4.068 -219.864)"/><path class="a" d="M66.346,237.313q0-10.734,2.109-13.886t6.949-3.156q5.539,0,7.364,3.531t1.823,12.708q0,8.226-.815,11.4a8.1,8.1,0,0,1-2.822,4.68,8.9,8.9,0,0,1-5.446,1.5,9.1,9.1,0,0,1-5.435-1.384,8.225,8.225,0,0,1-2.808-4.486Q66.347,245.121,66.346,237.313Zm13.587.256q0-9.383-1.1-11.594a3.649,3.649,0,0,0-6.865.44q-.959,2.65-.96,8.931v1.81a47.833,47.833,0,0,0,.78,10.226q.777,3.217,3.736,3.218a3.774,3.774,0,0,0,3.116-1.81q1.3-1.809,1.3-10Z" transform="translate(11.135 -220.271)"/><path class="a" d="M74.319,220.511h4.3l4.149,24.916,4.448-24.916H91.45l-6.935,32.968H81Z" transform="translate(24.668 -219.864)"/><path class="a" d="M82.521,220.511h4.453v32.968H82.521Z" transform="translate(38.591 -219.864)"/><path class="a" d="M98.475,225.08a8.433,8.433,0,0,0-3.906-1.163,4.018,4.018,0,0,0-2.964,1.241,4.109,4.109,0,0,0-1.23,3,5.78,5.78,0,0,0,.734,2.652,30.742,30.742,0,0,0,3.3,4.513,44.529,44.529,0,0,1,3.925,5.379,10.019,10.019,0,0,1,1.36,5.23A8.236,8.236,0,0,1,97.48,251.9a7.681,7.681,0,0,1-5.783,2.29,13.241,13.241,0,0,1-4.815-1.163v-3.96a.606.606,0,0,1,.156.078,11.779,11.779,0,0,0,1.629.866,5.707,5.707,0,0,0,2.433.583,4.263,4.263,0,0,0,3.2-1.295,4.562,4.562,0,0,0,1.254-3.312,5.381,5.381,0,0,0-.639-2.587,22.163,22.163,0,0,0-2.317-3.24l-2.973-3.655a19.579,19.579,0,0,1-2.56-3.887,9.782,9.782,0,0,1-.828-4.2,8.255,8.255,0,0,1,2.1-5.853,7.093,7.093,0,0,1,5.435-2.252,10.641,10.641,0,0,1,4.71,1.165Z" transform="translate(44.893 -220.189)"/><path class="a" d="M108.7,245.659q0,8.254-7.4,8.254-8.125,0-8.125-8.2V220.53h4.4v23.317a14.2,14.2,0,0,0,.645,5.19q.647,1.436,2.822,1.435t2.719-1.513a18.075,18.075,0,0,0,.542-5.371V220.53h4.4Z" transform="translate(56.668 -219.831)"/><path class="a" d="M118.375,253.479h-4.289l-1.208-6.52H105.9l-1.222,6.52h-4.235l7.116-32.968h3.65Zm-6.091-9.859-2.9-15.642h-.105l-2.741,15.642Z" transform="translate(69.012 -219.864)"/><path class="a" d="M120.922,253.479H108.991V220.511h4.451v29.27h7.48Z" transform="translate(83.521 -219.864)"/></svg>