<svg xmlns="http://www.w3.org/2000/svg" width="125.544" height="48.221" viewBox="0 0 125.544 48.221"><defs><style>.a{fill:#3e3e3e;}</style></defs><g transform="translate(-143.185 -370.34)"><g transform="translate(143.185 370.34)"><g transform="translate(39.726 0.071)"><g transform="translate(0.774 0.736)"><path class="a" d="M382.516,410.347v-.793c.372-.017.73-.02,1.087-.052a3.82,3.82,0,0,0,3.5-2.977,12.317,12.317,0,0,0,.44-3.035q.057-10.153,0-20.306a11.851,11.851,0,0,0-.417-2.965,3.68,3.68,0,0,0-3.774-2.977c-.242-.013-.484,0-.813,0-.015-.3-.028-.551-.043-.863h25.67v13.069l-.186.111a2.769,2.769,0,0,1-.37-.626c-.508-1.831-.934-3.687-1.512-5.494a14.492,14.492,0,0,0-1.3-2.624,6.943,6.943,0,0,0-5.872-3.485c-1.949-.158-3.919-.069-5.88-.086a2.27,2.27,0,0,0-.388.07v16.019a4.622,4.622,0,0,0,4.953-1.928,13.329,13.329,0,0,0,2.178-5.855c.139-.843.188-1.7.319-2.545.028-.178.238-.327.365-.489l.19.114v22.26c-.459.184-.53-.028-.583-.427A19.923,19.923,0,0,0,398.6,398a10.883,10.883,0,0,0-1.839-2.615,4.637,4.637,0,0,0-3.749-1.141c-.524.021-.383.421-.384.707-.008,2.55,0,5.1,0,7.652v6.919c3.114-.094,6.22.44,9.066-1.083a11.127,11.127,0,0,0,5.158-6.614c.559-1.633.891-3.344,1.347-5.013.043-.158.244-.272.372-.406.1.157.295.315.3.472q.021,6.621,0,13.243a.964.964,0,0,1-.063.227Z" transform="translate(-382.268 -376.157)"/><path class="a" d="M407.834,409.492H381.165v-1.225l.211-.01.354-.014c.25-.009.487-.017.724-.038a3.6,3.6,0,0,0,3.31-2.813,12.06,12.06,0,0,0,.433-2.98c.037-6.577.037-13.408,0-20.3a11.535,11.535,0,0,0-.41-2.909,3.447,3.447,0,0,0-3.573-2.814c-.153-.008-.31-.006-.492,0l-.31,0h-.21l-.066-1.3h26.122V388.5l-.482.287-.114-.187c-.037-.062-.08-.122-.123-.182a1.633,1.633,0,0,1-.272-.5c-.179-.643-.35-1.3-.515-1.934-.305-1.172-.621-2.383-.995-3.551a12.221,12.221,0,0,0-1.091-2.254l-.187-.329a6.727,6.727,0,0,0-5.7-3.373c-1.359-.11-2.755-.1-4.1-.089-.577,0-1.173.009-1.759,0a.792.792,0,0,0-.166.027v15.668a4.432,4.432,0,0,0,4.554-1.885,13.312,13.312,0,0,0,2.139-5.761c.072-.435.12-.883.167-1.318.043-.4.088-.817.152-1.225a.887.887,0,0,1,.288-.457,1.713,1.713,0,0,0,.121-.133l.12-.154.464.279v22.534l-.139.056a.689.689,0,0,1-.6.022.775.775,0,0,1-.288-.624c-.036-.266-.069-.532-.1-.8a17.108,17.108,0,0,0-1.366-5.6,10.655,10.655,0,0,0-1.8-2.561,4.443,4.443,0,0,0-3.581-1.073.263.263,0,0,0-.165.042c-.034.038-.023.173-.016.271,0,.06.009.119.009.174-.007,1.968-.006,3.969-.005,5.9v8.44c.66-.014,1.323,0,1.967.009,2.388.041,4.645.08,6.774-1.06a10.864,10.864,0,0,0,5.053-6.491c.358-1.047.628-2.15.889-3.216.143-.586.292-1.192.454-1.784a.829.829,0,0,1,.306-.392c.044-.038.087-.074.119-.108l.192-.2.153.234a1.552,1.552,0,0,0,.1.129.756.756,0,0,1,.23.463c.014,4.382.009,8.837,0,13.145v.1a.632.632,0,0,1-.048.217c-.008.022-.017.045-.024.071Zm-26.228-.441h25.9a.083.083,0,0,0,0-.008v-.1c0-4.308.01-8.763,0-13.143a.581.581,0,0,0-.1-.151.481.481,0,0,0-.131.142c-.16.587-.308,1.19-.451,1.773-.263,1.075-.536,2.188-.9,3.253a11.282,11.282,0,0,1-5.263,6.738c-2.23,1.194-4.65,1.152-6.99,1.112-.712-.012-1.449-.025-2.174,0l-.227.007v-8.894c0-1.936,0-3.937.005-5.905,0-.044,0-.091-.007-.139a.76.76,0,0,1,.126-.6.645.645,0,0,1,.477-.19,4.905,4.905,0,0,1,3.917,1.208,11.1,11.1,0,0,1,1.877,2.668,17.439,17.439,0,0,1,1.409,5.739q.051.4.1.8c.029.219.057.285.075.3h.01a.288.288,0,0,0,.059-.007V381.8a.455.455,0,0,0-.115.163c-.062.4-.106.808-.149,1.2-.047.44-.1.9-.17,1.342a13.718,13.718,0,0,1-2.217,5.949,4.847,4.847,0,0,1-5.188,2.011l-.164-.043V376.055l.18-.034c.049-.009.094-.02.136-.03a1.184,1.184,0,0,1,.3-.044c.583,0,1.177,0,1.752,0,1.36-.01,2.766-.021,4.144.09a7.145,7.145,0,0,1,6.046,3.6l.186.327a12.522,12.522,0,0,1,1.128,2.338c.378,1.18.695,2.4,1,3.574.165.633.335,1.288.513,1.928a.887.887,0,0,0,.124.243V375.522H381.6l.021.42h.094c.19,0,.353,0,.521,0a3.879,3.879,0,0,1,3.976,3.14,11.976,11.976,0,0,1,.425,3.021c.036,6.9.036,13.73,0,20.309a12.506,12.506,0,0,1-.448,3.09,4.026,4.026,0,0,1-3.7,3.14c-.249.022-.5.031-.747.039l-.138,0Z" transform="translate(-381.137 -375.081)"/></g><path class="a" d="M405.581,407.5H378.008v-2.232l.7-.032.359-.014c.243-.008.473-.016.7-.036a3.077,3.077,0,0,0,2.857-2.432,11.554,11.554,0,0,0,.416-2.851c.037-6.576.037-13.4,0-20.3a11.182,11.182,0,0,0-.393-2.779,2.958,2.958,0,0,0-3.1-2.432c-.136-.007-.278-.005-.458,0l-.316,0h-.7l-.117-2.334h27.179v14.223l-1.173.7-.379-.623c-.031-.051-.067-.1-.1-.151a2.1,2.1,0,0,1-.348-.66c-.18-.647-.351-1.306-.517-1.942-.3-1.165-.617-2.37-.987-3.524a11.667,11.667,0,0,0-1.048-2.156l-.188-.331a6.165,6.165,0,0,0-5.291-3.113c-1.336-.108-2.72-.1-4.059-.087-.463,0-.939.007-1.414.006v14.741a3.984,3.984,0,0,0,3.623-1.751,12.833,12.833,0,0,0,2.047-5.541c.069-.42.115-.842.163-1.289.044-.408.089-.829.155-1.249a1.356,1.356,0,0,1,.426-.736c.032-.033.069-.071.085-.091l.4-.514,1.106.663V401.8l-.462.185a1.185,1.185,0,0,1-1.048-.011,1.253,1.253,0,0,1-.539-1c-.036-.267-.07-.534-.1-.8a16.474,16.474,0,0,0-1.315-5.431,10.128,10.128,0,0,0-1.712-2.436,3.615,3.615,0,0,0-2.866-.922c-.007,1.961-.006,3.955-.005,5.884v7.919c.493,0,.982.007,1.461.015,2.32.039,4.512.077,6.522-1a10.374,10.374,0,0,0,4.809-6.2c.351-1.025.618-2.116.876-3.172.144-.589.293-1.2.457-1.8a1.3,1.3,0,0,1,.469-.65c.028-.023.066-.055.079-.069l.641-.675.509.78c.01.015.043.055.065.081a1.234,1.234,0,0,1,.35.791c.014,4.382.009,8.838,0,13.147v.1a1.124,1.124,0,0,1-.078.39c0,.012-.009.025-.013.039Zm-8.5-1.472h7.273c0-3.137.007-6.349,0-9.549-.174.669-.364,1.341-.589,2a11.772,11.772,0,0,1-5.507,7.025A8.873,8.873,0,0,1,397.081,406.024Zm-15.166,0h6.2v-8.756c0-1.936,0-3.938.005-5.907,0-.031,0-.064-.006-.1a1.29,1.29,0,0,1,.2-.911l-.151-.04V373.527h-6.183a4.418,4.418,0,0,1,2.1,2.915,12.493,12.493,0,0,1,.443,3.152c.036,6.9.036,13.733,0,20.314a13.011,13.011,0,0,1-.465,3.219A4.637,4.637,0,0,1,381.914,406.024Zm10.014-15.769a4.156,4.156,0,0,1,1.587,1.033,11.62,11.62,0,0,1,1.965,2.793,10.938,10.938,0,0,1,.681,1.718V384.7a11.81,11.81,0,0,1-1.721,3.555A5.832,5.832,0,0,1,391.928,390.255Zm5.795-16.729a7.2,7.2,0,0,1,3.95,3.339l.185.325a12.923,12.923,0,0,1,1.171,2.437c.23.718.437,1.447.632,2.172v-8.272Z" transform="translate(-377.722 -371.834)"/><path class="a" d="M404.616,406.64h-27.96v-2.663l.913-.042.352-.014c.249-.009.476-.016.694-.035a2.869,2.869,0,0,0,2.663-2.268,11.336,11.336,0,0,0,.409-2.8c.037-6.574.037-13.4,0-20.3a10.948,10.948,0,0,0-.385-2.723,2.737,2.737,0,0,0-2.9-2.269c-.124-.007-.258-.005-.426,0h-.017l-.319,0h-.91l-.139-2.776h27.632v14.569l-1.468.875-.492-.81c-.025-.041-.053-.081-.082-.121l-.013-.018a2.318,2.318,0,0,1-.38-.728c-.18-.647-.351-1.305-.517-1.941-.3-1.167-.617-2.368-.984-3.518a11.506,11.506,0,0,0-1.029-2.113l-.189-.333a5.959,5.959,0,0,0-5.116-3c-1.329-.108-2.706-.1-4.039-.087-.392,0-.793.006-1.195.006v14.315a3.816,3.816,0,0,0,3.224-1.676,12.628,12.628,0,0,0,2.007-5.447c.069-.414.114-.833.161-1.276.044-.409.09-.832.156-1.26a1.567,1.567,0,0,1,.486-.856c.026-.027.056-.057.069-.074l.52-.668,1.38.828v23.449l-.6.241a1.365,1.365,0,0,1-1.241-.026,1.464,1.464,0,0,1-.646-1.162c-.036-.267-.07-.535-.1-.8a16.308,16.308,0,0,0-1.293-5.36,9.912,9.912,0,0,0-1.674-2.382,3.243,3.243,0,0,0-2.486-.854c-.006,1.895-.005,3.809,0,5.663v7.7c.422,0,.838.008,1.244.015,2.293.039,4.456.076,6.414-.973a10.166,10.166,0,0,0,4.7-6.081c.348-1.018.614-2.1.871-3.152.145-.591.294-1.2.458-1.8a1.51,1.51,0,0,1,.54-.76c.026-.022.051-.043.063-.055l.831-.876.662,1.014c.008.011.033.04.05.06a1.445,1.445,0,0,1,.4.932c.014,4.387.009,8.841,0,13.148v.1a1.34,1.34,0,0,1-.09.463l-.009.026ZM377.1,406.2h27.185l.107-.374c0-.016.01-.03.015-.044a.933.933,0,0,0,.068-.325v-.1c0-4.307.01-8.76,0-13.146a1.028,1.028,0,0,0-.3-.651c-.027-.033-.068-.083-.08-.1l-.357-.546-.449.473c-.016.016-.057.053-.091.081a1.105,1.105,0,0,0-.4.544c-.163.6-.312,1.2-.455,1.791-.259,1.06-.527,2.155-.882,3.191a10.583,10.583,0,0,1-4.914,6.327c-2.06,1.1-4.278,1.065-6.625,1.025-.478-.008-.968-.017-1.461-.015h-.221v-8.14c0-1.926,0-3.917.005-5.885v-.218l.218,0a3.841,3.841,0,0,1,3.027.99,10.351,10.351,0,0,1,1.75,2.489,16.632,16.632,0,0,1,1.337,5.5q.051.4.1.8a1.052,1.052,0,0,0,.431.839.966.966,0,0,0,.854,0l.324-.13v-22.9l-.831-.5-.28.36c-.019.024-.062.07-.1.109a1.152,1.152,0,0,0-.367.617c-.065.417-.11.835-.153,1.239-.049.45-.094.875-.165,1.3a13.038,13.038,0,0,1-2.086,5.635,4.217,4.217,0,0,1-3.824,1.84l-.2-.021V373.1h.221c.474,0,.949,0,1.412-.006,1.342-.011,2.73-.021,4.079.088a6.371,6.371,0,0,1,5.465,3.224l.182.32a11.881,11.881,0,0,1,1.072,2.208c.371,1.161.686,2.368.99,3.536.167.639.337,1.3.516,1.939a1.887,1.887,0,0,0,.315.591l.012.018c.034.048.069.1.1.146l.265.437.877-.522V371.2H377.055l.1,1.893h.49l.313,0h.018c.177,0,.316,0,.455,0a3.185,3.185,0,0,1,3.3,2.6,11.4,11.4,0,0,1,.4,2.835c.036,6.894.036,13.725,0,20.3a11.768,11.768,0,0,1-.423,2.906,3.286,3.286,0,0,1-3.051,2.6c-.23.02-.462.028-.708.036l-.357.014-.491.022Zm26.345-1.03h-8.756l1.188-.428a8.732,8.732,0,0,0,1.15-.511,11.563,11.563,0,0,0,5.4-6.9c.2-.572.381-1.2.584-1.984l.432-1.665,0,1.72c0,3.1,0,6.159,0,9.55Zm-6.42-.441H403c0-2.728.005-5.245,0-7.747-.053.169-.107.331-.161.49a11.981,11.981,0,0,1-5.612,7.148Q397.129,404.674,397.023,404.727Zm-9.822.441h-7.234l.706-.411a4.4,4.4,0,0,0,2.03-2.764,12.789,12.789,0,0,0,.457-3.163c.037-6.58.037-13.414,0-20.312a12.279,12.279,0,0,0-.435-3.1,4.187,4.187,0,0,0-1.989-2.779l-.752-.414h7.262v16.837l.3.08-.195.262a1.087,1.087,0,0,0-.155.762v.019c0,.033.005.065.005.1-.007,1.975-.006,3.974-.005,5.907Zm-5.711-.441h5.27v-8.535c0-1.933,0-3.932.005-5.908,0-.018,0-.038,0-.058l0-.021a1.712,1.712,0,0,1,.089-.787l-.042-.011V372.671h-5.242a4.939,4.939,0,0,1,1.588,2.638,12.707,12.707,0,0,1,.45,3.207c.036,6.9.036,13.735,0,20.317a13.234,13.234,0,0,1-.472,3.274A4.931,4.931,0,0,1,381.49,404.727Zm13.761-8.527-.432-1.413a10.657,10.657,0,0,0-.667-1.684,11.4,11.4,0,0,0-1.927-2.74,3.961,3.961,0,0,0-1.5-.978l-.536-.2.53-.214a5.629,5.629,0,0,0,2.416-1.929,11.48,11.48,0,0,0,1.688-3.489l.432-1.421Zm-3.911-7.027a4.353,4.353,0,0,1,1.2.886,11.845,11.845,0,0,1,2,2.847c.093.185.18.373.263.565v-8.562a11.167,11.167,0,0,1-1.322,2.4A6.175,6.175,0,0,1,391.339,389.173Zm11.412-6.785-.434-1.608c-.229-.85-.429-1.537-.629-2.162a12.745,12.745,0,0,0-1.153-2.395l-.185-.326a7,7,0,0,0-3.832-3.239l-1.2-.429h7.434Zm-5.1-9.717a7.422,7.422,0,0,1,3.081,3.009l.184.324a13.09,13.09,0,0,1,1.19,2.479c.067.209.134.424.2.65v-6.462Z" transform="translate(-376.591 -370.758)"/></g><g transform="translate(0 0.081)"><g transform="translate(0.978 0.736)"><path class="a" d="M168.129,377.345c-2.238,0-4.425-.149-6.582.041a7.1,7.1,0,0,0-5.319,3.526,22.575,22.575,0,0,0-2.833,7.186c-.085.341-.042.938-.77.648V376.434h21.484a6.524,6.524,0,0,1-.379,1.363q-8.229,15.368-16.491,30.718c-.159.3-.314.6-.554,1.05h.891c2.182,0,4.365-.025,6.547.006a7.2,7.2,0,0,0,6.411-3.462,25.065,25.065,0,0,0,3.333-8.553,3.251,3.251,0,0,1,.182-.778,2.546,2.546,0,0,1,.525-.535l.168.135V410.4H150.658a7.023,7.023,0,0,1,.4-1.334q8.366-15.54,16.759-31.066C167.929,377.786,168.024,377.564,168.129,377.345Z" transform="translate(-150.364 -376.213)"/><path class="a" d="M173.532,409.541h-24.6l.082-.282c.045-.155.081-.31.116-.459a3.623,3.623,0,0,1,.3-.918c4.4-8.174,8.885-16.48,13.221-24.512l3.538-6.553c.057-.106.11-.215.162-.328-.576,0-1.151-.016-1.71-.027a41.389,41.389,0,0,0-4.507.068,6.882,6.882,0,0,0-5.154,3.428,22.056,22.056,0,0,0-2.8,7.117c-.012.049-.021.1-.03.159a.849.849,0,0,1-.34.664.792.792,0,0,1-.7-.023l-.139-.055V375.137h21.992l-.074.278c-.04.15-.072.3-.1.454a3.507,3.507,0,0,1-.294.956c-4.566,8.526-9.22,17.188-13.722,25.564L156,407.543c-.1.193-.206.387-.33.625l-.053.1h.526q1.006,0,2.013,0c1.487-.006,3.024-.011,4.537.011a6.949,6.949,0,0,0,6.224-3.364,24.824,24.824,0,0,0,3.3-8.479c.018-.078.03-.16.044-.247a1.8,1.8,0,0,1,.159-.584,1.564,1.564,0,0,1,.4-.444c.056-.048.113-.1.164-.146l.14-.137.4.324Zm-24.019-.441H173.09v-13.59a1.149,1.149,0,0,0-.277.3,1.46,1.46,0,0,0-.113.445c-.014.091-.028.186-.05.28a25.211,25.211,0,0,1-3.365,8.626,7.459,7.459,0,0,1-6.6,3.559c-1.509-.022-3.044-.016-4.529-.011q-1.007,0-2.014,0h-1.257l.393-.747c.126-.239.228-.435.332-.629l2.77-5.154c4.5-8.376,9.156-17.038,13.721-25.564a3.144,3.144,0,0,0,.251-.836c.014-.066.027-.133.042-.2H151.414V387.51a.255.255,0,0,0,.177,0c.067-.038.1-.22.121-.353.012-.068.023-.133.037-.191a22.973,22.973,0,0,1,2.864-7.254,7.3,7.3,0,0,1,5.484-3.624,42.3,42.3,0,0,1,4.554-.069c.669.014,1.361.028,2.047.028h.351l-.152.316c-.033.069-.065.138-.1.207-.069.15-.141.3-.222.455l-3.538,6.553c-4.337,8.032-8.821,16.338-13.221,24.512a3.314,3.314,0,0,0-.258.808C149.545,408.965,149.529,409.032,149.513,409.1Z" transform="translate(-148.933 -375.137)"/></g><path class="a" d="M170.708,407.545h-25.8l.272-.94c.041-.142.074-.283.109-.433a4.077,4.077,0,0,1,.348-1.045c4.4-8.175,8.885-16.481,13.222-24.513l3.31-6.131-.877-.017a41.025,41.025,0,0,0-4.451.066,6.314,6.314,0,0,0-4.77,3.2,21.6,21.6,0,0,0-2.733,6.957c-.009.037-.015.078-.023.12a1.332,1.332,0,0,1-.6,1.027,1.283,1.283,0,0,1-1.138.006l-.463-.185V372.111H170.3l-.248.926c-.036.136-.065.276-.1.425a3.9,3.9,0,0,1-.344,1.094c-4.566,8.526-9.221,17.188-13.722,25.565l-2.751,5.12,1.682,0c1.489-.005,3.029-.011,4.547.011a6.471,6.471,0,0,0,5.79-3.137,24.357,24.357,0,0,0,3.227-8.308c.014-.059.025-.131.036-.209a2.262,2.262,0,0,1,.212-.747,2.022,2.022,0,0,1,.524-.6c.047-.04.094-.08.138-.122l.467-.456.951.766Zm-7.953-1.472h6.481v-9.664a22.6,22.6,0,0,1-2.862,6.523A8.408,8.408,0,0,1,162.755,406.073Zm-15.922,0h4.2l.453-.861c.126-.241.23-.438.335-.633l2.77-5.154c4.5-8.376,9.156-17.038,13.721-25.563a1.378,1.378,0,0,0,.106-.279h-4.158l-.237.493c-.032.067-.063.134-.094.2-.073.157-.148.319-.236.482l-3.538,6.554c-4.337,8.032-8.821,16.337-13.221,24.511A1.414,1.414,0,0,0,146.833,406.073Zm1.757-32.491v8.289a19.306,19.306,0,0,1,2.254-4.953,8.617,8.617,0,0,1,3.771-3.336Z" transform="translate(-144.616 -371.89)"/><path class="a" d="M169.5,406.69H143.185l.353-1.222c.04-.138.072-.276.106-.422a4.248,4.248,0,0,1,.368-1.1c4.41-8.191,8.89-16.488,13.222-24.513l3.138-5.812-.515-.01a40.85,40.85,0,0,0-4.427.065,6.107,6.107,0,0,0-4.6,3.1,21.412,21.412,0,0,0-2.7,6.889c-.006.025-.011.053-.015.082l0,.022a1.544,1.544,0,0,1-.7,1.182,1.491,1.491,0,0,1-1.328.019l-.6-.24V370.814h23.687l-.323,1.2c-.035.129-.063.266-.093.411a4.074,4.074,0,0,1-.366,1.156c-4.563,8.522-9.215,17.179-13.715,25.551l-2.584,4.808,1.311,0h.04c1.477-.005,3-.011,4.51.011a6.261,6.261,0,0,0,5.6-3.039,24.164,24.164,0,0,0,3.2-8.234c.012-.054.022-.121.033-.192a2.481,2.481,0,0,1,.235-.817,2.241,2.241,0,0,1,.576-.661l.017-.015c.037-.032.075-.063.109-.1l.607-.593,1.185.955Zm-25.726-.442h25.285V391.469l-.716-.577-.327.319c-.041.04-.086.079-.132.117l-.017.014a1.817,1.817,0,0,0-.472.531,2.05,2.05,0,0,0-.189.677c-.013.083-.025.162-.039.225a24.558,24.558,0,0,1-3.259,8.381,6.691,6.691,0,0,1-5.976,3.234c-1.5-.022-3.027-.016-4.5-.011h-.04l-1.682,0h-.37l2.934-5.46c4.5-8.372,9.151-17.029,13.714-25.55a3.722,3.722,0,0,0,.323-1.035c.032-.153.061-.3.1-.437l.174-.648h-22.67v13.176l.324.129a1.075,1.075,0,0,0,.949.007,1.126,1.126,0,0,0,.486-.871l0-.021c.007-.041.014-.08.022-.116a21.8,21.8,0,0,1,2.763-7.026,6.52,6.52,0,0,1,4.934-3.3,41.146,41.146,0,0,1,4.471-.067l.88.017.363.006-3.482,6.451c-4.333,8.025-8.812,16.322-13.222,24.513a3.912,3.912,0,0,0-.327.991c-.034.145-.068.3-.112.444Zm24.255-1.03h-7.765l.975-.423a8.218,8.218,0,0,0,3.523-3.062,22,22,0,0,0,2.833-6.46l.433-1.533Zm-5.783-.442h5.341v-7.967a20.815,20.815,0,0,1-2.458,5.17A9.011,9.011,0,0,1,162.244,404.776Zm-12.509.442H145.1l.089-.286a1.629,1.629,0,0,1,.116-.288c4.436-8.239,8.9-16.512,13.221-24.511l3.538-6.554c.085-.158.159-.316.23-.47.032-.068.063-.136.1-.2l.3-.619h4.587l-.078.28a1.571,1.571,0,0,1-.123.324c-4.542,8.482-9.173,17.1-13.652,25.434l-2.839,5.283c-.1.195-.208.391-.334.631Zm-4-.442h3.731l.391-.743c.127-.242.23-.439.336-.635l2.839-5.283c4.471-8.32,9.093-16.921,13.627-25.388h-3.694l-.176.368c-.031.066-.062.132-.093.2-.074.16-.151.325-.242.495l-3.538,6.554C154.612,388.317,150.16,396.562,145.738,404.776Zm1.2-22.535v-9.956h7.335l-1,.424a8.423,8.423,0,0,0-3.673,3.254,18.822,18.822,0,0,0-2.228,4.9Zm.441-9.515v6.729a17.74,17.74,0,0,1,1.85-3.735,9.409,9.409,0,0,1,3.026-2.993Z" transform="translate(-143.185 -370.814)"/></g><g transform="translate(80.365 0)"><g transform="translate(0.736 0.736)"><path class="a" d="M627.134,380.263c0,.368,0,.551,0,.734,0,6.89-.034,13.781.037,20.67a15.175,15.175,0,0,0,.7,4.091,4.51,4.51,0,0,0,4.183,3.262c.485.056.969.119,1.5.185v.814H620.986v-.81c.429-.082.88-.152,1.323-.256a4.958,4.958,0,0,0,3.91-4.344,17.914,17.914,0,0,0,.287-3.138c.026-6.252.041-12.505-.013-18.758a9.4,9.4,0,0,0-.6-3.209,3.91,3.91,0,0,0-3.545-2.563c-.291-.026-.58-.058-.914-.092v-.875h1.1c2.6,0,5.2.017,7.8-.014a1.258,1.258,0,0,1,1.2.62q7.956,11.644,15.944,23.268c.094.136.2.265.4.538.029-.375.061-.6.061-.825,0-4.659.012-9.318-.006-13.976a12.657,12.657,0,0,0-1.13-5.628,4.989,4.989,0,0,0-4.111-3.03c-.18-.02-.326-.345-.488-.529.174-.142.347-.406.521-.407,3.727-.022,7.454-.016,11.181-.012a1.49,1.49,0,0,1,.26.055v.567a15.362,15.362,0,0,0-2.909,1.214c-1.509,1.029-2.027,2.723-2.315,4.429a23.353,23.353,0,0,0-.307,3.8c-.027,7.8-.013,15.595-.013,23.392v.849c-.554.272-.749-.107-.97-.426q-4.115-5.953-8.229-11.906-5.956-8.608-11.917-17.213C627.426,380.625,627.337,380.523,627.134,380.263Z" transform="translate(-620.765 -375.739)"/><path class="a" d="M647.2,409.518a.965.965,0,0,1-.761-.542l-.049-.072-3.189-4.615q-2.519-3.646-5.04-7.292-5.88-8.5-11.764-16.992l-.12-.173v.087q0,2.687,0,5.373c-.006,5.013-.012,10.2.041,15.295a14.815,14.815,0,0,0,.7,4.03,4.278,4.278,0,0,0,4,3.105c.327.038.653.079.994.122l.7.087v1.23H619.689v-1.214l.179-.034c.136-.026.274-.051.414-.076.3-.053.6-.109.9-.178a4.705,4.705,0,0,0,3.743-4.169,17.675,17.675,0,0,0,.283-3.1c.023-5.641.044-12.207-.013-18.755a9.222,9.222,0,0,0-.584-3.132,3.693,3.693,0,0,0-3.358-2.422c-.2-.017-.4-.038-.608-.06l-.507-.052v-1.3h1.318l2.056,0c1.881,0,3.826.007,5.738-.016a1.472,1.472,0,0,1,1.384.716c4.508,6.6,9.1,13.3,13.547,19.774l2.4,3.494.05.071c.006-.083.01-.159.01-.234l0-3.136c0-3.553.006-7.226-.008-10.839a12.332,12.332,0,0,0-1.107-5.531,4.76,4.76,0,0,0-3.937-2.908c-.223-.024-.362-.226-.5-.42a2.02,2.02,0,0,0-.134-.182l-.152-.172.178-.145a1.769,1.769,0,0,0,.146-.141.779.779,0,0,1,.514-.315c3.356-.02,6.769-.017,10.069-.013h1.113a.782.782,0,0,1,.207.035c.029.008.062.017.1.025l.173.038v.893l-.138.056c-.329.132-.661.247-.982.358a7.876,7.876,0,0,0-1.886.834,6.056,6.056,0,0,0-2.222,4.284,23.139,23.139,0,0,0-.3,3.76c-.02,5.842-.017,11.783-.014,17.528q0,2.932,0,5.864v.986l-.123.061A.992.992,0,0,1,647.2,409.518Zm-21.365-30.973.395.5c.076.1.136.172.185.234.084.105.139.174.192.25l.153.221q5.884,8.5,11.764,16.992,2.522,3.645,5.041,7.292l3.241,4.691c.192.284.288.4.516.329v-.7q0-2.932,0-5.864c0-5.745-.005-11.686.014-17.529a23.605,23.605,0,0,1,.31-3.832,6.443,6.443,0,0,1,2.409-4.575,8.2,8.2,0,0,1,1.99-.886c.271-.093.549-.189.823-.3v-.244a.2.2,0,0,0-.039-.006h-1.113c-3.3,0-6.711-.007-10.066.013a1.045,1.045,0,0,0-.2.179l-.029.03.037.054a1.006,1.006,0,0,0,.191.234,5.162,5.162,0,0,1,4.274,3.15,12.751,12.751,0,0,1,1.153,5.724c.014,3.614.011,7.288.008,10.841l0,3.136c0,.156-.014.307-.032.5-.009.1-.02.213-.03.344l-.045.585-.352-.47c-.075-.1-.136-.181-.189-.249-.093-.122-.159-.208-.219-.3l-2.4-3.494c-4.444-6.478-9.039-13.177-13.547-19.774a1.042,1.042,0,0,0-1.014-.524c-1.915.023-3.862.02-5.744.016l-2.056,0h-.877v.455l.112.012c.209.022.4.042.6.059a4.11,4.11,0,0,1,3.732,2.7,9.673,9.673,0,0,1,.613,3.286c.056,6.55.036,13.118.013,18.76a18.13,18.13,0,0,1-.291,3.177,5.169,5.169,0,0,1-4.077,4.519c-.309.072-.621.128-.923.182l-.229.042v.406h12.132v-.4l-.315-.039c-.34-.043-.665-.083-.99-.121a4.741,4.741,0,0,1-4.369-3.418,15.235,15.235,0,0,1-.714-4.151c-.053-5.1-.047-10.285-.041-15.3q0-2.686,0-5.372Z" transform="translate(-619.689 -374.662)"/></g><path class="a" d="M644.686,407.527a1.489,1.489,0,0,1-1.184-.773l-.046-.067-3.189-4.615q-2.519-3.646-5.04-7.291-5.471-7.906-10.945-15.81,0,1.907,0,3.813c-.006,5.012-.012,10.194.041,15.289a14.311,14.311,0,0,0,.674,3.889,3.759,3.759,0,0,0,3.562,2.741c.328.038.657.079,1,.122l1.152.143v2.2H616.663v-2.154l.6-.115.419-.077c.29-.052.59-.106.875-.173a4.233,4.233,0,0,0,3.353-3.76,17.165,17.165,0,0,0,.275-3.008c.023-5.639.044-12.2-.013-18.748a8.69,8.69,0,0,0-.55-2.953,3.169,3.169,0,0,0-2.922-2.093c-.2-.018-.4-.038-.616-.061l-.969-.1v-2.276h1.833l2.057,0c1.879,0,3.823.007,5.731-.016h.038a1.976,1.976,0,0,1,1.777.941c4.507,6.6,9.1,13.295,13.546,19.773l1.519,2.214v-1.728c0-3.552.006-7.225-.008-10.836a11.844,11.844,0,0,0-1.055-5.307,4.228,4.228,0,0,0-3.531-2.623,1.238,1.238,0,0,1-.863-.64c-.033-.048-.074-.108-.1-.133l-.506-.574.593-.483c.02-.017.065-.062.1-.1a1.248,1.248,0,0,1,.882-.473c3.358-.02,6.772-.017,10.073-.013h1.113a1.254,1.254,0,0,1,.339.053l.079.02.578.127v1.655l-.461.186c-.341.137-.679.254-1.007.367a7.53,7.53,0,0,0-1.763.772,5.61,5.61,0,0,0-2,3.944,22.616,22.616,0,0,0-.3,3.675c-.02,5.841-.017,11.781-.014,17.525q0,2.932,0,5.864v1.307l-.411.2A1.515,1.515,0,0,1,644.686,407.527ZM620.062,405.7h6.457a4.959,4.959,0,0,1-2.936-3.316q-.152-.513-.272-1A5.632,5.632,0,0,1,620.062,405.7Zm2.749-31.156,1.315,1.682c.075.1.134.169.182.23.088.109.15.188.213.278l.153.221q5.883,8.5,11.764,16.992,2.522,3.645,5.041,7.292l2.818,4.077q0-2.665,0-5.33,0-.972,0-1.95l-.593-.791-.186-.246c-.1-.126-.165-.216-.235-.318l-2.4-3.494c-4.444-6.478-9.04-13.178-13.548-19.775a.547.547,0,0,0-.583-.3c-1.919.023-3.867.02-5.751.016h-.279a4.462,4.462,0,0,1,2.089,2.1Zm18.267-1.409a6,6,0,0,1,2.8,2.915,10.815,10.815,0,0,1,.8,2.223,6.688,6.688,0,0,1,2.58-4.649,5.634,5.634,0,0,1,.908-.494C645.827,373.124,643.446,373.123,641.078,373.131Z" transform="translate(-616.442 -371.416)"/><path class="a" d="M643.61,406.672a1.692,1.692,0,0,1-1.366-.87l-.046-.067-3.188-4.613q-2.519-3.646-5.04-7.291-5.27-7.616-10.543-15.229,0,1.315,0,2.631v.477c-.006,5.009-.012,10.188.041,15.286a14.1,14.1,0,0,0,.665,3.828,3.557,3.557,0,0,0,3.376,2.584c.329.038.658.079,1,.123l1.345.167v2.616H615.366v-2.558l.777-.149.422-.077c.272-.049.58-.1.864-.17a4.031,4.031,0,0,0,3.186-3.585,16.964,16.964,0,0,0,.271-2.969c.023-5.645.043-12.214-.013-18.745a8.456,8.456,0,0,0-.536-2.876,2.963,2.963,0,0,0-2.735-1.952c-.2-.018-.4-.038-.615-.061l-1.172-.119v-2.7h2.054l2.058,0c1.883,0,3.823.007,5.728-.016h.041a2.2,2.2,0,0,1,1.959,1.037c4.458,6.525,9.006,13.154,13.4,19.564l1.259,1.836v-1.016c0-3.541.006-7.2-.008-10.835a11.634,11.634,0,0,0-1.032-5.21,4.025,4.025,0,0,0-3.358-2.5,1.442,1.442,0,0,1-1.021-.735c-.028-.04-.061-.09-.08-.112l-.658-.746.772-.629c.017-.015.052-.051.08-.081a1.458,1.458,0,0,1,1.04-.541c3.335-.02,6.724-.016,10-.013h1.184a1.463,1.463,0,0,1,.4.06l.069.017.751.165v1.982l-.6.241c-.345.139-.685.257-1.014.37a7.387,7.387,0,0,0-1.714.747,5.42,5.42,0,0,0-1.911,3.8,22.407,22.407,0,0,0-.294,3.64c-.02,5.826-.017,11.752-.014,17.482v.043q0,2.932,0,5.864v1.444l-.534.263a1.743,1.743,0,0,1-.768.2h0Zm-20.624-29.483.4.58q5.474,7.9,10.945,15.81,2.522,3.645,5.041,7.292l3.236,4.683a1.281,1.281,0,0,0,1,.677h0a1.31,1.31,0,0,0,.573-.15l.288-.141v-1.17q0-2.932,0-5.864v-.043c0-5.731-.005-11.657.015-17.484a22.881,22.881,0,0,1,.3-3.712,5.8,5.8,0,0,1,2.1-4.089,7.675,7.675,0,0,1,1.815-.8c.327-.113.662-.228,1-.363l.322-.13v-1.329l-.4-.089-.082-.02a1.072,1.072,0,0,0-.287-.047h-1.184c-3.278,0-6.667-.007-10,.013a1.047,1.047,0,0,0-.724.405,1.574,1.574,0,0,1-.119.117l-.415.338.355.4a1.859,1.859,0,0,1,.112.154,1.043,1.043,0,0,0,.705.546,4.432,4.432,0,0,1,3.706,2.745,12.054,12.054,0,0,1,1.077,5.4c.014,3.634.011,7.3.008,10.837l0,2.439-2.064-3.009c-4.4-6.411-8.945-13.039-13.4-19.565a1.752,1.752,0,0,0-1.6-.845h-.036c-1.907.023-3.849.02-5.727.016l-2.064,0h-1.612v1.856l.771.078c.217.022.415.043.613.061a3.375,3.375,0,0,1,3.109,2.234,8.919,8.919,0,0,1,.564,3.03c.056,6.535.036,13.105.013,18.751a17.36,17.36,0,0,1-.278,3.047,4.435,4.435,0,0,1-3.52,3.935c-.3.069-.61.125-.887.175l-.417.077-.418.08v1.751h13.6v-1.784l-.959-.119c-.342-.043-.67-.084-1-.122a3.961,3.961,0,0,1-3.749-2.9,14.528,14.528,0,0,1-.684-3.949c-.053-5.1-.047-10.281-.041-15.292v-.477q0-1.668,0-3.336Zm20.455,27.755-3.663-5.3q-2.3-3.326-4.6-6.65-5.88-8.5-11.764-16.992l-.153-.22c-.059-.085-.123-.165-.2-.266l-.016-.02-.167-.211-.921-1.177v1.005l-.419-.861a4.222,4.222,0,0,0-1.987-2l-.867-.421,1.243,0c1.784,0,3.807.007,5.748-.016h.02a.749.749,0,0,1,.748.4c4.508,6.6,9.1,13.3,13.548,19.775l2.4,3.494c.066.1.132.183.222.3.058.076.119.156.193.255l.638.85v2.912q0,2.221,0,4.442Zm-21.927-32.12,1.71,2.187.164.208.016.02c.086.107.154.192.222.29l.153.221q5.883,8.5,11.764,16.992,2.3,3.325,4.6,6.651L643,403.528q0-1.867,0-3.734v-2.765l-.549-.732-.185-.244c-.1-.133-.17-.223-.241-.327l-2.4-3.494c-4.444-6.479-9.04-13.178-13.548-19.775-.13-.19-.157-.2-.4-.2-1.755.021-3.577.02-5.229.017a4.568,4.568,0,0,1,1.065,1.075Zm5.036,32.017h-8.614l.961-.423a5.431,5.431,0,0,0,3.122-4.156l.2-.945.233.937c.079.318.169.65.27.987a4.726,4.726,0,0,0,2.809,3.175Zm-6.683-.441h4.663a5.169,5.169,0,0,1-2.235-3.032l-.057-.2A5.728,5.728,0,0,1,619.867,404.4Zm23.761-26.146-.245-1.007a10.563,10.563,0,0,0-.783-2.178,5.8,5.8,0,0,0-2.693-2.813l-.879-.417.973,0c2.4-.009,4.817-.007,7.083-.005h1.046l-.957.422a5.4,5.4,0,0,0-.873.475,6.541,6.541,0,0,0-2.487,4.507Zm-2.8-5.979a6.532,6.532,0,0,1,2.169,2.6,10.747,10.747,0,0,1,.57,1.4,6.346,6.346,0,0,1,2.486-3.915q.068-.047.14-.092C644.453,372.269,642.642,372.268,640.827,372.273Z" transform="translate(-615.366 -370.34)"/></g></g><g transform="translate(189.932 410.009)"><g transform="translate(0 0)"><path class="a" d="M424.456,605.577a5.332,5.332,0,0,1,1.927.336,4.3,4.3,0,0,1,1.518.981,4.021,4.021,0,0,1,.839,1.223,3.43,3.43,0,0,1-.3,3.33,4.209,4.209,0,0,1-1.629,1.414,4.918,4.918,0,0,1-2.255.521,5.18,5.18,0,0,1-1.76-.3,4.571,4.571,0,0,1-1.454-.836,3.912,3.912,0,0,1-.981-1.26,3.408,3.408,0,0,1,.255-3.451,4.315,4.315,0,0,1,1.629-1.433A4.741,4.741,0,0,1,424.456,605.577Zm.14.194a2.508,2.508,0,0,0-.922.169,1.984,1.984,0,0,0-.728.481,3.2,3.2,0,0,0-.551.8,4.252,4.252,0,0,0-.344,1.037,6.235,6.235,0,0,0-.116,1.234,5.811,5.811,0,0,0,.183,1.508,3.7,3.7,0,0,0,.527,1.172,2.382,2.382,0,0,0,.822.75,2.331,2.331,0,0,0,2.448-.2,2.844,2.844,0,0,0,.9-1.3,5.747,5.747,0,0,0,.314-2,5.535,5.535,0,0,0-.172-1.408,3.8,3.8,0,0,0-.495-1.142,2.558,2.558,0,0,0-.779-.771,2.006,2.006,0,0,0-.521-.242A1.925,1.925,0,0,0,424.6,605.771Z" transform="translate(-419.637 -605.209)"/><path class="a" d="M422.759,611.956a5.571,5.571,0,0,1-1.884-.317,4.962,4.962,0,0,1-1.57-.9,4.3,4.3,0,0,1-1.072-1.378,3.777,3.777,0,0,1,.281-3.818,4.7,4.7,0,0,1,1.765-1.554,5.125,5.125,0,0,1,2.384-.571,5.717,5.717,0,0,1,2.059.361,4.69,4.69,0,0,1,1.647,1.064,4.412,4.412,0,0,1,.915,1.336,3.8,3.8,0,0,1-.335,3.683,4.589,4.589,0,0,1-1.768,1.537A5.306,5.306,0,0,1,422.759,611.956Zm.043-7.611a2.151,2.151,0,0,0-.788.144,1.629,1.629,0,0,0-.6.392,2.854,2.854,0,0,0-.488.713,3.9,3.9,0,0,0-.314.948,5.888,5.888,0,0,0-.108,1.161,5.468,5.468,0,0,0,.17,1.412,3.351,3.351,0,0,0,.473,1.056,2.031,2.031,0,0,0,.7.637,1.964,1.964,0,0,0,2.049-.164,2.5,2.5,0,0,0,.783-1.135,5.408,5.408,0,0,0,.291-1.876,5.193,5.193,0,0,0-.16-1.315,3.448,3.448,0,0,0-.445-1.033,2.2,2.2,0,0,0-.668-.662,1.652,1.652,0,0,0-.435-.2A1.561,1.561,0,0,0,422.8,604.344Zm-2.117.26-.068.035a3.968,3.968,0,0,0-1.493,1.311,3.041,3.041,0,0,0-.23,3.084,3.568,3.568,0,0,0,.89,1.143,4.109,4.109,0,0,0,.889.58q-.064-.08-.124-.165a4.085,4.085,0,0,1-.581-1.287,6.207,6.207,0,0,1-.2-1.6,6.639,6.639,0,0,1,.123-1.307,4.641,4.641,0,0,1,.375-1.127A3.719,3.719,0,0,1,420.686,604.6Zm4.086-.006a3.2,3.2,0,0,1,.208.28,4.183,4.183,0,0,1,.544,1.252,5.922,5.922,0,0,1,.184,1.5,6.134,6.134,0,0,1-.338,2.133,3.589,3.589,0,0,1-.541.983l.02-.01a3.862,3.862,0,0,0,1.49-1.291,3.061,3.061,0,0,0,.272-2.977,3.677,3.677,0,0,0-.763-1.112A3.917,3.917,0,0,0,424.772,604.6Z" transform="translate(-417.844 -603.415)"/></g><g transform="translate(13.478 0.151)"><path class="a" d="M502.333,606.66v3.257h.473a1.455,1.455,0,0,0,1.167-.489,3.274,3.274,0,0,0,.6-1.58h.188v4.305h-.2a4.548,4.548,0,0,0-.21-.887,2.027,2.027,0,0,0-.339-.586,1.59,1.59,0,0,0-1.312-.564h-.371V612.4a1.195,1.195,0,0,0,1.36,1.365h.478v.21h-4.977v-.21h.188a1.2,1.2,0,0,0,1.365-1.365v-4.37a1.19,1.19,0,0,0-1.365-1.365h-.188v-.2h8.214v3.247h-.177q-.081-.419-.177-.769a3.3,3.3,0,0,0-.188-.537,3.269,3.269,0,0,0-.653-.981,2.428,2.428,0,0,0-.908-.573,3.51,3.51,0,0,0-1.191-.188Z" transform="translate(-498.826 -606.093)"/><path class="a" d="M502.746,612.545h-5.713V611.6h.556a.841.841,0,0,0,1-1v-4.37a.837.837,0,0,0-1-1h-.556V604.3h8.949v3.982h-.849l-.057-.3c-.051-.268-.109-.517-.171-.74a2.989,2.989,0,0,0-.164-.475,2.941,2.941,0,0,0-.582-.882,2.075,2.075,0,0,0-.773-.486,3.158,3.158,0,0,0-1.066-.166h-1.411v2.521h.105a1.094,1.094,0,0,0,.887-.361,2.955,2.955,0,0,0,.519-1.4l.051-.307h.867v5.042h-.883l-.048-.312a4.223,4.223,0,0,0-.19-.813,1.675,1.675,0,0,0-.277-.48,1.233,1.233,0,0,0-1.029-.432h0V610.6a.84.84,0,0,0,.992,1h.846Zm-3.792-.736h1.586a1.827,1.827,0,0,1-.368-1.207v-5.566h-1.2a1.847,1.847,0,0,1,.354,1.2v4.37A1.827,1.827,0,0,1,498.954,611.809Zm3.076-3.572a1.819,1.819,0,0,1,.479.419q.048.058.093.12v-1.09a1.965,1.965,0,0,1-.143.189A1.714,1.714,0,0,1,502.03,608.237Zm2.249-3.2a2.778,2.778,0,0,1,.4.331,3.416,3.416,0,0,1,.568.769v-1.1Z" transform="translate(-497.033 -604.3)"/></g><g transform="translate(26.053 0.151)"><path class="a" d="M573.078,613.761h.209a1.2,1.2,0,0,0,1.365-1.365v-4.537a2.146,2.146,0,0,0-.132-.564.868.868,0,0,0-.266-.349,1.424,1.424,0,0,0-.968-.285h-.209v-.2h4.73v.2h-.21a1.189,1.189,0,0,0-1.36,1.365v4.37a1.195,1.195,0,0,0,1.36,1.365h.21v.21h-4.73Z" transform="translate(-572.71 -606.093)"/><path class="a" d="M576.382,612.545h-5.466V611.6h.578a.841.841,0,0,0,1-1v-4.514a1.72,1.72,0,0,0-.1-.444.5.5,0,0,0-.155-.2l-.016-.013a1.094,1.094,0,0,0-.724-.192h-.578V604.3h5.466v.935H575.8a.836.836,0,0,0-.992,1v4.37a.84.84,0,0,0,.992,1h.578Zm-3.523-.736h1.586a1.827,1.827,0,0,1-.368-1.207v-4.37a1.848,1.848,0,0,1,.354-1.2h-1.562a1.248,1.248,0,0,1,.2.322,2.489,2.489,0,0,1,.158.664l0,.044V610.6A1.827,1.827,0,0,1,572.859,611.809Z" transform="translate(-570.916 -604.3)"/></g><g transform="translate(35.376 0)"><path class="a" d="M635.61,610.592h.188a4.445,4.445,0,0,1-.285.8,3.687,3.687,0,0,1-.43.661,3.569,3.569,0,0,1-2.919,1.344,4.457,4.457,0,0,1-2.145-.535,4.23,4.23,0,0,1-1.58-1.441,3.508,3.508,0,0,1-.355-3.193,3.993,3.993,0,0,1,.675-1.15,4.566,4.566,0,0,1,1.029-.916,3.654,3.654,0,0,1,2.048-.581,3.842,3.842,0,0,1,.734.067,2.716,2.716,0,0,1,.656.215,3.97,3.97,0,0,1,.637.39,1.157,1.157,0,0,0,.538.253q.382,0,.957-.8h.188l.156,3.612h-.177q-.091-.392-.175-.64a3.663,3.663,0,0,0-.223-.516,5.338,5.338,0,0,0-.876-1.3,3.662,3.662,0,0,0-1.1-.828,2.811,2.811,0,0,0-1.226-.285,1.831,1.831,0,0,0-1.225.4,2.4,2.4,0,0,0-.7,1.247,8.448,8.448,0,0,0-.228,2.153,9.782,9.782,0,0,0,.081,1.333,3.919,3.919,0,0,0,.25.981,2.178,2.178,0,0,0,.427.669,2.086,2.086,0,0,0,.771.492,2.821,2.821,0,0,0,.992.169,3.533,3.533,0,0,0,.959-.129,3.2,3.2,0,0,0,.86-.384,3.484,3.484,0,0,0,.734-.632,3.413,3.413,0,0,0,.436-.626A5.308,5.308,0,0,0,635.61,610.592Z" transform="translate(-627.486 -605.209)"/><path class="a" d="M630.371,611.966a4.843,4.843,0,0,1-2.319-.579,4.61,4.61,0,0,1-1.715-1.565,3.875,3.875,0,0,1-.39-3.522,4.383,4.383,0,0,1,.736-1.256,4.961,4.961,0,0,1,1.112-.99,4.032,4.032,0,0,1,2.249-.64,4.232,4.232,0,0,1,.8.074,3.078,3.078,0,0,1,.744.244,4.34,4.34,0,0,1,.7.426,1.076,1.076,0,0,0,.331.181s.2-.023.647-.644l.11-.152h.728l.188,4.348h-.854l-.066-.284c-.059-.251-.114-.454-.165-.606a3.315,3.315,0,0,0-.2-.464,5.019,5.019,0,0,0-.819-1.22,3.316,3.316,0,0,0-.991-.747,2.462,2.462,0,0,0-1.067-.249,1.465,1.465,0,0,0-.988.314,2.065,2.065,0,0,0-.584,1.062,8.132,8.132,0,0,0-.216,2.057,9.474,9.474,0,0,0,.077,1.282,3.569,3.569,0,0,0,.225.888,1.822,1.822,0,0,0,.354.558,1.7,1.7,0,0,0,.635.4,2.465,2.465,0,0,0,.863.146,3.18,3.18,0,0,0,.86-.115,2.844,2.844,0,0,0,.762-.34,3.129,3.129,0,0,0,.656-.565,3.043,3.043,0,0,0,.386-.554,4.971,4.971,0,0,0,.308-.771l.082-.255h.936l-.125.464a4.782,4.782,0,0,1-.31.862,4.051,4.051,0,0,1-.472.728A3.937,3.937,0,0,1,630.371,611.966Zm-2.2-7.278a4.226,4.226,0,0,0-.922.827,3.646,3.646,0,0,0-.613,1.045,3.139,3.139,0,0,0,.319,2.864,3.838,3.838,0,0,0,1.212,1.181,2.852,2.852,0,0,1-.2-.392,4.3,4.3,0,0,1-.276-1.074,10.192,10.192,0,0,1-.084-1.384,8.838,8.838,0,0,1,.241-2.249A3.556,3.556,0,0,1,628.171,604.688Zm4.731.33a5.652,5.652,0,0,1,.564.818l-.051-1.176A1.56,1.56,0,0,1,632.9,605.018Z" transform="translate(-625.692 -603.415)"/></g><g transform="translate(47.902 0.151)"><path class="a" d="M701.453,613.761h.21a1.2,1.2,0,0,0,1.365-1.365v-4.537a2.148,2.148,0,0,0-.132-.564.867.867,0,0,0-.266-.349,1.423,1.423,0,0,0-.968-.285h-.21v-.2h4.73v.2h-.21a1.189,1.189,0,0,0-1.36,1.365v4.37a1.195,1.195,0,0,0,1.36,1.365h.21v.21h-4.73Z" transform="translate(-701.085 -606.093)"/><path class="a" d="M704.757,612.545h-5.466V611.6h.577a.842.842,0,0,0,1-1v-4.514a1.729,1.729,0,0,0-.1-.444.5.5,0,0,0-.155-.2l-.016-.013a1.094,1.094,0,0,0-.724-.192h-.577V604.3h5.466v.935h-.578a.836.836,0,0,0-.992,1v4.37a.84.84,0,0,0,.992,1h.578Zm-3.523-.736h1.586a1.826,1.826,0,0,1-.368-1.207v-4.37a1.847,1.847,0,0,1,.354-1.2h-1.562a1.253,1.253,0,0,1,.2.322,2.477,2.477,0,0,1,.158.663l0,.044V610.6A1.827,1.827,0,0,1,701.234,611.809Z" transform="translate(-699.291 -604.3)"/></g><g transform="translate(56.65 0)"><path class="a" d="M757.316,605.577h.2l3.021,6.569a2.055,2.055,0,0,0,.325.505,1.075,1.075,0,0,0,.406.288,1.453,1.453,0,0,0,.532.089h.2v.21h-4.359v-.21h.57a1.27,1.27,0,0,0,.621-.116.386.386,0,0,0,.2-.357,1.111,1.111,0,0,0-.078-.366q-.078-.215-.341-.779c-.011-.022-.027-.057-.048-.108s-.045-.1-.07-.145l-.124-.274h-3.182l-.242.559a1.491,1.491,0,0,0-.118.575.984.984,0,0,0,.137.489.937.937,0,0,0,.358.365,1.016,1.016,0,0,0,.261.116,1.8,1.8,0,0,0,.331.04v.21h-3.059v-.21a2.026,2.026,0,0,0,.529-.118,1.932,1.932,0,0,0,.438-.269,4.332,4.332,0,0,0,1.113-1.661Zm-.57,1.758-1.473,3.349h2.983Z" transform="translate(-752.481 -605.209)"/><path class="a" d="M760.573,611.811h-5.1v-.945h.938a.925.925,0,0,0,.434-.065.068.068,0,0,0,.013-.009s0-.011,0-.031a.75.75,0,0,0-.056-.24c-.048-.131-.158-.383-.329-.749-.008-.016-.027-.058-.053-.118-.018-.041-.036-.079-.056-.116l-.037-.08h-2.7l-.146.337a1.108,1.108,0,0,0-.088.429.616.616,0,0,0,.089.308.57.57,0,0,0,.217.226.678.678,0,0,0,.171.08,1.392,1.392,0,0,0,.259.03l.349.018v.927h-3.794V610.9l.327-.037a1.642,1.642,0,0,0,.431-.093,1.6,1.6,0,0,0,.352-.219,4.03,4.03,0,0,0,1-1.52l2.483-5.621h.674l3.12,6.783a1.694,1.694,0,0,0,.263.412.706.706,0,0,0,.268.192,1.094,1.094,0,0,0,.4.063h.567Zm-3.032-.736h1.229a2.475,2.475,0,0,1-.359-.566l-2.783-6.051-.375.85,1.539,3.413h.018l.216.479c.028.053.054.107.078.163.017.04.03.069.039.086.187.4.3.666.359.82a1.452,1.452,0,0,1,.1.491A.824.824,0,0,1,757.54,611.075Zm-5.215,0h.642a1.451,1.451,0,0,1-.122-.182,1.485,1.485,0,0,1-.114-.253A2.844,2.844,0,0,1,752.325,611.075Zm1.719-2.553h1.85l-.937-2.077Z" transform="translate(-750.688 -603.415)"/></g><g transform="translate(69.661 0.151)"><path class="a" d="M829.428,606.461h5.123v.2h-.543a1.189,1.189,0,0,0-1.36,1.365v5.746h1.946a2.4,2.4,0,0,0,1.086-.255,2.708,2.708,0,0,0,.887-.712,5.816,5.816,0,0,0,.4-.564,4.246,4.246,0,0,0,.328-.677q.156-.4.306-.914h.2v3.322h-8.369l-.011-.2h.279a1.212,1.212,0,0,0,1.365-1.376v-4.37a1.207,1.207,0,0,0-1.365-1.365h-.269Z" transform="translate(-829.029 -606.093)"/><path class="a" d="M836.272,612.545h-9.086l-.051-.935h.668c.708,0,1-.292,1-1.008v-4.37c0-.708-.289-1-1-1h-.637V604.3h5.858v.935h-.911a.836.836,0,0,0-.992,1v5.378H832.7a2.017,2.017,0,0,0,.922-.216,2.357,2.357,0,0,0,.767-.617,5.485,5.485,0,0,0,.369-.524,3.94,3.94,0,0,0,.3-.619c.1-.253.2-.55.3-.883l.077-.265h.843Zm-1.918-.736h1.182v-1.443q-.075.148-.152.273a6.224,6.224,0,0,1-.423.6A3.167,3.167,0,0,1,834.355,611.809Zm-5.186,0h1.218v-5.577a1.848,1.848,0,0,1,.354-1.2h-1.57a1.826,1.826,0,0,1,.366,1.2v4.37A1.842,1.842,0,0,1,829.168,611.809Z" transform="translate(-827.136 -604.3)"/></g></g></g></svg>