<svg xmlns="http://www.w3.org/2000/svg" width="195.785" height="58.474" viewBox="0 0 195.785 58.474"><defs><style>.a{fill:#3e3e3e;fill-rule:evenodd;}</style></defs><path class="a" d="M299.653,275.559V261.113h-2.018l-.1-.092-.191-.169-.133-.12.009-.182.049-.856.006-.142.1-.1.191-.2.108-.111h12.336l.108.111.191.2.1.1.009.142.046.856.009.182-.132.12-.191.169-.1.092h-2.018v14.446h2.018l.1.092.191.169.132.12-.009.179-.046.86-.009.142-.1.1-.191.2-.108.111H297.672l-.108-.111-.191-.2-.1-.1-.006-.142-.049-.86-.009-.179.133-.12.191-.169.1-.092h2.018Zm33.492,1.417-.5-5.613-.037-.419h1.71l.083.052.336.2.1.065.049.12a7.687,7.687,0,0,0,.471.973,6.879,6.879,0,0,0,.585.847v0a7.513,7.513,0,0,0,.687.743,7.4,7.4,0,0,0,.755.632h0a9.092,9.092,0,0,0,.823.53,8.364,8.364,0,0,0,.85.419h0c.3.126.585.234.872.327s.576.166.863.225h0c.28.059.555.1.823.133a7.714,7.714,0,0,0,.795.043v0c.647,0,1.245-.028,1.8-.074a12.16,12.16,0,0,0,1.448-.2h0a7.911,7.911,0,0,0,1.1-.3,3.519,3.519,0,0,0,.745-.357h0a1.47,1.47,0,0,0,.391-.37.488.488,0,0,0,.1-.28h0a.667.667,0,0,0-.071-.3,1.058,1.058,0,0,0-.243-.3h0a2.882,2.882,0,0,0-.465-.336,4.924,4.924,0,0,0-.625-.311h0c-.243-.1-.511-.206-.807-.305s-.582-.191-.9-.28l0,0c-.333-.1-.669-.188-1.011-.28-.327-.089-.687-.182-1.072-.28-.351-.092-.721-.188-1.115-.3-.431-.117-.807-.219-1.128-.311h0c-.37-.1-.742-.222-1.121-.345s-.743-.253-1.106-.388-.721-.286-1.069-.447-.681-.327-1-.505a8.706,8.706,0,0,1-.924-.582,7.719,7.719,0,0,1-.81-.669h0a5.614,5.614,0,0,1-.684-.776,5.123,5.123,0,0,1-.524-.887,4.559,4.559,0,0,1-.336-1.013,5.467,5.467,0,0,1-.117-1.122v0a4.34,4.34,0,0,1,.114-.992,4.609,4.609,0,0,1,.339-.964h0a5.283,5.283,0,0,1,.548-.9,6.319,6.319,0,0,1,.739-.826h0a7.393,7.393,0,0,1,.927-.739,9.519,9.519,0,0,1,1.106-.635h0a10.624,10.624,0,0,1,1.269-.521,13.216,13.216,0,0,1,1.429-.388h0a14.322,14.322,0,0,1,1.59-.246q.827-.079,1.731-.083h0c.388,0,.758.019,1.109.04.367.025.721.059,1.057.1.293.037.613.08.974.132.342.049.644.1.9.136h0c.283.046.539.077.764.1.243.022.465.034.672.04a2.567,2.567,0,0,0,.388-.025,1.488,1.488,0,0,0,.311-.074h0a.567.567,0,0,0,.173-.1.5.5,0,0,0,.117-.154l.1-.2h1.9l.1.1.216.2.1.1.012.151.478,5.536.037.416h-1.808l-.086-.055-.24-.151-.1-.062-.046-.117a5.832,5.832,0,0,0-.391-.8,5.363,5.363,0,0,0-.481-.7,6.757,6.757,0,0,0-.567-.613,6.037,6.037,0,0,0-.625-.521l0,0q-.324-.236-.675-.444c-.228-.135-.459-.259-.7-.37s-.478-.213-.709-.3-.475-.166-.7-.231-.444-.123-.659-.169-.422-.086-.619-.114h0c-.194-.031-.376-.052-.542-.068a3.964,3.964,0,0,0-.444-.019h0a13.171,13.171,0,0,0-1.319.068,7.248,7.248,0,0,0-1.063.191v0a4.753,4.753,0,0,0-.789.283,2.177,2.177,0,0,0-.514.323.852.852,0,0,0-.348.619h0a.575.575,0,0,0,.065.247.822.822,0,0,0,.219.253v0a2.9,2.9,0,0,0,.434.274,4.49,4.49,0,0,0,.6.262v0c.234.083.5.169.795.256s.57.166.85.237h0l.718.185c.453.114.921.234,1.316.339h0c.367.093.733.194,1.1.3s.742.225,1.115.345h0q.569.189,1.091.37c.348.12.706.25,1.075.385s.715.28,1.057.434.675.317,1,.49h0a8.212,8.212,0,0,1,.921.561h0a7.964,7.964,0,0,1,.826.665,5.476,5.476,0,0,1,.7.789,5.621,5.621,0,0,1,.533.918v0a4.955,4.955,0,0,1,.342,1.078,6.294,6.294,0,0,1,.114,1.214v0a5.573,5.573,0,0,1-.2,1.513,4.841,4.841,0,0,1-.61,1.34,5.726,5.726,0,0,1-.977,1.131,7.042,7.042,0,0,1-1.3.912h0a10.2,10.2,0,0,1-1.6.709,13.944,13.944,0,0,1-1.882.511h0a20.093,20.093,0,0,1-2.147.3c-.755.068-1.547.1-2.382.1h0c-.286,0-.567-.015-.838-.04s-.564-.059-.847-.1-.555-.092-.829-.145c-.243-.043-.515-.1-.816-.163-.213-.046-.465-.1-.77-.157-.228-.046-.468-.092-.721-.142-.234-.043-.447-.077-.641-.1a4.635,4.635,0,0,0-.555-.037h0a2.4,2.4,0,0,0-.314.018,1.259,1.259,0,0,0-.256.052v0a.786.786,0,0,0-.169.077.468.468,0,0,0-.108.1l-.111.136h-1.855l-.1-.1-.216-.2-.1-.1-.012-.151Zm-51.737-9.31,4.387-8.324.1-.2h10.071l.108.111.191.194.1.1v1.18l-.132.12-.191.169-.126.114-.163-.025h-.006c-.083-.012-.166-.025-.228-.031l-.015,0-.1-.009h-.1l-.006,0a1.128,1.128,0,0,0-.246.021,1.289,1.289,0,0,0-.237.065h0a.759.759,0,0,0-.2.114,1.1,1.1,0,0,0-.2.2l-.006.006a1.268,1.268,0,0,0-.172.277,2.626,2.626,0,0,0-.154.425,3.218,3.218,0,0,0-.1.493l.071,11.279a3.624,3.624,0,0,0,.108.561,3.1,3.1,0,0,0,.157.425,1.346,1.346,0,0,0,.169.277l.006,0a1.244,1.244,0,0,0,.2.2.911.911,0,0,0,.194.114h0a1.221,1.221,0,0,0,.237.065,1.352,1.352,0,0,0,.246.021l.006,0h.1l.1-.012h.019c.062-.006.145-.019.228-.031h0l.166-.025.126.114.191.169.132.12v1.18l-.1.1-.191.194-.108.111h-12.4l-.108-.111-.191-.194-.1-.1h0l-.009-.142-.046-.86-.009-.179.133-.12.191-.169.123-.114.059.009.009-.009.166.025h0c.083.012.166.025.228.031h.015l.1.012h.1l.006,0h0a1.562,1.562,0,0,0,.2-.021,1.529,1.529,0,0,0,.24-.065l.006,0a.7.7,0,0,0,.2-.111,1.237,1.237,0,0,0,.2-.185v0a1.335,1.335,0,0,0,.176-.287,2.5,2.5,0,0,0,.145-.416l0,0a4.021,4.021,0,0,0,.108-.6,5.471,5.471,0,0,0,.031-.7l.012-9.166-5.626,13.294-.034.086-.071.059-.24.194-.1.083h-1.694l-.1-.1-.265-.243-.043-.043-.031-.055-7.144-13.577.009,8.713a6.908,6.908,0,0,0,.259,1.269h0a3.724,3.724,0,0,0,.413.9,2.048,2.048,0,0,0,.533.567v0a2.264,2.264,0,0,0,.684.327,3.152,3.152,0,0,0,.86.1v0h.142c.037,0,.08-.006.126-.012s.1-.012.132-.019h0l.145-.031.179-.04.136.123.191.169.139.126-.015.185-.071.856-.012.136-.092.1-.191.194-.1.111h-7.508l-.108-.111-.191-.194-.1-.1v-1.18l.132-.12.191-.169.126-.114h0l.163.025h.006l.172.025h.012l0,0h.028l0,0h.025l.012,0h.012v0h.031v0h.034v0h.111l.006,0h.068l0,0h.052l0,0h.028l0,0h.019l.071-.012a1.287,1.287,0,0,0,.237-.065h0a.858.858,0,0,0,.2-.114,1.118,1.118,0,0,0,.2-.2l.006,0a1.344,1.344,0,0,0,.173-.277,2.737,2.737,0,0,0,.154-.425,2.555,2.555,0,0,0,.071-.308h0l0-.015v0l.006-.015h0v-.009h0l0-.009h0c.009-.065.018-.132.028-.2l0-.3h.028c.009-.139.018-.284.022-.437l.111-10.632a3.2,3.2,0,0,0-.089-.407,2.632,2.632,0,0,0-.154-.425,1.273,1.273,0,0,0-.173-.277l0-.006a1.218,1.218,0,0,0-.2-.2.8.8,0,0,0-.194-.114h0a1.293,1.293,0,0,0-.237-.065,1.13,1.13,0,0,0-.247-.021l-.006,0h-.1l-.1.009-.015,0c-.062.006-.145.018-.228.031h-.006l-.163.025-.126-.114-.191-.169-.132-.12v-.511l-.009-.009v-.65l.009-.009h0l.1-.1.191-.194.108-.111h10.466l.1.2,4.409,8.324Zm30.118,9.31-.5-5.613-.037-.419H312.7l.083.052.336.2.1.065.046.12a7.685,7.685,0,0,0,.475.973,6.876,6.876,0,0,0,.585.847v0a7.881,7.881,0,0,0,.684.743,7.38,7.38,0,0,0,.755.632h0a9.585,9.585,0,0,0,.826.53,8.067,8.067,0,0,0,.85.419h0c.293.126.582.234.872.327s.576.166.86.225h0c.277.059.551.1.823.133a7.717,7.717,0,0,0,.795.043v0q.966,0,1.8-.074a12.247,12.247,0,0,0,1.448-.2h0a7.959,7.959,0,0,0,1.106-.3,3.519,3.519,0,0,0,.746-.357h0a1.521,1.521,0,0,0,.391-.37.512.512,0,0,0,.1-.28h0a.668.668,0,0,0-.074-.3,1.007,1.007,0,0,0-.243-.3h0a2.867,2.867,0,0,0-.465-.336,4.973,4.973,0,0,0-.628-.311h0c-.243-.1-.511-.206-.807-.305s-.585-.191-.9-.28l0,0c-.333-.1-.668-.188-1.01-.28s-.687-.182-1.072-.28c-.351-.092-.724-.188-1.115-.3-.431-.117-.807-.219-1.127-.311h0c-.367-.1-.742-.222-1.118-.345s-.742-.253-1.106-.388-.721-.286-1.069-.447-.681-.327-1-.505a8.408,8.408,0,0,1-.924-.582,8.084,8.084,0,0,1-.813-.669h0a5.638,5.638,0,0,1-.687-.776,5.558,5.558,0,0,1-.524-.887,4.715,4.715,0,0,1-.336-1.013,5.694,5.694,0,0,1-.114-1.122l0,0a4.343,4.343,0,0,1,.117-.992,4.616,4.616,0,0,1,.339-.964h0a5.265,5.265,0,0,1,.545-.9,6.59,6.59,0,0,1,.742-.826h0a7.421,7.421,0,0,1,.93-.739,9.462,9.462,0,0,1,1.1-.635h0a10.672,10.672,0,0,1,1.272-.521,13.019,13.019,0,0,1,1.43-.388h0a14.314,14.314,0,0,1,1.59-.246c.548-.052,1.128-.08,1.731-.083h0c.388,0,.761.019,1.112.04.367.025.721.059,1.057.1.29.037.61.08.973.132.342.049.641.1.894.136h0c.283.046.539.077.767.1.243.022.465.034.672.04a2.566,2.566,0,0,0,.388-.025,1.457,1.457,0,0,0,.308-.074h0a.533.533,0,0,0,.172-.1.462.462,0,0,0,.12-.154l.1-.2h1.907l.1.1.213.2.108.1.012.151.477,5.536.037.416h-1.809l-.089-.055-.237-.151-.1-.062-.046-.117a6.2,6.2,0,0,0-.391-.8,5.357,5.357,0,0,0-.481-.7,6.765,6.765,0,0,0-.567-.613,6.039,6.039,0,0,0-.625-.521l0,0q-.324-.236-.675-.444c-.228-.135-.462-.259-.7-.37s-.477-.213-.709-.3-.474-.166-.7-.231-.444-.123-.659-.169-.425-.086-.619-.114h0c-.194-.031-.376-.052-.545-.068a3.885,3.885,0,0,0-.441-.019h0a13.173,13.173,0,0,0-1.319.068,7.248,7.248,0,0,0-1.063.191v0a4.649,4.649,0,0,0-.789.283,2.267,2.267,0,0,0-.518.323.862.862,0,0,0-.348.619h0a.575.575,0,0,0,.065.247.82.82,0,0,0,.219.253v0a3.007,3.007,0,0,0,.431.274,4.54,4.54,0,0,0,.607.262v0c.234.083.5.169.795.256s.57.166.85.237h0l.721.185c.45.114.921.234,1.315.339h0c.367.093.733.194,1.1.3s.746.225,1.118.345h0q.573.189,1.091.37c.351.12.709.25,1.078.385s.712.28,1.057.434.672.317,1,.49h0a8.208,8.208,0,0,1,.921.561h0a8.308,8.308,0,0,1,.826.665,5.279,5.279,0,0,1,.7.789,5.431,5.431,0,0,1,.536.918v0a4.953,4.953,0,0,1,.342,1.078,6.535,6.535,0,0,1,.114,1.214v0a5.566,5.566,0,0,1-.206,1.513,4.924,4.924,0,0,1-.607,1.34,5.64,5.64,0,0,1-.98,1.131,7.044,7.044,0,0,1-1.3.912h0a10.2,10.2,0,0,1-1.6.709,14.074,14.074,0,0,1-1.882.511h0a20.206,20.206,0,0,1-2.147.3q-1.132.1-2.382.1h0c-.283,0-.564-.015-.835-.04s-.564-.059-.847-.1-.558-.092-.832-.145c-.24-.043-.515-.1-.813-.163-.216-.046-.468-.1-.773-.157-.228-.046-.465-.092-.721-.142-.231-.043-.447-.077-.641-.1a4.554,4.554,0,0,0-.555-.037h0a2.469,2.469,0,0,0-.314.018,1.27,1.27,0,0,0-.253.052l0,0a.831.831,0,0,0-.166.077.412.412,0,0,0-.108.1l-.111.136h-1.855l-.1-.1-.216-.2-.1-.1Z" transform="translate(-202.283 -249.514)"/><path class="a" d="M356.261,282.367V267.582l-.154.006-.311.022c-.108.009-.216.021-.327.034h-.006c-.1.009-.216.025-.327.04s-.213.034-.308.052l-.382.071-.173.031-.132-.114-.191-.169-.132-.117.009-.173.049-.838.006-.139.1-.1.191-.191.108-.108h.148l19.058.015h0l.373-.012.145-.006.108.1.216.191.1.092.012.145.5,4.966.037.37-.37.028-.955.071-.1.009-.1-.052-.262-.145-.111-.059-.049-.117a5.5,5.5,0,0,0-.6-1.069,4.548,4.548,0,0,0-.776-.832h0a6.069,6.069,0,0,0-.952-.644,6.488,6.488,0,0,0-1.094-.471h0a11.246,11.246,0,0,0-1.229-.327,12.676,12.676,0,0,0-1.312-.2h0c-.459-.046-.918-.08-1.383-.1-.351-.018-.706-.025-1.06-.028l-.1,5.964h.228a1.591,1.591,0,0,0,.4-.052,1.881,1.881,0,0,0,.37-.145h0a2.824,2.824,0,0,0,.36-.24,3.055,3.055,0,0,0,.333-.305h0c.111-.123.216-.246.314-.373s.194-.265.283-.4h0c.083-.129.173-.271.259-.419s.16-.277.234-.41h0l.21-.385c.065-.114.126-.228.191-.336l.074-.126.142-.04.265-.071.086-.025.086.019.743.169.283.062v7.841l-.283.065-.743.166-.086.019-.086-.025-.265-.071-.142-.04-.074-.126c-.065-.108-.126-.222-.191-.336s-.136-.247-.21-.388h0c-.068-.123-.145-.259-.234-.41s-.173-.284-.262-.419h0c-.089-.136-.185-.268-.286-.4s-.2-.249-.314-.373h0a3.087,3.087,0,0,0-.333-.305,2.919,2.919,0,0,0-.36-.24h0a1.734,1.734,0,0,0-.37-.145,1.756,1.756,0,0,0-.4-.052h-.228l.108,6.913c.311-.006.622-.025.937-.049.434-.037.872-.092,1.306-.166s.878-.166,1.3-.274v0c.431-.108.85-.234,1.254-.376s.8-.3,1.186-.481a11.714,11.714,0,0,0,1.084-.576h0a8.362,8.362,0,0,0,.952-.659,6.965,6.965,0,0,0,.8-.752h0a5.1,5.1,0,0,0,.613-.816,4.68,4.68,0,0,0,.419-.9l.04-.108.1-.071.237-.166.1-.068.117,0,1,.022.173.006.1.136.166.213.086.111-.009.139-.5,6.427-.028.342-.342-.009-.456-.009v0l-20.891.015h-.148l-.108-.108-.191-.191-.1-.1-.009-.139v-1.072l-.009-.176.132-.117.191-.166.132-.117.173.034.382.071c.1.018.2.034.308.049s.222.031.327.04c.089.009.2.022.333.031s.231.018.311.025l.154.006Zm-23.116,1.371-.5-5.613-.037-.416h1.71l.083.049.336.2.1.062.049.12a7.685,7.685,0,0,0,.471.974,6.923,6.923,0,0,0,.585.85h0a7.563,7.563,0,0,0,.687.746,7.788,7.788,0,0,0,.755.628h0a9.092,9.092,0,0,0,.823.53,7.738,7.738,0,0,0,.85.419h0a9.22,9.22,0,0,0,.872.327,8.276,8.276,0,0,0,.863.225h0a7.353,7.353,0,0,0,.823.132,6.957,6.957,0,0,0,.795.043v0c.647,0,1.245-.028,1.8-.074a12.207,12.207,0,0,0,1.448-.2h0a7.885,7.885,0,0,0,1.1-.3,3.364,3.364,0,0,0,.745-.357h0a1.513,1.513,0,0,0,.391-.366.5.5,0,0,0,.1-.283h0a.677.677,0,0,0-.071-.3,1.057,1.057,0,0,0-.243-.3h0a2.872,2.872,0,0,0-.465-.336,4.935,4.935,0,0,0-.625-.308l0,0c-.243-.1-.511-.2-.807-.305s-.582-.191-.9-.28h0c-.333-.1-.669-.191-1.011-.283-.327-.086-.687-.182-1.072-.28-.351-.089-.721-.188-1.115-.3-.431-.114-.807-.219-1.128-.311h0c-.37-.1-.742-.219-1.121-.345s-.743-.253-1.106-.388-.721-.284-1.069-.444-.681-.33-1-.505a9.206,9.206,0,0,1-.924-.585,7.711,7.711,0,0,1-.81-.669h0a5.611,5.611,0,0,1-.684-.776,5.125,5.125,0,0,1-.524-.887,4.532,4.532,0,0,1-.336-1.011,5.5,5.5,0,0,1-.117-1.124h0a4.366,4.366,0,0,1,.114-1,4.669,4.669,0,0,1,.339-.964h0a5.405,5.405,0,0,1,.548-.9,6.285,6.285,0,0,1,.739-.823l0,0a7.379,7.379,0,0,1,.927-.736,9.106,9.106,0,0,1,1.106-.638v0a9.657,9.657,0,0,1,1.269-.521,13.181,13.181,0,0,1,1.429-.388v0a13.658,13.658,0,0,1,1.59-.243q.827-.083,1.731-.086h0c.388.006.758.018,1.109.043.367.025.721.058,1.057.1.293.037.613.083.974.136.342.049.644.092.9.136h0c.283.043.539.077.764.1.243.022.465.037.672.04a2.555,2.555,0,0,0,.388-.025,1.484,1.484,0,0,0,.311-.074h0a.465.465,0,0,0,.173-.1.5.5,0,0,0,.117-.154l.1-.2h1.9l.1.1.216.2.1.1.012.151.478,5.536.037.419h-1.808l-.086-.055-.24-.151-.1-.065-.046-.114a5.711,5.711,0,0,0-.391-.8,5.126,5.126,0,0,0-.481-.693,6.8,6.8,0,0,0-.567-.616,6.015,6.015,0,0,0-.625-.518l0,0a7.763,7.763,0,0,0-.675-.447c-.228-.136-.459-.259-.7-.37s-.478-.209-.709-.3-.475-.166-.7-.231-.444-.12-.659-.169-.422-.086-.619-.114h0c-.194-.031-.376-.052-.542-.068s-.32-.018-.444-.018h0a13.2,13.2,0,0,0-1.319.071,7.272,7.272,0,0,0-1.063.188h0a4.757,4.757,0,0,0-.789.28,2.087,2.087,0,0,0-.514.327.846.846,0,0,0-.348.616h0a.564.564,0,0,0,.065.246.866.866,0,0,0,.219.256h0a2.478,2.478,0,0,0,.434.274,4.9,4.9,0,0,0,.6.265h0q.351.125.795.259c.283.083.57.163.85.234h0l.718.185,1.316.339h0c.367.1.733.194,1.1.3s.742.225,1.115.348h0c.379.123.742.247,1.091.367s.706.25,1.075.388.715.277,1.057.431.675.317,1,.49h0a8.721,8.721,0,0,1,.921.561h0a7.952,7.952,0,0,1,.826.666,5.47,5.47,0,0,1,.7.789,5.754,5.754,0,0,1,.533.918v0a4.954,4.954,0,0,1,.342,1.078,6.317,6.317,0,0,1,.114,1.214v0a5.613,5.613,0,0,1-.2,1.516,4.822,4.822,0,0,1-.61,1.337,5.724,5.724,0,0,1-.977,1.131,7.029,7.029,0,0,1-1.3.912v0a10.516,10.516,0,0,1-1.6.709,14.891,14.891,0,0,1-1.882.511h0a20.07,20.07,0,0,1-2.147.3c-.755.065-1.547.1-2.382.1h0c-.286,0-.567-.016-.838-.037s-.564-.059-.847-.1-.555-.092-.829-.142c-.243-.046-.515-.1-.816-.166l-.77-.157c-.228-.046-.468-.092-.721-.142-.234-.043-.447-.074-.641-.1s-.388-.034-.555-.037h0a2.406,2.406,0,0,0-.314.019,1.492,1.492,0,0,0-.256.052h0a.659.659,0,0,0-.169.074.549.549,0,0,0-.108.1l-.111.136h-1.855l-.1-.1-.216-.2-.1-.1-.012-.151Zm-21.618,0-.5-5.613-.037-.416H312.7l.083.049.336.2.1.062.046.12a7.683,7.683,0,0,0,.475.974,6.92,6.92,0,0,0,.585.85h0a7.935,7.935,0,0,0,.684.746,7.77,7.77,0,0,0,.755.628h0a9.584,9.584,0,0,0,.826.53,7.483,7.483,0,0,0,.85.419h0a8.623,8.623,0,0,0,.872.327,8.213,8.213,0,0,0,.86.225h0a7.133,7.133,0,0,0,.823.132,6.959,6.959,0,0,0,.795.043v0q.966,0,1.8-.074a12.293,12.293,0,0,0,1.448-.2h0a7.933,7.933,0,0,0,1.106-.3,3.365,3.365,0,0,0,.746-.357h0a1.567,1.567,0,0,0,.391-.366.521.521,0,0,0,.1-.283h0a.679.679,0,0,0-.074-.3,1.007,1.007,0,0,0-.243-.3h0a2.858,2.858,0,0,0-.465-.336,4.985,4.985,0,0,0-.628-.308v0c-.243-.1-.511-.2-.807-.305s-.585-.191-.9-.28h0c-.333-.1-.668-.191-1.01-.283s-.687-.182-1.072-.28c-.351-.089-.724-.188-1.115-.3-.431-.114-.807-.219-1.127-.311h0c-.367-.1-.742-.219-1.118-.345s-.742-.253-1.106-.388-.721-.284-1.069-.444-.681-.33-1-.505a8.874,8.874,0,0,1-.924-.585,8.075,8.075,0,0,1-.813-.669h0a5.634,5.634,0,0,1-.687-.776,5.56,5.56,0,0,1-.524-.887,4.687,4.687,0,0,1-.336-1.011,5.723,5.723,0,0,1-.114-1.124h0a4.368,4.368,0,0,1,.117-1,4.676,4.676,0,0,1,.339-.964h0a5.386,5.386,0,0,1,.545-.9,6.554,6.554,0,0,1,.742-.823v0a7.408,7.408,0,0,1,.93-.736,9.052,9.052,0,0,1,1.1-.638v0a9.7,9.7,0,0,1,1.272-.521,12.985,12.985,0,0,1,1.43-.388v0a13.65,13.65,0,0,1,1.59-.243c.548-.055,1.128-.083,1.731-.086h0c.388.006.761.018,1.112.043.367.025.721.058,1.057.1.29.037.61.083.973.136.342.049.641.092.894.136h0c.283.043.539.077.767.1.243.022.465.037.672.04a2.554,2.554,0,0,0,.388-.025,1.454,1.454,0,0,0,.308-.074h0a.442.442,0,0,0,.172-.1.461.461,0,0,0,.12-.154l.1-.2h1.907l.1.1.213.2.108.1.012.151.477,5.536.037.419h-1.809l-.089-.055-.237-.151-.1-.065-.046-.114a6.062,6.062,0,0,0-.391-.8,5.12,5.12,0,0,0-.481-.693,6.81,6.81,0,0,0-.567-.616,6.017,6.017,0,0,0-.625-.518l0,0a7.763,7.763,0,0,0-.675-.447c-.228-.136-.462-.259-.7-.37s-.477-.209-.709-.3-.474-.166-.7-.231-.444-.12-.659-.169-.425-.086-.619-.114h0c-.194-.031-.376-.052-.545-.068s-.317-.018-.441-.018h0a13.2,13.2,0,0,0-1.319.071,7.272,7.272,0,0,0-1.063.188h0a4.653,4.653,0,0,0-.789.28,2.17,2.17,0,0,0-.518.327.857.857,0,0,0-.348.616h0a.564.564,0,0,0,.065.246.864.864,0,0,0,.219.256h0a2.557,2.557,0,0,0,.431.274,4.96,4.96,0,0,0,.607.265h0q.351.125.795.259c.283.083.57.163.85.234h0q.351.092.721.185c.45.117.921.237,1.315.339h0c.367.1.733.194,1.1.3s.746.225,1.118.348h0c.382.123.746.247,1.091.367s.709.25,1.078.388.712.277,1.057.431.672.317,1,.49h0a8.717,8.717,0,0,1,.921.561h0a8.3,8.3,0,0,1,.826.666,5.274,5.274,0,0,1,.7.789,5.556,5.556,0,0,1,.536.918v0a4.952,4.952,0,0,1,.342,1.078,6.559,6.559,0,0,1,.114,1.214v0a5.606,5.606,0,0,1-.206,1.516,4.9,4.9,0,0,1-.607,1.337,5.639,5.639,0,0,1-.98,1.131,7.031,7.031,0,0,1-1.3.912l0,0a10.506,10.506,0,0,1-1.6.709,15.039,15.039,0,0,1-1.882.511h0a20.182,20.182,0,0,1-2.147.3q-1.132.1-2.382.1h0c-.283,0-.564-.016-.835-.037s-.564-.059-.847-.1-.558-.092-.832-.142c-.24-.046-.515-.1-.813-.166l-.773-.157c-.228-.046-.465-.092-.721-.142-.231-.043-.447-.074-.641-.1s-.385-.034-.555-.037h0a2.474,2.474,0,0,0-.314.019,1.515,1.515,0,0,0-.253.052h0a.686.686,0,0,0-.166.074.473.473,0,0,0-.108.1l-.111.136h-1.855l-.1-.1-.216-.2-.1-.1-.015-.151Zm-30.118-9.307L285.8,266.1l.1-.194h10.071l.108.108.191.2.1.1v1.18l-.132.12-.191.173-.126.111-.163-.025h-.006c-.083-.012-.166-.025-.228-.031H295.5l-.1-.009-.1,0-.006,0a1.349,1.349,0,0,0-.246.022,1.29,1.29,0,0,0-.237.068h0a.744.744,0,0,0-.2.111,1.119,1.119,0,0,0-.2.2l-.006.006a1.313,1.313,0,0,0-.172.274,2.737,2.737,0,0,0-.154.425,3.218,3.218,0,0,0-.1.493l.071,11.279a3.666,3.666,0,0,0,.108.564,2.907,2.907,0,0,0,.157.422,1.267,1.267,0,0,0,.169.277l.006.006a1.214,1.214,0,0,0,.2.2.807.807,0,0,0,.194.114h0a1.234,1.234,0,0,0,.237.068,1.342,1.342,0,0,0,.246.018h.006l.1,0,.1-.009.019,0c.062-.006.145-.018.228-.031h0L296,282.3l.126.114.191.173.132.117v1.183l-.1.1-.191.194-.108.111h-12.4l-.108-.111-.191-.194-.1-.1v0l-.009-.142-.046-.857-.009-.182.133-.117.191-.173.123-.114.059.009.009-.009.166.025h0c.083.012.166.025.228.031l.015,0,.1.009.1,0h.009a1.558,1.558,0,0,0,.2-.018,1.542,1.542,0,0,0,.24-.068l.006,0a.774.774,0,0,0,.2-.108,1.418,1.418,0,0,0,.2-.188h0a1.36,1.36,0,0,0,.176-.29,2.452,2.452,0,0,0,.145-.413l0-.006a4.018,4.018,0,0,0,.108-.6,5.445,5.445,0,0,0,.031-.693l.012-9.169-5.626,13.3-.034.083-.071.059-.24.194-.1.083h-1.694l-.1-.1-.265-.246-.043-.043-.031-.055-7.144-13.577.009,8.716a7.018,7.018,0,0,0,.259,1.269h0a3.7,3.7,0,0,0,.413.893,2.065,2.065,0,0,0,.533.57h0a2.261,2.261,0,0,0,.684.326,3.027,3.027,0,0,0,.86.1h0l.142,0c.037,0,.08-.006.126-.012s.1-.012.132-.018h0l.145-.031.179-.04.136.123.191.173.139.123-.015.185-.071.856-.012.139-.092.1-.191.194-.1.111h-7.508l-.108-.111-.191-.194-.1-.1V282.7l.132-.117.191-.173.126-.114h0l.163.025h.006l.172.025h.006v0h.028l0,0h.019l.015,0h.018l0,0h.022v0h.034v0h.086v0h.129l0,0h.04l0,0h.028l0,0h.012l.071-.009a1.3,1.3,0,0,0,.237-.068h0a.767.767,0,0,0,.2-.114,1.093,1.093,0,0,0,.2-.2l.006-.006a1.265,1.265,0,0,0,.173-.277,2.585,2.585,0,0,0,.154-.422,2.7,2.7,0,0,0,.071-.308h0l0-.018h0l.006-.019h0v-.009h0l0-.009h0c.009-.065.018-.133.028-.2l0-.293h.028c.009-.139.018-.287.022-.441l.111-10.632a3.328,3.328,0,0,0-.089-.407,2.744,2.744,0,0,0-.154-.425,1.319,1.319,0,0,0-.173-.274l0-.006a1.245,1.245,0,0,0-.2-.2.779.779,0,0,0-.194-.111h0a1.293,1.293,0,0,0-.237-.068,1.352,1.352,0,0,0-.247-.022l-.006,0-.1,0-.1.009h-.015c-.062.006-.145.019-.228.031h-.006l-.163.025-.126-.111-.191-.173-.132-.12v-.511l-.009-.009v-.65l.009-.009h0l.1-.1.191-.2.108-.108h10.466l.1.194,4.409,8.328Zm96.283,9.307-.5-5.613-.037-.416h1.71l.083.049.336.2.1.062.049.12a7.673,7.673,0,0,0,.471.974,6.923,6.923,0,0,0,.585.85h0a7.931,7.931,0,0,0,.684.746,8.2,8.2,0,0,0,.758.628h0a9.079,9.079,0,0,0,.823.53,7.743,7.743,0,0,0,.85.419h0a9.2,9.2,0,0,0,.872.327,8.272,8.272,0,0,0,.863.225h0a7.351,7.351,0,0,0,.823.132,6.956,6.956,0,0,0,.795.043v0c.647,0,1.245-.028,1.8-.074a12.294,12.294,0,0,0,1.448-.2h0a8,8,0,0,0,1.1-.3,3.366,3.366,0,0,0,.746-.357h0a1.513,1.513,0,0,0,.391-.366.5.5,0,0,0,.1-.283h0a.677.677,0,0,0-.071-.3,1.057,1.057,0,0,0-.243-.3h0a2.864,2.864,0,0,0-.465-.336,5.146,5.146,0,0,0-.625-.308l0,0c-.243-.1-.512-.2-.807-.305s-.582-.191-.9-.28h0c-.333-.1-.668-.191-1.01-.283-.327-.086-.687-.182-1.072-.28-.351-.089-.721-.188-1.115-.3-.431-.114-.807-.219-1.128-.311h0c-.37-.1-.742-.219-1.121-.345s-.743-.253-1.106-.388-.721-.284-1.069-.444-.681-.33-1-.505a9.19,9.19,0,0,1-.924-.585,8.088,8.088,0,0,1-.813-.669h0a5.844,5.844,0,0,1-.687-.776,5.54,5.54,0,0,1-.524-.887,4.683,4.683,0,0,1-.333-1.011,5.493,5.493,0,0,1-.117-1.124h0a4.367,4.367,0,0,1,.114-1,4.674,4.674,0,0,1,.339-.964h0a5.415,5.415,0,0,1,.548-.9,6.3,6.3,0,0,1,.739-.823l0,0a7.389,7.389,0,0,1,.927-.736,9.307,9.307,0,0,1,1.1-.638l0,0a9.651,9.651,0,0,1,1.269-.521,13.179,13.179,0,0,1,1.429-.388v0a13.653,13.653,0,0,1,1.59-.243c.552-.055,1.128-.083,1.732-.086h0c.388.006.758.018,1.109.043.367.025.721.058,1.057.1.293.037.613.083.974.136.342.049.641.092.9.136h0c.283.043.539.077.764.1.243.022.465.037.672.04a2.554,2.554,0,0,0,.388-.025,1.483,1.483,0,0,0,.311-.074h0a.465.465,0,0,0,.173-.1.5.5,0,0,0,.117-.154l.1-.2h1.9l.1.1.213.2.108.1.012.151.478,5.536.037.419h-1.808l-.086-.055-.24-.151-.1-.065-.046-.114a5.721,5.721,0,0,0-.391-.8,5.134,5.134,0,0,0-.481-.693,6.8,6.8,0,0,0-.567-.616,5.985,5.985,0,0,0-.625-.518l0,0a7.755,7.755,0,0,0-.675-.447c-.228-.136-.462-.259-.7-.37s-.478-.209-.709-.3-.475-.166-.7-.231-.444-.12-.659-.169-.422-.086-.619-.114h0c-.194-.031-.376-.052-.542-.068s-.32-.018-.444-.018h0a13.2,13.2,0,0,0-1.319.071,7.274,7.274,0,0,0-1.063.188h0a4.758,4.758,0,0,0-.789.28,2.085,2.085,0,0,0-.515.327.846.846,0,0,0-.348.616h0a.564.564,0,0,0,.065.246.865.865,0,0,0,.219.256h0a2.557,2.557,0,0,0,.431.274,5.178,5.178,0,0,0,.607.265h0q.351.125.795.259c.284.083.57.163.85.234h0c.231.062.471.123.718.185l1.315.339h0c.367.1.733.194,1.1.3s.746.225,1.118.348h0c.379.123.742.247,1.088.367s.709.25,1.078.388.712.277,1.057.431.675.317,1,.49h0a8.726,8.726,0,0,1,.921.561h0a7.954,7.954,0,0,1,.826.666,5.27,5.27,0,0,1,.7.789,5.556,5.556,0,0,1,.536.918v0a4.964,4.964,0,0,1,.342,1.078,6.324,6.324,0,0,1,.114,1.214v0a5.613,5.613,0,0,1-.2,1.516,5.011,5.011,0,0,1-.61,1.337,5.725,5.725,0,0,1-.977,1.131,7.03,7.03,0,0,1-1.3.912v0a10.509,10.509,0,0,1-1.6.709,14.9,14.9,0,0,1-1.882.511h0a20.068,20.068,0,0,1-2.147.3c-.755.065-1.547.1-2.382.1h0c-.287,0-.567-.016-.838-.037s-.564-.059-.847-.1-.558-.092-.832-.142q-.36-.069-.813-.166l-.77-.157-.721-.142c-.234-.043-.45-.074-.641-.1s-.388-.034-.558-.037h0a2.391,2.391,0,0,0-.311.019,1.491,1.491,0,0,0-.256.052h0a.686.686,0,0,0-.166.074.547.547,0,0,0-.108.1l-.111.136h-1.855l-.1-.1-.216-.2-.1-.1-.012-.151Zm-78.038-1.417V267.878l-1.882,0h-.136l-.1-.09-.191-.173-.133-.12.009-.179.049-.86.006-.142.1-.1.191-.2.108-.108h12.336l.108.108.191.2.1.1.009.142.046.86.009.179-.132.12-.191.173-.1.09h-.136l-1.882,0v14.443h2.018l.1.092.191.173.132.117-.009.182-.046.857-.009.142-.1.1-.191.2-.108.111H297.672l-.108-.111-.191-.2-.1-.1-.006-.142-.049-.857-.009-.182.133-.117.191-.173.1-.092h2.018Z" transform="translate(-202.283 -235.437)"/><path class="a" d="M323.929,264.5q-.106-.776-.222-1.507l-.025-.166.126-.1.262-.228.117-.1.145.037,3.7.906a11.4,11.4,0,0,1,.089,4.359,19.056,19.056,0,0,1-.555,2.415,20.66,20.66,0,0,1-.841,2.326,20,20,0,0,1-1,2.009l3.965,4.366v0a2.156,2.156,0,0,0,.453.37,2.2,2.2,0,0,0,.558.234,4.467,4.467,0,0,0,.672.13,5.8,5.8,0,0,0,.736.037q.43,0,.859-.037c.283-.022.558-.049.823-.086h0l.111-.015c.518-.077.964-.145,1.294-.2l.126-.022.1.08.342.262.092.074.019.12.111.832.015.108-.062.1-.225.339-.068.1-.12.025c-.36.071-.746.154-1.158.25-.394.092-.807.194-1.238.311h0c-.333.089-.835.219-1.337.351-.364.1-.743.194-1.272.336h0c-.428.108-.866.216-1.316.317-.434.1-.859.185-1.275.265s-.826.142-1.217.182a10.956,10.956,0,0,1-1.121.068h0a8.308,8.308,0,0,1-3.143-.638l0,0a10.947,10.947,0,0,1-1.46-.755,12.379,12.379,0,0,1-1.223-.872,13.228,13.228,0,0,1-1.152.65,14.215,14.215,0,0,1-1.473.638h0a15.014,15.014,0,0,1-1.694.527q-.9.231-1.932.391l0,0c-.681.1-1.414.182-2.2.237s-1.608.083-2.5.086a26.727,26.727,0,0,1-2.739-.145,20.285,20.285,0,0,1-2.5-.422,15.991,15.991,0,0,1-2.227-.693,12.507,12.507,0,0,1-1.919-.946,9.3,9.3,0,0,1-1.565-1.2,7.469,7.469,0,0,1-1.177-1.429,6.4,6.4,0,0,1-.743-1.658,6.865,6.865,0,0,1-.253-1.839h0a6.142,6.142,0,0,1,.213-1.59,6.278,6.278,0,0,1,.619-1.479h0a7.979,7.979,0,0,1,.964-1.343,9.719,9.719,0,0,1,1.279-1.2,13.218,13.218,0,0,1,1.55-1.041,15.151,15.151,0,0,1,1.765-.86,17.38,17.38,0,0,1,1.966-.678c.542-.154,1.1-.287,1.676-.4-.148-.24-.283-.481-.407-.718a7.8,7.8,0,0,1-.45-1.057,6.26,6.26,0,0,1-.259-1.026,6.134,6.134,0,0,1-.089-1.06v0a5.63,5.63,0,0,1,.206-1.494,5.286,5.286,0,0,1,.6-1.356l0,0a6.18,6.18,0,0,1,.977-1.18,7.572,7.572,0,0,1,1.309-.983h0a9.852,9.852,0,0,1,1.605-.789,14.363,14.363,0,0,1,1.892-.579h0a17.7,17.7,0,0,1,2.144-.354,22.615,22.615,0,0,1,2.378-.12v0a13.658,13.658,0,0,1,2.89.262,6.524,6.524,0,0,1,2.147.826h0A3.725,3.725,0,0,1,322,258.51a4.373,4.373,0,0,1,.447,2.024v0a7.563,7.563,0,0,1-.287,2.058,6.116,6.116,0,0,1-.835,1.765,6.4,6.4,0,0,1-1.331,1.4,7.082,7.082,0,0,1-1.383.835L324,272.561c.028-.123.052-.246.077-.37.055-.311.1-.622.133-.943v0c.034-.32.059-.65.077-.983s.025-.675.022-1.014v0c0-.518-.022-1.044-.052-1.58s-.077-1.06-.136-1.593S324,265,323.929,264.5Zm-7.366-.444c.188.287.4.576.628.872a6,6,0,0,0,1.229-.669,4.679,4.679,0,0,0,1.047-1.014h0a4.272,4.272,0,0,0,.65-1.269,5.134,5.134,0,0,0,.225-1.522h0a2.248,2.248,0,0,0-.068-.573,1.994,1.994,0,0,0-.2-.49h0a1.9,1.9,0,0,0-.311-.4,2.154,2.154,0,0,0-.419-.311h0a2.121,2.121,0,0,0-.518-.2,2.6,2.6,0,0,0-.6-.065l0,0a2.911,2.911,0,0,0-.653.068,3.355,3.355,0,0,0-.632.206v0a2.2,2.2,0,0,0-.539.351h0a2.566,2.566,0,0,0-.456.53h0a2.39,2.39,0,0,0-.29.687,3.915,3.915,0,0,0-.114.918,4.379,4.379,0,0,0,.117.952,4.584,4.584,0,0,0,.339.94v0a8.728,8.728,0,0,0,.564.986Zm-9.477,4.455h0c-.031-.034-.068-.074-.111-.117a3.948,3.948,0,0,0-.89.527,3.48,3.48,0,0,0-.776.869h0a4.084,4.084,0,0,0-.468,1.137,5.907,5.907,0,0,0-.157,1.411h0a9.2,9.2,0,0,0,.182,1.8,8.3,8.3,0,0,0,.518,1.658h0a9.126,9.126,0,0,0,.813,1.491,8.573,8.573,0,0,0,1.066,1.275,8.727,8.727,0,0,0,2.73,1.836,7.911,7.911,0,0,0,1.584.493,8.63,8.63,0,0,0,1.679.169,7.517,7.517,0,0,0,1.309-.123,8.064,8.064,0,0,0,1.306-.351h0a11.876,11.876,0,0,0,1.294-.545c.317-.157.629-.327.933-.512l-10.749-10.749h0l-.139-.139Z" transform="translate(-140.215 -255.053)"/><path class="a" d="M274.454,255.675a29.237,29.237,0,1,1-29.237,29.237,29.238,29.238,0,0,1,29.237-29.237Zm-14.3,28.809,2.862-5.293.068-.126h5.524v-5.832l.123-.068,5.3-2.878-5.3-2.859-.123-.068v-5.274h0v-.97a24.542,24.542,0,0,0-17.955,17.949h6.559l.068.126,2.874,5.293Zm9.7-23.639.018.019-.015.108v0h0c-.006.055-.015.108-.018.148v.012l-.006.062,0,.068v0a.738.738,0,0,0,.012.163.669.669,0,0,0,.043.154h0a.538.538,0,0,0,.071.13.716.716,0,0,0,.126.129l0,0a.911.911,0,0,0,.176.114,2.081,2.081,0,0,0,.271.1l.089.025h7.662l.089-.025a2.086,2.086,0,0,0,.271-.1.909.909,0,0,0,.176-.114l0,0a.714.714,0,0,0,.126-.129.54.54,0,0,0,.071-.13h0a.669.669,0,0,0,.043-.154.747.747,0,0,0,.012-.163V261.2l-.006-.062,0-.012c0-.04-.009-.092-.019-.148h0v0l-.015-.108.019-.019a24.558,24.558,0,0,0-4.6-.431,24.873,24.873,0,0,0-4.6.431Zm10.441.271v6.417h0v1.22l-.293.3h-.678l-.293-.3.015-.108v0h0c.009-.052.015-.108.019-.148l0-.009.006-.065v-.071a.719.719,0,0,0-.012-.16.67.67,0,0,0-.043-.154h0a.542.542,0,0,0-.071-.13.853.853,0,0,0-.126-.132l0,0a.782.782,0,0,0-.176-.111,1.46,1.46,0,0,0-.271-.1l-.089-.025h-.724l-5.829-.009,8.454,3.669.052.022.037.046.126.157.052.065v1.106l-.062.071-.157.169-.028.031-.034.019-8.633,4.658,5.225-.006h1.519l.089-.025a1.458,1.458,0,0,0,.271-.1.778.778,0,0,0,.176-.111l0,0a.846.846,0,0,0,.126-.132.522.522,0,0,0,.071-.126v0a.668.668,0,0,0,.043-.154.719.719,0,0,0,.012-.16v-.071l-.006-.062,0-.012c0-.04-.009-.1-.019-.148h0v0l-.015-.108.293-.293H280l.293.293v2.754h5.835l.068.126,2.874,5.293,2.862-5.293.068-.126h6.248A24.529,24.529,0,0,0,280.3,261.116Zm18.223,19.194-.022.022-.1-.015h0c-.055-.009-.111-.015-.151-.022h-.009l-.062-.006H298.1l0,0a.959.959,0,0,0-.16.012,1.254,1.254,0,0,0-.154.043h0a.467.467,0,0,0-.129.074.858.858,0,0,0-.132.126l0,0a.822.822,0,0,0-.111.176,2.25,2.25,0,0,0-.1.268l-.025.092v7.659l.025.092a2.066,2.066,0,0,0,.1.268.854.854,0,0,0,.111.179l0,0a.851.851,0,0,0,.132.126.539.539,0,0,0,.129.071h0a.885.885,0,0,0,.154.043.959.959,0,0,0,.16.012h0l.071,0,.062-.006h.009c.04,0,.1-.012.151-.018h0l0,0,.1-.015.025.025a24.675,24.675,0,0,0,0-9.2Zm-.268,10.444H290.61l-.3-.3v-.675l.3-.3.1.015,0,0h0c.055.006.108.015.148.018h.012l.062.006.068,0h.006a.984.984,0,0,0,.16-.012.883.883,0,0,0,.154-.043h0a.539.539,0,0,0,.129-.071.717.717,0,0,0,.129-.126l.006,0a.849.849,0,0,0,.111-.179,2.053,2.053,0,0,0,.1-.268l.025-.092v-.564h0v-.16l.009-5.826-3.669,8.454-.025.052-.046.037-.154.123-.065.052h-1.109l-.068-.062-.17-.154-.031-.028-.019-.037-4.661-8.633.009,5.225v1.519l.022.092a2.036,2.036,0,0,0,.1.268.851.851,0,0,0,.114.179l0,0a.832.832,0,0,0,.129.126.538.538,0,0,0,.129.071h0a.915.915,0,0,0,.157.043.934.934,0,0,0,.16.012h0l.068,0,.062-.006h.012c.04,0,.092-.012.148-.018h0l0,0,.108-.015.293.3v.675l-.293.3H280.3v6.926l-.293.293h-.678l-.293-.293.015-.108v0h0c.009-.052.015-.108.019-.148l0-.009.006-.065v-.071a.719.719,0,0,0-.012-.16.671.671,0,0,0-.043-.154v0a.589.589,0,0,0-.071-.126.853.853,0,0,0-.126-.132l0,0a.78.78,0,0,0-.176-.111,1.469,1.469,0,0,0-.271-.1l-.089-.025h-.724l-5.829-.009,8.454,3.669.052.022.037.046.126.157.052.065v1.106l-.062.068-.157.173-.028.031-.034.019-8.633,4.658,5.225-.006h1.519l.089-.025a1.469,1.469,0,0,0,.271-.1.785.785,0,0,0,.176-.111l0,0a.838.838,0,0,0,.126-.132.584.584,0,0,0,.071-.126v0a.67.67,0,0,0,.043-.154.719.719,0,0,0,.012-.16v-.071l-.006-.065,0-.009c0-.04-.009-.1-.019-.148h0v0l-.015-.108.293-.3H280l.293.3v2.5h0v.971a24.535,24.535,0,0,0,17.955-17.958Zm-19.2,18.226-.019-.018.015-.1v0h0c.009-.055.015-.108.019-.151l0-.009.006-.062v-.074a.734.734,0,0,0-.012-.16.67.67,0,0,0-.043-.154h0a.538.538,0,0,0-.071-.129.711.711,0,0,0-.126-.129l0-.006a.913.913,0,0,0-.176-.111,2.078,2.078,0,0,0-.271-.1l-.089-.025h-7.662l-.089.025a2.072,2.072,0,0,0-.271.1.914.914,0,0,0-.176.111l0,.006a.713.713,0,0,0-.126.129.536.536,0,0,0-.071.129h0a.67.67,0,0,0-.043.154.725.725,0,0,0-.012.16v.006l0,.068.006.062v.009c0,.043.012.1.018.151h0v0l.015.1-.018.018a24.723,24.723,0,0,0,9.2,0Zm-10.441-.268v-6.556l.123-.065,5.3-2.878-5.3-2.859-.123-.068v-5.533h-6.92l-.293-.3v-.675l.293-.3.108.015,0,0h0c.055.006.108.015.148.018h.012l.062.006.068,0h0a.935.935,0,0,0,.16-.012,1,1,0,0,0,.157-.043h0a.47.47,0,0,0,.126-.071.73.73,0,0,0,.133-.126l0,0a.785.785,0,0,0,.111-.176,1.557,1.557,0,0,0,.1-.271l.025-.092v-.564a1.35,1.35,0,0,0,0-.157h0l.009-5.829-3.666,8.454-.025.052-.046.037-.154.123-.068.052h-1.106l-.068-.062-.173-.154-.028-.028-.022-.034-4.658-8.636.006,5.225v1.519l.025.092a2.291,2.291,0,0,0,.1.271.911.911,0,0,0,.111.176l.006,0a.715.715,0,0,0,.129.126.539.539,0,0,0,.129.071h0a.883.883,0,0,0,.154.043.96.96,0,0,0,.16.012h.006l.068,0,.062-.006h.009c.04,0,.1-.012.151-.018h0l0,0,.1-.015.3.3v.675l-.3.3h-3.478a24.548,24.548,0,0,0,17.955,17.958Zm-18.226-19.2.025-.025.108.015,0,0h0c.052.006.108.015.148.018h.009l.065.006.068,0h0a.96.96,0,0,0,.16-.012.884.884,0,0,0,.154-.043h0a.586.586,0,0,0,.126-.071.845.845,0,0,0,.133-.126l0,0a.784.784,0,0,0,.111-.176,1.552,1.552,0,0,0,.1-.271l.025-.092V281.08l-.025-.092a1.517,1.517,0,0,0-.1-.268.718.718,0,0,0-.111-.176l0,0a.853.853,0,0,0-.133-.126.5.5,0,0,0-.126-.074h0a1.253,1.253,0,0,0-.154-.043.96.96,0,0,0-.16-.012l0,0h-.068l-.065.006-.009,0c-.04,0-.1.009-.148.019h0l-.108.015-.021-.022a24.843,24.843,0,0,0,0,9.2Zm28.649.277v-.006l.293-.3.108.015,0,0h0c.052.006.108.015.148.018h.012l.062.006.068,0h0a.934.934,0,0,0,.16-.012,1,1,0,0,0,.157-.043h0a.471.471,0,0,0,.126-.071.725.725,0,0,0,.132-.126l0,0a.855.855,0,0,0,.114-.179,1.691,1.691,0,0,0,.1-.268l.025-.092v-.213l0-.006,0-.111V281.08l-.025-.092a1.81,1.81,0,0,0-.1-.268.824.824,0,0,0-.114-.176l0,0a.731.731,0,0,0-.132-.126.414.414,0,0,0-.126-.074h0a1.471,1.471,0,0,0-.157-.043.934.934,0,0,0-.16-.012l0,0h-.068l-.062.006h-.012c-.04.006-.1.012-.148.022h0l-.108.015-.293-.293.015-.108v0h0c.009-.056.015-.108.019-.151l0-.009.006-.062v-.071a.747.747,0,0,0-.012-.163.715.715,0,0,0-.043-.154h0a.539.539,0,0,0-.071-.129.713.713,0,0,0-.126-.129l0,0a.911.911,0,0,0-.176-.114,2.1,2.1,0,0,0-.271-.1l-.089-.022h-.216l0,0-.111,0h-7.332l-.089.022a2.09,2.09,0,0,0-.271.1.912.912,0,0,0-.176.114l0,0a.715.715,0,0,0-.126.129.537.537,0,0,0-.071.129h0a.715.715,0,0,0-.043.154.738.738,0,0,0-.012.163v0l0,.068.006.062v.009c0,.043.012.1.018.151h0v0l.015.108-.293.293-.108-.015h0c-.052-.009-.108-.015-.148-.019l-.012,0-.062-.006h-.068l0,0a.961.961,0,0,0-.16.012,1.249,1.249,0,0,0-.154.043h0a.453.453,0,0,0-.126.074.853.853,0,0,0-.132.126l0,0a.718.718,0,0,0-.111.176,1.525,1.525,0,0,0-.1.268l-.025.092v7.659l.025.092a1.56,1.56,0,0,0,.1.271.785.785,0,0,0,.111.176l0,0a.845.845,0,0,0,.132.126.522.522,0,0,0,.126.071h0a.882.882,0,0,0,.154.043.961.961,0,0,0,.16.012h0l.068,0,.062-.006h.012c.04,0,.1-.012.148-.018h0l0,0,.108-.015.293.3v.006h0l-.015.108v0h0c-.006.055-.015.108-.018.148v.012l-.006.062,0,.068v0a.849.849,0,0,0,.056.317h0a.535.535,0,0,0,.071.129.829.829,0,0,0,.126.129l0,0a.911.911,0,0,0,.176.114,2.081,2.081,0,0,0,.271.1l.089.022h7.662l.089-.022a2.086,2.086,0,0,0,.271-.1.909.909,0,0,0,.176-.114l0,0a.827.827,0,0,0,.126-.129.537.537,0,0,0,.071-.129h0a.694.694,0,0,0,.043-.157.706.706,0,0,0,.012-.16v-.071l-.006-.062,0-.012c0-.04-.009-.092-.019-.148h0v0l-.015-.108Z" transform="translate(-245.217 -255.675)"/></svg>