<svg xmlns="http://www.w3.org/2000/svg" width="136.999" height="76.506" viewBox="0 0 136.999 76.506"><defs><style>.a{fill:#3e3e3e;}</style></defs><path class="a" d="M167.365,397.912c-.146,0-.207.061-.265.229l-1.59,3.925a4.752,4.752,0,0,0-.491,1.449c0,.516.13.861,1.1.905l.5.008c.353,0,.317.329.317.5a.309.309,0,0,1-.262.306H163.5c-.328,0-1.9.006-3.434.006a.36.36,0,0,1-.315-.29c-.005-.177.041-.5.276-.516a7.72,7.72,0,0,0,.875-.055c1.366-.345,1.755-.88,2.341-2.31l7.394-17.754c.353-.831.527-1.146.823-1.146.268,0,.444.257.737.919.709,1.573,5.421,13.025,7.306,17.378,1.118,2.575,1.427,2.675,2.04,2.838a3.14,3.14,0,0,0,.974.124c.328,0,.453.168.4.5a.489.489,0,0,1-.3.306h-6.285a.41.41,0,0,1-.149-.806c.359-.1.442-.37.3-.712l-2.252-5.6a.289.289,0,0,0-.3-.2Zm6.006-1.43c.149,0,.177-.088.149-.171l-2.65-7.044c-.03-.113-.061-.257-.146-.257s-.149.144-.177.257l-2.711,7.014c-.028.113,0,.2.119.2Z" transform="translate(-92.534 -333.125)"/><path class="a" d="M160.507,391.27a.4.4,0,1,1-.4-.4.4.4,0,0,1,.4.4" transform="translate(-92.604 -319.566)"/><path class="a" d="M162.915,391.27a.4.4,0,1,1-.4-.4.4.4,0,0,1,.4.4" transform="translate(-88.369 -319.566)"/><path class="a" d="M166.371,391.27a.4.4,0,0,1-.395.4.4.4,0,1,1,0-.8.4.4,0,0,1,.395.4" transform="translate(-82.282 -319.566)"/><path class="a" d="M168.693,391.27a.4.4,0,1,1-.8,0,.4.4,0,1,1,.8,0" transform="translate(-78.199 -319.566)"/><path class="a" d="M176.544,396.726c0,3.663,0,5.636.621,6.155.5.431,1.264.629,3.561.629,1.562,0,2.711-.03,3.448-.8.353-.373.414-1.2.574-1.72a.428.428,0,0,1,.585-.317c.265.113.265.414.218.809-.072.566-.138,1.157-.414,2.835-.108.665-.464.665-.522.665-2.139,0-5.062.008-6.387.008h-7.4c-.32,0-.384-.21-.384-.411a.435.435,0,0,1,.389-.406,5.1,5.1,0,0,0,1.043-.077c.591-.113.723-.442.842-1.272.149-1.2.149-3.464.149-6.1v-5.04c0-4.353,0-5.156-.061-6.073-.058-.969-.3-1.209-1.267-1.408a5.273,5.273,0,0,0-1.052-.086c-.041,0-.317-.2-.317-.4s.119-.406.489-.406c1.383,0,3.29.011,4.088.011.7,0,2.865-.011,4.013-.011.207,0,.549.005.549.378a.409.409,0,0,1-.461.444,8.019,8.019,0,0,0-1.154.072c-.792.144-1.03.406-1.087,1.408-.061.916-.061,1.72-.061,6.073Z" transform="translate(-74.194 -332.872)"/><path class="a" d="M171.042,391.27a.4.4,0,1,1-.4-.4.4.4,0,0,1,.4.4" transform="translate(-74.064 -319.566)"/><path class="a" d="M170.958,383.712a.4.4,0,1,1-.4-.4.4.4,0,0,1,.4.4" transform="translate(-74.208 -332.865)"/><path class="a" d="M174.01,383.712a.4.4,0,1,1-.4-.4.4.4,0,0,1,.4.4" transform="translate(-68.84 -332.865)"/><path class="a" d="M176.057,391.27a.4.4,0,1,1-.4-.4.4.4,0,0,1,.4.4" transform="translate(-65.233 -319.566)"/><path class="a" d="M176.257,389.981a.4.4,0,1,1-.4-.4.4.4,0,0,1,.4.4" transform="translate(-64.89 -321.835)"/><path class="a" d="M160.487,397.544a5.949,5.949,0,0,0-.676-3.006c-.207-.458-4.154-6.757-5.186-8.247a5.367,5.367,0,0,0-1.764-1.83,7.392,7.392,0,0,0-1.7-.35c-.16-.022-.251-.124-.326-.516a.55.55,0,0,1,.406-.282c.53,0,2.975.017,3.95.017.618,0,1.64-.017,2.967-.017.293,0,.742-.033.679.37-.061.375.052.447-.7.447s-.547.212-.21.933c.1.2.174.373.408.789.464.831,4.273,7.284,4.742,8.085.293-.687,3.975-7,4.419-7.875.389-.77.439-.889.66-1.358.262-.563-.334-.549-.85-.566-.265-.008-.621-.025-.607-.425.005-.24.2-.389.552-.389l2.779,0,3.155,0c.323,0,.5.094.544.293.08.353-.213.527-.535.527a3.815,3.815,0,0,0-1.507.155,3.891,3.891,0,0,0-1.421,1.286,89.985,89.985,0,0,0-5.625,9.1,6.679,6.679,0,0,0-.442,2.862v2.349a17.968,17.968,0,0,0,.022,2.159c.061.828.359,1.935,1.242,2.048a12.1,12.1,0,0,0,1.482.061c.323,0,.552.124.5.466-.022.179-.32.351-.362.351h-4.772l-3.972,0a.594.594,0,0,1-.359-.309c-.094-.146.072-.494.395-.494a5.977,5.977,0,0,0,1.1-.091c.591-.113.889-1.041.95-1.871.088-1.2.061-1.863.061-2.321Z" transform="translate(-108.229 -332.87)"/><path class="a" d="M151.619,383.712a.4.4,0,1,1-.4-.4.4.4,0,0,1,.4.4" transform="translate(-108.249 -332.865)"/><path class="a" d="M154.21,391.27a.4.4,0,1,1-.4-.4.4.4,0,0,1,.4.4" transform="translate(-103.691 -319.566)"/><path class="a" d="M157.374,391.27a.4.4,0,1,1-.395-.4.4.4,0,0,1,.395.4" transform="translate(-98.113 -319.566)"/><path class="a" d="M154.272,383.712a.4.4,0,1,1-.4-.4.4.4,0,0,1,.4.4" transform="translate(-103.588 -332.865)"/><path class="a" d="M186.386,397.539a5.941,5.941,0,0,0-.679-3.006c-.2-.455-4.151-6.757-5.181-8.242a5.416,5.416,0,0,0-1.764-1.83,7.3,7.3,0,0,0-1.706-.35c-.16-.025-.251-.124-.326-.516a.555.555,0,0,1,.4-.282c.533,0,2.978.011,3.95.011.621,0,1.642-.011,2.967-.011.3,0,.745-.036.682.364-.058.378.052.45-.7.45s-.544.21-.21.933c.1.207.174.373.409.789.464.831,4.273,7.284,4.745,8.085.293-.69,3.977-7,4.416-7.872.392-.773.436-.894.66-1.364.268-.56-.334-.547-.847-.56-.262-.011-.618-.028-.607-.431.005-.24.2-.386.552-.386h2.78c.649,0,2.595-.006,3.155-.006.323,0,.5.091.541.293.083.35-.21.53-.536.53a3.834,3.834,0,0,0-1.5.152,3.912,3.912,0,0,0-1.427,1.284,91.122,91.122,0,0,0-5.625,9.1,6.685,6.685,0,0,0-.442,2.862v2.349a18.2,18.2,0,0,0,.025,2.159c.058.833.359,1.938,1.242,2.053a13.3,13.3,0,0,0,1.482.058c.323,0,.552.127.505.469-.025.177-.323.351-.367.351h-8.742a.579.579,0,0,1-.356-.306c-.1-.152.066-.5.392-.5a5.742,5.742,0,0,0,1.1-.091c.588-.113.892-1.043.949-1.874.088-1.2.061-1.86.061-2.321Z" transform="translate(-62.642 -332.87)"/><path class="a" d="M177.52,383.711a.4.4,0,1,1-.4-.4.4.4,0,0,1,.4.4" transform="translate(-62.663 -332.866)"/><path class="a" d="M180.109,391.269a.4.4,0,1,1-.4-.4.4.4,0,0,1,.4.4" transform="translate(-58.104 -319.568)"/><path class="a" d="M183.277,391.269a.4.4,0,1,1-.4-.4.4.4,0,0,1,.4.4" transform="translate(-52.528 -319.568)"/><path class="a" d="M180.169,383.711a.4.4,0,1,1-.4-.4.4.4,0,0,1,.4.4" transform="translate(-57.999 -332.866)"/><path class="a" d="M153.019,383.167c-8.835,0-12.164,6.329-12.164,11.223,0,5.068,3.417,11.223,11.869,11.223,7.48,0,12.195-5.181,12.195-11.736s-4.565-10.71-11.9-10.71m6.536,18.711a7.013,7.013,0,0,1-3.525,1.982,6.9,6.9,0,0,1-2.07.323c-5.656,0-9.042-4.725-9.042-10.679,0-7.127,3.859-8.96,7.248-8.96,4.828,0,8.626,3.977,8.626,10.392a14.422,14.422,0,0,1-.629,4.516c.991-1.725,1.75-4.436.933-8.449a.5.5,0,1,1,.977-.2c1.264,6.219-1.035,9.608-2.517,11.074" transform="translate(-125.791 -333.125)"/><path class="a" d="M146.523,383.328c-.014,0-.188,0-.312,0h-.905c-1.151,0-2.4-.005-3.108-.005h-4.4l-.014,0h-.008a.4.4,0,0,0-.4.4.4.4,0,0,0,.4.4h.011c.025,0,.947.025,1.212.025.712,0,1.284.516,1.284,1.615,0,.944.022,1.5.063,5.86v5.148c0,5.465-.1,8.86-2.062,10.544-1.1.853-2.777.925-2.862,1.355-.19.914.809.646.889.629a6.934,6.934,0,0,0,2.059-.933c2.744-1.827,4.389-3.665,5-5.413a14.93,14.93,0,0,0,.707-5.068c0-1.433-.088-2.81-.088-4.038v-2.225c0-4.356.061-4.863.061-5.783,0-1.529.809-1.7,1.375-1.7.367,0,1.076-.014,1.1-.014a.4.4,0,0,0,.4-.4.405.405,0,0,0-.4-.4" transform="translate(-135.397 -332.847)"/><g transform="translate(42.935)"><path class="a" d="M188.617,401.91s.008-.017-.152.132-.395.384-.723.665A25.648,25.648,0,0,1,184.736,405l-.224.141c-.149.091-.384.215-.685.389a20.759,20.759,0,0,1-2.791,1.3,21.507,21.507,0,0,1-4.819,1.247,20.64,20.64,0,0,1-3.16.21,21.757,21.757,0,0,1-3.585-.312,21.385,21.385,0,0,1-14.723-10.146l-.174-.287-.16-.3c-.108-.2-.215-.4-.323-.6l-.3-.618-.149-.312-.132-.32a20.814,20.814,0,0,1-.944-2.664,23.233,23.233,0,0,1-.591-2.854,24.391,24.391,0,0,1-.193-3,23.42,23.42,0,0,1,.246-3.083,21.8,21.8,0,0,1,.718-3.1,19.987,19.987,0,0,1,1.214-3.033c.235-.5.516-.983.789-1.471.149-.237.3-.475.447-.715s.32-.464.48-.7l.174-.254c.086-.124.182-.246.182-.246l.461-.585c.155-.193.364-.422.6-.7s.552-.582.889-.941a22.165,22.165,0,0,1,2.821-2.352c.152-.1.306-.21.464-.32l.494-.309c.331-.218.693-.414,1.068-.621.182-.108.378-.2.577-.3s.4-.2.6-.3c.42-.177.845-.384,1.306-.546l.524-.2c.171-.055.378-.127.618-.207l.384-.124.433-.121a21.423,21.423,0,0,1,9.859-.411c.773.149,1.463.323,2.029.489l.759.226.541.188.171.055c.113.036.282.088.5.174s.494.188.814.32.7.3,1.107.511a20.294,20.294,0,0,1,2.929,1.78,20.99,20.99,0,0,1,3.475,3.2,20.645,20.645,0,0,1,3.224,5.021,21.239,21.239,0,0,1,.947,15.1,20.968,20.968,0,0,1-4.607,8l.116-.124c.075-.083.193-.2.334-.367s.315-.378.522-.624.42-.555.676-.889a21.038,21.038,0,0,0,3.9-11.482,21.252,21.252,0,0,0-.086-2.851,22.816,22.816,0,0,0-.511-3,23.262,23.262,0,0,0-1-3.058,22.1,22.1,0,0,0-1.546-3,20.2,20.2,0,0,0-2.1-2.818,20.467,20.467,0,0,0-2.63-2.512l-.185-.185c-.133-.116-.331-.293-.6-.53l-.218-.188c-.077-.064-.163-.127-.254-.2l-.593-.458-.74-.5c-.268-.188-.571-.35-.892-.546a19.492,19.492,0,0,0-5.283-2.081,20.536,20.536,0,0,0-8.154-.229l.248-.058c.179-.039.461-.108.889-.177.213-.028.464-.061.751-.1s.621-.053,1-.083.8-.022,1.27-.03c.469.019.988.025,1.559.088a20.159,20.159,0,0,1,4.035.784,20.747,20.747,0,0,1,5.109,2.319c.464.276.911.607,1.38.936.226.177.458.356.69.538s.455.384.69.58a22.3,22.3,0,0,1,2.694,2.813,21.557,21.557,0,0,1,4.066,8.242l-.061-.248-.086-.331c-.036-.135-.091-.3-.149-.486s-.124-.414-.213-.663-.193-.527-.309-.839-.273-.649-.433-1.027c-.179-.367-.367-.776-.6-1.209a21.361,21.361,0,0,0-1.874-2.918,21.76,21.76,0,0,0-3.158-3.354c-.166-.141-.331-.287-.505-.428s-.356-.279-.541-.42c-.359-.293-.762-.546-1.162-.831a22.729,22.729,0,0,0-2.708-1.526,23.018,23.018,0,0,0-3.227-1.231,22.338,22.338,0,0,0-3.746-.737s.254.008.723.05l.858.1c.334.05.715.124,1.143.2a20.257,20.257,0,0,1,2.956.867,19.721,19.721,0,0,1,3.489,1.75l-.124-.074c-.086-.047-.2-.127-.373-.215-.337-.179-.828-.464-1.513-.776a21.9,21.9,0,0,0-2.592-1.021,21.528,21.528,0,0,0-3.735-.864,21.943,21.943,0,0,0-4.839-.16,22.654,22.654,0,0,0-2.763.381,23.391,23.391,0,0,0-2.92.806,23.847,23.847,0,0,0-2.992,1.3,23.07,23.07,0,0,0-2.942,1.874A21.254,21.254,0,0,0,157,371.948a22.4,22.4,0,0,0-2.44,3.089,22.883,22.883,0,0,1,2.158-2.793c.168-.177-.27.259-1.057,1.239-.193.249-.417.522-.638.845l-.353.5c-.119.174-.235.364-.362.558-.254.384-.489.82-.748,1.275-.127.229-.24.472-.367.718s-.246.505-.362.77a21.595,21.595,0,0,0-1.855,7.737,21.912,21.912,0,0,0,6.384,16.647,22.742,22.742,0,0,0,3.16,2.647,23.14,23.14,0,0,0,3.133,1.808,26.068,26.068,0,0,0,4.745,1.689l.944.168,1.1.141.676.055c.119.008.24.019.364.028s.254.008.386.014a21.883,21.883,0,0,0,7.588-1.054,21.471,21.471,0,0,0,3.776-1.645,20.4,20.4,0,0,0,2.987-2.018,11.6,11.6,0,0,0,2.523-2.573" transform="translate(-150.952 -365.037)"/><path class="a" d="M174.648,401.474l0,0a21.083,21.083,0,0,0,5.228-8.871,21.43,21.43,0,0,0-2.49-17.588,21.268,21.268,0,0,0-10.3-8.391,20.646,20.646,0,0,0-4.353-1.129l-.864-.108-.756-.058c-.243-.022-.461-.028-.646-.03l-.535-.011c-.215,0-.395,0-.541.008-.069,0-.13.005-.185.005l-.246.008v-.058l.246-.006.185-.008c.146,0,.326-.011.541-.005l.538.011c.182,0,.4.008.649.03l.759.058.861.108a20.7,20.7,0,0,1,4.367,1.132,21.359,21.359,0,0,1,10.326,8.413,21.509,21.509,0,0,1,2.5,17.635,20.939,20.939,0,0,1-4.8,8.385c-.146.157-.337.32-.489.472" transform="translate(-136.845 -364.701)"/><path class="a" d="M175.323,384.633a30.1,30.1,0,0,0,.3-10.157c-1.4-8.935-8.739-10.152-9.318-3.892a15.709,15.709,0,0,0,2.3,9.953c.828,1.468,2.252.442,1.226-.685-1.993-2.186-4.99-12.843-.2-12.843,3.478,0,6.44,9.081,4.193,17.734-6.531.588-13.133,2.686-17.188,6.669-6.406,6.293,1.272,13.887,11.079,6.8,3.966-2.865,6.373-7.836,7.48-12.954a38.208,38.208,0,0,1,8.352.138c1.725.392,2.04-.028,2.04-.028a38.383,38.383,0,0,0-10.262-.74m-4.212,6.329c-7.571,11.6-21.637,10.831-13.608,1.637,4.113-4.709,10.632-6.547,16.133-7.185a20.857,20.857,0,0,1-2.526,5.548" transform="translate(-145.091 -362.163)"/><path class="a" d="M164.748,375.177a1.277,1.277,0,1,1-1.275-1.275,1.276,1.276,0,0,1,1.275,1.275" transform="translate(-131.163 -349.433)"/></g></svg>