<svg xmlns="http://www.w3.org/2000/svg" width="290.7" height="31.211" viewBox="0 0 290.7 31.211"><defs><style>.a,.b{fill:#3e3e3e;}.a{fill-rule:evenodd;}</style></defs><g transform="translate(0)"><path class="a" d="M135.3,271.459l-5.722-.087,2.934-6.064Zm10.892-10.5a12.22,12.22,0,0,1,8.22,2.164,7.959,7.959,0,0,1,3.031,5.62A8.789,8.789,0,0,1,154.7,275.9a9.992,9.992,0,0,1-8.883,2.172l-.26-.048.347-17.045ZM122.369,279.72a28.622,28.622,0,0,1,6.181-.1c-.54-.879-1.231-.568-1.9-1.213l-.161-.153,2.659-5.725,6.355.153,2.569,5.45-.2.153a12.671,12.671,0,0,0-1.654,1.2c2.177-.387,4.675-.066,6.882-.186h.02l.023,0c2.857.255,10.537.867,12.926-1.07,4.134-3.6,6.135-10.165,2.669-14.881a7.054,7.054,0,0,0-1.721-1.672c-1.952-1.336-4.563-1.68-6.869-1.835-3.1-.206-6.23-.145-9.342-.3.334.948,1.043.851,1.769,1.6l.089.089v17.787l-.257.046c-.974.168-2.248-3.13-2.526-3.788-1.15-2.692-2.159-5.478-3.179-8.223-.994-2.671-1.975-5.381-3.087-8.006h-.436a118.473,118.473,0,0,1-8.766,19.3l-.051.084-.089.041C123.618,278.767,122.738,279.063,122.369,279.72Zm54.864-.023,5.9.1a3.623,3.623,0,0,0-1.583-.813l-.247-.056.293-17.71.066-.084a14.045,14.045,0,0,0,1.435-1.448h-6.133a16.877,16.877,0,0,0,1.764,1.269l.1.094-.1,17.9-.257.043A2.047,2.047,0,0,0,177.233,279.7ZM172.081,266c-.005,4.639-2.947,5.483-6.989,5.1l-.28-.028,0-9.7.291-.018C168.635,261.115,172.086,261.7,172.081,266Zm-11.565-6.207c.138.9,1.211.668,1.677,1.208l.076.087-.206,17.988-.314-.008a2.107,2.107,0,0,0-1.486.913c2.082-.028,4.127-.237,6.207-.064a1.8,1.8,0,0,0-1.591-.78l-.3-.02.3-7h2.936l.079.194a25.762,25.762,0,0,0,5.982,9.186,32.4,32.4,0,0,0,13.979,7.792c9.709,2.689,17.058-.278,22.683-8.457l.02-.028.026-.023a.252.252,0,0,0-.051-.441c-6.64,9.8-15.73,10.813-25.9,5.381a27.488,27.488,0,0,1-7.711-5.5l-.041-.041v0l-.1-.107-.393-.4h.015A33.914,33.914,0,0,1,171,271.9l-.138-.27.265-.145a6.752,6.752,0,0,0,3.846-5.1c.362-3.074-2.733-6.3-5.756-6.375Zm45.706,11.955,3.316-7.446,3.665,7.558Zm-1.448,7.779c-.234-.627-1.384-.405-1.613-1.124l-.038-.122,2.817-5.531,7.489.25,2.59,5.467-.326.112a2.247,2.247,0,0,0-1.455,1.088h6.426a4.585,4.585,0,0,0-1.326-1.139l-.082-.048-8.753-19.24a5.2,5.2,0,0,0-.655.01c-.036.171-.064.885-.074,1.009l-.005.051L201.7,278.629l-.935-.015L201,260.588l.1-.092c.367-.337,1.147-.423,1.394-.849h-4.711c.24.418,1.02.545,1.435.884l.112.092.209,14.165-10.451-14.95h-3.632c.27.408.841.589,1.249.862l.14.092-.194,17.784-.015.046c-.191.579-1.1.441-1.32,1.236h4.364c-.234-.642-1.274-.494-1.534-1.231l-.015-.051V264.133l11.723,15.434Zm-79.413-13.545c-.028,4.168-2.962,5.75-6.793,5.743l-.316,0,.2-10.726h.306C122.323,260.993,125.392,261.783,125.361,265.981Zm-13.234-6.508c.013,1.8,2.582,1.308,2.592,2.926l.1,16.155-.326-.015a1.071,1.071,0,0,0-1.173.9h6.472a1,1,0,0,0-1.167-.9l-.329.018v-6l.326.015c5.717.314,9.612-1.5,9.4-7.677a5.008,5.008,0,0,0-1.32-3.189c-2.684-2.784-10.007-2.253-13.609-2.238Z" transform="translate(-112.127 -259.043)"/><path class="a" d="M173.466,269.1V261h2.585c7.67,0,5.633,8.1.5,8.1Zm0,10.229v-9.26h3c6.653,0,6.862,8.814.622,9.26Zm16.487-19.359h2.4v19.1a40.517,40.517,0,0,0,8.35-.574v2.047H189.952v-20.57Zm26,.023c4.657,0,8.432,4.44,8.432,9.918s-3.775,9.918-8.432,9.918-8.432-4.44-8.432-9.918S211.295,259.991,215.952,259.991Zm0-.948a10.878,10.878,0,1,1-11.417,10.866A11.154,11.154,0,0,1,215.952,259.043Zm25.8.948c4.657,0,8.432,4.44,8.432,9.918s-3.775,9.918-8.432,9.918-8.432-4.44-8.432-9.918S237.1,259.991,241.755,259.991Zm0-.948a10.878,10.878,0,1,1-11.417,10.866A11.154,11.154,0,0,1,241.755,259.043Zm16.788,21.73h-2.49l2.656-20.652h1.216l8.32,15.429,8.46-15.426h1.218l2.335,20.608h-2.791l-1.6-15.9h-.387l-7.632,15.123-7.907-15.013h-.387Zm26.884-.053V260.177h2.212v20.6h-2.215Zm8.547.013v-20.6h1.991l13.864,15.3V260.177h1.754v20.6h-.849L295.913,263.9H295.5v16.836ZM171.034,280.5V259.984h6.857c7.155-.11,7.568,7.351,1.659,9.322-.4.133-.474.336.005.37,5.766.39,7.152,6.579,1.292,10.221l-1.41.5-1.9.186h-6.5Z" transform="translate(-20.882 -259.043)"/><g transform="translate(124.193 3.604)"><path class="b" d="M170.666,271.119l1.613,1.631-1.478,1.5-1.634-1.654-.364.347a.918.918,0,0,1-.135.155,4.87,4.87,0,0,1-1.44.979,4.783,4.783,0,0,1-1.787.347,4.7,4.7,0,0,1-1.784-.347,4.753,4.753,0,0,1-1.463-.979,4.67,4.67,0,0,1-.979-1.461,4.562,4.562,0,0,1,0-3.574,4.67,4.67,0,0,1,.979-1.461,6.427,6.427,0,0,1,.579-.482,4.3,4.3,0,0,1-.5-.826,3.7,3.7,0,0,1-.268-1.364,3.617,3.617,0,0,1,.268-1.343,4.111,4.111,0,0,1,.749-1.114,4.047,4.047,0,0,1,1.116-.749,3.555,3.555,0,0,1,1.343-.268,3.649,3.649,0,0,1,1.364.268,3.87,3.87,0,0,1,1.1.749,3.355,3.355,0,0,1,.749,1.114,3.568,3.568,0,0,1,.268,1.343,3.652,3.652,0,0,1-.268,1.364,3.6,3.6,0,0,1-1.845,1.845c-.036.02-.076.02-.115.038l2.439,2.442,2.154-2.133,1.5,1.5Zm-5.225,1.17a2.437,2.437,0,0,0,2.151-1.269l-3.324-3.321a2.411,2.411,0,0,0-1.285,2.151A2.445,2.445,0,0,0,165.441,272.289Zm-1.305-8.358a1.363,1.363,0,0,0,1.173,1.346h.171a1.345,1.345,0,1,0-1.343-1.346Z" transform="translate(-160.85 -260.457)"/></g></g></svg>