<svg xmlns="http://www.w3.org/2000/svg" width="138.559" height="26.018" viewBox="0 0 138.559 26.018"><defs><style>.a{fill:#3e3e3e;}</style></defs><g transform="translate(0)"><g transform="translate(75.351 0.795)"><path class="a" d="M306.473,207.778c-.833-.057-1.674-.009-2.512-.009H301.3v-12.8a16.59,16.59,0,0,1,4,.534c1.983.783,1.86,2.977,2.548,4.63V189.793c-.368.877-.513,1.817-.933,2.612-.4.756-.961,1.705-1.667,1.953a18.259,18.259,0,0,1-3.94.527V183.952c1.889,0,3.713-.018,5.534,0a4.012,4.012,0,0,1,3.674,2.162c.47.856.795,1.792,1.192,2.689.079.186.186.359.4.763v-5.9H295.076l0,.257h3.25v23.91h-3.2l0,.3H313.2v-7.424a34.071,34.071,0,0,1-1.188,3.484C310.933,206.516,309.228,207.969,306.473,207.778Z" transform="translate(-294.989 -183.589)"/><path class="a" d="M313.327,208.261H295.08l.009-.461h3.2V184.049h-3.252l.009-.416h17.193v6.3l-.15-.282c-.077-.148-.141-.263-.2-.361-.093-.173-.154-.286-.207-.4-.132-.3-.254-.595-.375-.892a17.633,17.633,0,0,0-.813-1.792,3.909,3.909,0,0,0-3.606-2.121c-1.267-.016-2.507-.011-3.82-.009q-.811,0-1.635,0V194.84c.372-.041.749-.066,1.117-.091a10.348,10.348,0,0,0,2.718-.422c.668-.234,1.217-1.147,1.621-1.914a8.071,8.071,0,0,0,.536-1.444,11.64,11.64,0,0,1,.393-1.16l.152-.363v11.13l-.152-.368a10.63,10.63,0,0,1-.45-1.472c-.338-1.319-.659-2.564-2.051-3.113a8.679,8.679,0,0,0-2.668-.427c-.4-.023-.815-.048-1.226-.091v12.631h2.58c.261,0,.525,0,.788-.009.568-.011,1.154-.02,1.73.018,2.489.173,4.274-.986,5.462-3.536a17.03,17.03,0,0,0,.815-2.3c.116-.382.236-.774.368-1.174l.157-.463Zm-18.086-.159h17.927V201.26c-.075.236-.145.466-.213.693a17.442,17.442,0,0,1-.822,2.321c-1.222,2.618-3.054,3.806-5.618,3.629h0c-.568-.039-1.154-.03-1.717-.018-.263,0-.527.009-.79.009h-2.739V194.924l.009,0V183.917h.079q.865,0,1.715,0c1.313,0,2.555-.007,3.822.009a4.109,4.109,0,0,1,3.742,2.2,17.86,17.86,0,0,1,.82,1.808c.123.3.245.595.372.888.052.116.111.225.2.393l.045.086v-5.507H295.2l0,.1h3.25v24.069h-3.2Zm6.47-13.13c.32.027.64.048.952.064a8.7,8.7,0,0,1,2.716.438c1.469.579,1.814,1.923,2.146,3.222.089.345.179.7.293,1.038v-9.465c-.089.248-.163.5-.238.745a8.2,8.2,0,0,1-.545,1.474c-.418.793-.99,1.737-1.71,1.989a10.628,10.628,0,0,1-2.761.431C302.284,194.926,302,194.947,301.711,194.972Z" transform="translate(-295.035 -183.633)"/></g><g transform="translate(0 0.57)"><path class="a" d="M271.053,183.569c-2.839,0-5.677.07-8.518.116a5.266,5.266,0,0,0-.645.1l0,.259h3.3v23.969h-3.222l.009.22h9.465l.007-.25h-3.291V196.52c.077-.036.132-.084.184-.079a5.765,5.765,0,0,1,.622.059,9.986,9.986,0,0,0,5.777-.749c4.106-1.824,5.316-6.286,2.557-9.588A7.713,7.713,0,0,0,271.053,183.569Zm3.733,9.935a3.855,3.855,0,0,1-3.836,2.677c-.913.02-1.828-.1-2.777-.152V184.114a8.9,8.9,0,0,1,4.86.368,2.943,2.943,0,0,1,1.755,1.923A10.651,10.651,0,0,1,274.786,193.5Z" transform="translate(-261.808 -183.49)"/><path class="a" d="M271.571,208.355h-9.622l-.016-.379h3.227v-23.81h-3.3l-.007-.4.068-.011.2-.036a2.569,2.569,0,0,1,.457-.061l2.125-.039c2.078-.039,4.224-.079,6.338-.079h.054a7.7,7.7,0,0,1,6.311,2.621,5.952,5.952,0,0,1,1.358,5.237,6.651,6.651,0,0,1-3.945,4.474,10.072,10.072,0,0,1-5.823.756,5.221,5.221,0,0,0-.613-.057c-.009,0-.045.018-.068.03l-.032.018v11.334h3.29Zm-9.47-.159h9.313l0-.091h-3.288V196.512l.048-.02c.025-.011.045-.023.066-.034a.264.264,0,0,1,.154-.052,5.547,5.547,0,0,1,.629.059,9.925,9.925,0,0,0,5.734-.743,6.5,6.5,0,0,0,3.854-4.367,5.793,5.793,0,0,0-1.326-5.1,7.55,7.55,0,0,0-6.188-2.564h-.054c-2.112,0-4.258.041-6.336.079q-1.063.02-2.126.036a2.379,2.379,0,0,0-.427.059l-.141.027,0,.111h3.3v24.128H262.1Zm8.668-11.888c-.552,0-1.1-.043-1.671-.091-.291-.023-.586-.045-.883-.064l-.075,0V184.093l.066-.011a8.937,8.937,0,0,1,4.9.37,3.033,3.033,0,0,1,1.805,1.973,10.764,10.764,0,0,1,0,7.149h0A3.935,3.935,0,0,1,271,196.3C270.922,196.306,270.844,196.308,270.77,196.308ZM268.3,196c.272.018.545.039.813.061.647.05,1.263.1,1.883.086a3.788,3.788,0,0,0,3.763-2.625h0a10.593,10.593,0,0,0,0-7.047,2.872,2.872,0,0,0-1.71-1.876,8.767,8.767,0,0,0-4.751-.375Z" transform="translate(-261.854 -183.534)"/></g><g transform="translate(96.754 0.715)"><path class="a" d="M304.5,186.75v3.034c1.921-6.075,4.317-5.968,7.578-5.666v23.863h-3.2l.02.168h9.424l.011-.275h-3.2V184.145c4.635-.933,6.406,1.853,7.505,5.577v-6.091H304.5Z" transform="translate(-304.416 -183.555)"/><path class="a" d="M318.435,208.271h-9.57l-.043-.327h3.216V184.234c-3.07-.286-5.5-.463-7.421,5.618l-.157.491V183.6h18.3v6.717l-.157-.527c-1.008-3.425-2.6-6.458-7.349-5.534v23.583h3.2ZM309,208.112h9.279l0-.116h-3.2V184.123l.064-.011c4.685-.942,6.433,1.967,7.442,5.125v-5.482H304.619v5.575c1.851-5.48,4.079-5.566,7.505-5.248l.07.007V208.1H309Z" transform="translate(-304.46 -183.598)"/></g><g transform="translate(53.291 0.679)"><path class="a" d="M298.738,183.746l0,.27h3.216v18.3l-.189.023c-.8-1.46-1.6-2.916-2.391-4.383-2.444-4.549-4.873-9.1-7.34-13.641a1.327,1.327,0,0,0-.879-.659c-1.792-.064-3.59-.036-5.384-.027a1.318,1.318,0,0,0-.411.141l.018.234h3.207v23.956h-3.161l.009.188h6.822l0-.25c-.763,0-1.531-.055-2.287.014-.8.073-1-.2-1-1,.032-6.824.016-13.65.018-20.477,0-.282.027-.563.043-.845a38.183,38.183,0,0,1,2.4,3.963q4.98,9.163,9.951,18.331a7.673,7.673,0,0,0,.656.89l.288-.134V183.976h3.318l-.009-.229Z" transform="translate(-285.274 -183.538)"/><path class="a" d="M302.062,208.921l-.039-.05c-.068-.093-.143-.184-.216-.275a4.341,4.341,0,0,1-.447-.624q-2.868-5.276-5.729-10.553-2.109-3.89-4.222-7.78a39.152,39.152,0,0,0-2.266-3.767l0,.039c-.011.188-.025.384-.025.575v5.368c0,4.953,0,10.074-.018,15.108,0,.425.057.659.2.788a.9.9,0,0,0,.715.129,15,15,0,0,1,1.6-.023c.232,0,.466.009.7.009h.082l-.009.409H285.4l-.014-.345.082,0h3.082v-23.8h-3.2l-.03-.368.057-.02c.041-.014.082-.034.125-.052a.77.77,0,0,1,.313-.093l.924,0c1.465-.011,2.977-.02,4.465.032a1.4,1.4,0,0,1,.945.7c1.74,3.2,3.49,6.468,5.184,9.626q1.076,2.01,2.155,4.017c.545,1.015,1.108,2.042,1.653,3.036.238.431.475.865.713,1.3l.064-.007V184.141H298.7l0-.429h7.056l.016.386h-3.325v24.644Zm-13.051-23.513.132.186a38.126,38.126,0,0,1,2.407,3.97q2.112,3.887,4.222,7.778,2.861,5.28,5.727,10.553a4.094,4.094,0,0,0,.431.6c.061.075.123.15.182.227l.184-.084v-24.7h3.316l0-.07h-6.747v.111h3.216v18.451l-.311.036-.025-.045c-.245-.45-.493-.9-.738-1.347-.545-.992-1.108-2.021-1.653-3.036q-1.08-2.01-2.157-4.017c-1.694-3.159-3.443-6.422-5.185-9.624a1.25,1.25,0,0,0-.811-.618c-1.483-.052-2.993-.043-4.456-.034l-.926.007a.629.629,0,0,0-.248.079l-.082.034.009.1h3.213v24.115H285.55l0,.03h6.667l0-.091c-.207,0-.416-.007-.622-.011a14.654,14.654,0,0,0-1.578.025,1.056,1.056,0,0,1-.838-.17,1.17,1.17,0,0,1-.248-.906c.023-5.037.02-10.156.018-15.108v-5.368c0-.2.014-.393.027-.586,0-.086.011-.175.016-.263Z" transform="translate(-285.321 -183.582)"/></g><g transform="translate(116.336)"><path class="a" d="M333.557,208.255c-.711.082-1.02-.15-1.251-.87q-3.764-11.622-7.626-23.215a3.6,3.6,0,0,0-.563-.827,3.161,3.161,0,0,0-.575.788q-3.808,11.592-7.576,23.2c-.209.643-.477,1.033-1.247.92a11.071,11.071,0,0,0-1.6-.016l0,.268h6.161l0-.254H316.11a2.263,2.263,0,0,1,.03-.382c.967-2.979,1.926-5.961,2.934-8.925a1,1,0,0,1,.768-.488c1.914-.041,3.831,0,5.745-.036.57-.011.765.209.922.713.545,1.767,1.151,3.515,1.724,5.273.4,1.233.783,2.473,1.226,3.874h-3.316l0,.241h9.018l.011-.282A13.756,13.756,0,0,0,333.557,208.255Zm-14.18-10.212c1.108-3.377,2.194-6.686,3.277-9.992l.179.009,3.268,9.983Z" transform="translate(-313.037 -183.207)"/><path class="a" d="M335.288,208.679h-9.172l-.009-.4h3.288c-.127-.4-.25-.795-.37-1.176-.282-.9-.547-1.749-.822-2.593-.209-.64-.422-1.281-.636-1.919-.363-1.1-.743-2.232-1.09-3.354-.143-.463-.3-.668-.843-.659-.947.02-1.908.018-2.836.018-.954,0-1.939,0-2.909.018a.928.928,0,0,0-.695.434c-.842,2.48-1.665,5.014-2.459,7.464l-.475,1.46a.651.651,0,0,0-.016.161l0,.116h3.173l-.007.413h-6.318l0-.427h.082c.164,0,.329,0,.5-.011a6.337,6.337,0,0,1,1.117.027c.706.107.951-.223,1.16-.865,2.518-7.764,5.066-15.572,7.576-23.2a1.735,1.735,0,0,1,.386-.572c.07-.079.139-.157.2-.238l.066-.089.064.091c.059.084.127.168.2.25a1.951,1.951,0,0,1,.377.6c2.471,7.46,5.094,15.4,7.626,23.218.225.69.5.89,1.167.813a8.179,8.179,0,0,1,1.131-.023c.166,0,.332.009.5.009h.084Zm-9.018-.159h8.866l0-.123c-.141,0-.279,0-.42-.009a7.844,7.844,0,0,0-1.108.02l-.009-.077.009.077c-.74.084-1.088-.154-1.338-.922-2.532-7.819-5.153-15.756-7.623-23.215a1.775,1.775,0,0,0-.35-.545c-.048-.059-.1-.118-.141-.177-.045.057-.093.111-.143.166a1.628,1.628,0,0,0-.354.516c-2.507,7.633-5.057,15.44-7.576,23.2-.222.69-.527,1.095-1.333.977a5.821,5.821,0,0,0-1.09-.027c-.141,0-.279.011-.42.011l0,.109h6l0-.1h-3.179l0-.086c.007-.079.009-.143.011-.193a.757.757,0,0,1,.023-.207l.472-1.458c.8-2.453,1.619-4.987,2.462-7.469a1.074,1.074,0,0,1,.84-.54c.972-.02,1.96-.02,2.914-.018.931,0,1.889,0,2.832-.018.645-.009.842.261,1,.77.347,1.122.724,2.255,1.09,3.352.211.638.425,1.279.634,1.919.275.847.543,1.7.824,2.6l.4,1.281.034.1H326.27Zm-.014-10.321h-6.942l3.329-10.155.3.018.016.05Zm-6.724-.159h6.506l-3.218-9.826-.064,0Z" transform="translate(-313.083 -183.283)"/></g><g transform="translate(30.364 0.011)"><path class="a" d="M295.648,208.254a.945.945,0,0,1-1.147-.786c-1.926-5.959-3.9-11.9-5.861-17.852-.625-1.9-1.224-3.8-1.869-5.691-.077-.229-.359-.391-.545-.586a6.743,6.743,0,0,0-.456.568,1.661,1.661,0,0,0-.139.42q-3.8,11.657-7.635,23.306a1.132,1.132,0,0,1-.795.584,14.156,14.156,0,0,1-1.939.027l.011.284h6.163l.007-.248h-3.091c-.043-.191-.082-.257-.066-.3.976-3.036,1.948-6.077,2.964-9.1a.939.939,0,0,1,.731-.413c1.944-.036,3.89,0,5.836-.034a.724.724,0,0,1,.822.6c.481,1.54.995,3.068,1.494,4.6.486,1.49.974,2.982,1.521,4.66h-3.329l.018.216h8.97l0-.261C296.761,208.245,296.2,208.213,295.648,208.254Zm-14.1-10.2,3.216-9.856.266-.048,3.25,9.9Z" transform="translate(-275.178 -183.222)"/><path class="a" d="M281.563,208.675h-6.318l-.02-.443h.084c.188,0,.379,0,.568.011a8.27,8.27,0,0,0,1.363-.039,1.058,1.058,0,0,0,.729-.529c2.221-6.72,4.453-13.557,6.611-20.172l1.024-3.134c.014-.043.025-.091.036-.139a.934.934,0,0,1,.111-.3,3.5,3.5,0,0,1,.323-.409l.138-.164.057-.068.061.064c.057.059.123.114.191.173a1.08,1.08,0,0,1,.372.443c.42,1.231.827,2.487,1.222,3.7.216.663.429,1.326.647,1.989q.783,2.381,1.571,4.76c1.415,4.29,2.877,8.723,4.29,13.094a.869.869,0,0,0,1.065.729h0c.388-.027.784-.02,1.165-.014.17,0,.341,0,.511,0h.082l0,.42h-9.125l-.027-.375h3.3l-1.487-4.555-.416-1.267c-.359-1.09-.729-2.219-1.079-3.334a.649.649,0,0,0-.747-.547c-.917.014-1.851.014-2.755.014-1.011,0-2.055,0-3.082.02a.863.863,0,0,0-.654.359c-.892,2.655-1.764,5.364-2.607,7.987l-.359,1.115a.512.512,0,0,0,.02.084q.014.044.034.116h3.107Zm-6.165-.159h6.009l0-.089h-3.07l-.016-.061a1.606,1.606,0,0,0-.045-.168.3.3,0,0,1-.02-.177l.359-1.117c.845-2.621,1.715-5.332,2.607-7.987a1,1,0,0,1,.8-.468c1.029-.018,2.073-.018,3.084-.018.9,0,1.837,0,2.752-.016h.03a.8.8,0,0,1,.872.659c.347,1.113.718,2.241,1.076,3.334.138.42.279.842.416,1.265l1.556,4.764H288.46l0,.057h8.82v-.1c-.145,0-.288,0-.434-.007-.379,0-.77-.011-1.151.016h0a1.017,1.017,0,0,1-1.226-.84c-1.412-4.369-2.877-8.8-4.292-13.092q-.783-2.381-1.569-4.76-.327-.995-.649-1.989c-.393-1.215-.8-2.471-1.22-3.7a.994.994,0,0,0-.325-.372c-.048-.039-.1-.079-.139-.12l-.086.1a3.7,3.7,0,0,0-.311.393.794.794,0,0,0-.089.25,1.467,1.467,0,0,1-.041.152l-1.022,3.134c-2.16,6.615-4.392,13.453-6.613,20.172a1.211,1.211,0,0,1-.858.638,8.325,8.325,0,0,1-1.387.036l-.481-.009ZM288.433,198.2h-6.951l.034-.1,3.229-9.9.379-.068.023.066Zm-6.733-.159h6.513l-3.2-9.733-.15.027Z" transform="translate(-275.225 -183.288)"/></g><g transform="translate(19.691 0.788)"><path class="a" d="M280.032,183.892l-.009-.227h-9.445l-.007.248h3.2v23.92h-3.209l.016.268h9.415l0-.27h-3.225V183.892Z" transform="translate(-270.478 -183.586)"/><path class="a" d="M280.117,208.224H270.55l-.025-.427h3.213V184.036h-3.2l.011-.406h9.6l.018.386H276.9v23.779h3.225Zm-9.417-.159h9.261v-.114h-3.222V183.857H280l0-.068H270.7l0,.089h3.2v24.078h-3.2Z" transform="translate(-270.525 -183.63)"/></g></g></svg>