<svg xmlns="http://www.w3.org/2000/svg" width="122.696" height="41.811" viewBox="0 0 122.696 41.811"><defs><style>.a{fill:#3e3e3e;}</style></defs><path class="a" d="M157.074,99.906c.06-.175.12-.35.175-.527a4.833,4.833,0,0,1,1.944-2.446,23.2,23.2,0,0,1,4.617-2.376,52.014,52.014,0,0,1,10.431-3.007c.538-.1,1.076-.2,1.675-.307-.363-.457-.692-.867-1.014-1.281-2.179-2.781-4.371-5.554-6.531-8.352a8.809,8.809,0,0,1-1.72-3.6A5.45,5.45,0,0,1,168.5,72.65a18.182,18.182,0,0,1,3.5-2.435,28.517,28.517,0,0,1,10.589-3.468,25.649,25.649,0,0,1,4.854-.224,7.186,7.186,0,0,1,2.728.572,4.847,4.847,0,0,1,2.858,4.224,6.438,6.438,0,0,1-.508,3.138,5.193,5.193,0,0,1-.3.531l-.107-.023c.013-.184.011-.371.041-.551a7.272,7.272,0,0,0-.117-3.428,4.77,4.77,0,0,0-3.782-3.366,16.909,16.909,0,0,0-5.123-.2,23.274,23.274,0,0,0-11.667,3.853,12.827,12.827,0,0,0-2.54,2.151,5.081,5.081,0,0,0-.835,5.671,15.057,15.057,0,0,0,2.48,3.827c2.019,2.376,4,4.79,5.989,7.189a4.866,4.866,0,0,1,.485.61.639.639,0,0,0,.736.295c1.208-.13,2.42-.237,3.631-.346a3.167,3.167,0,0,1,.448.021l.021.12a2.509,2.509,0,0,1-.463.154c-.967.134-1.936.256-2.9.384-.235.03-.467.075-.747.12.075.141.126.239.179.337a7.068,7.068,0,0,1,.66,5.859,6.8,6.8,0,0,1-3.01,3.656,20.484,20.484,0,0,1-6.422,2.561,21.141,21.141,0,0,1-6.042.5,11.4,11.4,0,0,1-3.582-.762,3.637,3.637,0,0,1-2.256-2.1c-.081-.222-.143-.452-.216-.679Zm6.568,3.9.011-.07c.427-.021.852-.045,1.279-.062a19.317,19.317,0,0,0,8.422-2.335,9.419,9.419,0,0,0,3.293-2.659,5.45,5.45,0,0,0-.237-6.7.363.363,0,0,0-.395-.164,69.577,69.577,0,0,0-9.869,2.721,24.824,24.824,0,0,0-6.3,3.287,5.53,5.53,0,0,0-1.84,2.04,1.871,1.871,0,0,0,.192,2.107,3.707,3.707,0,0,0,2.3,1.443C161.537,103.581,162.591,103.675,163.642,103.8Z" transform="translate(-157.074 -66.487)"/><path class="a" d="M216.307,88.024h-3.289V82.466h3.289v.5h-2.734v1.81h2.734v.5h-2.734v2.25h2.734Z" transform="translate(-93.611 -48.359)"/><path class="a" d="M171.07,99.629c.382-.438.743-.892,1.146-1.306,1.618-1.663,3.2-3.362,4.89-4.952,1.411-1.332,2.928-2.555,4.433-3.784a9.332,9.332,0,0,1,2.672-1.579,3.524,3.524,0,0,1,1.212-.224.837.837,0,0,1,.792,1.274,4.658,4.658,0,0,1-.7,1.063,17.586,17.586,0,0,0-1.842,2.847,25.48,25.48,0,0,0-2.3,4.894,6.009,6.009,0,0,0-.29,1.767c0,.715.463,1.016,1.174.926a6.622,6.622,0,0,0,2.457-.937,21.608,21.608,0,0,0,4.335-3.342.336.336,0,0,1,.194-.111c-.045.056-.088.117-.137.169a24.929,24.929,0,0,1-5.46,4.516,6.526,6.526,0,0,1-2.35.884,2.262,2.262,0,0,1-2.433-2.117,6.923,6.923,0,0,1,.425-1.524,27.8,27.8,0,0,1,3.082-5.789c.327-.5.674-.973,1.005-1.464.173-.256.41-.534.2-.849a.776.776,0,0,0-.907-.224,2.185,2.185,0,0,0-.625.263,26.845,26.845,0,0,0-4.576,3.844q-2.981,3-5.88,6.081c-.785.839-1.451,1.789-2.173,2.687a.945.945,0,0,1-.107.1.876.876,0,0,1-.233-1.1c.886-1.91,1.755-3.831,2.67-5.729a151.089,151.089,0,0,1,11.31-19.675q3.3-4.831,7.024-9.34a.477.477,0,0,1,.7-.134.487.487,0,0,1,.051.721c-.248.335-.517.653-.777.978a122.555,122.555,0,0,0-8.023,11.34c-2.948,4.676-5.633,9.5-8.23,14.384q-1.316,2.475-2.621,4.956c-.07.137-.126.28-.19.418Z" transform="translate(-143.571 -66.284)"/><path class="a" d="M204.26,95.443a5.365,5.365,0,0,1-2.083,2.073,7.535,7.535,0,0,1-5.091,1.018,3.387,3.387,0,0,1-2.945-3.221,11.978,11.978,0,0,1,.749-4.864,41.858,41.858,0,0,1,4.465-9.058c.634-1.012,1.325-1.987,1.987-2.982a1.8,1.8,0,0,0,.186-.322.492.492,0,0,0-.307-.7,1.208,1.208,0,0,0-1.157.158,37.561,37.561,0,0,0-5.392,4.668,63.18,63.18,0,0,0-4.459,5.212,1.467,1.467,0,0,1-.519.44,17.573,17.573,0,0,1-1.641.662c-.35.12-.544-.07-.44-.425a8.369,8.369,0,0,1,.453-1.125,50.97,50.97,0,0,1,6.661-10.495,6.685,6.685,0,0,1,1.084-.963c.1-.079.28-.049.423-.07a1.629,1.629,0,0,1-.145.416c-.734,1.044-1.545,2.04-2.207,3.129-.924,1.526-1.748,3.114-2.6,4.685a1.477,1.477,0,0,0-.134.689c.006.363.3.493.581.269a4.739,4.739,0,0,0,.5-.51,60.818,60.818,0,0,1,7.763-7.3,10.328,10.328,0,0,1,2.77-1.658,3.15,3.15,0,0,1,1.093-.152c.344.009.446.243.271.549a5.239,5.239,0,0,1-.5.674,26.1,26.1,0,0,0-3.315,5.336,80.886,80.886,0,0,0-3.4,7.552,14.647,14.647,0,0,0-1,4.45,4.386,4.386,0,0,0,.44,2.3,3.35,3.35,0,0,0,2.794,1.678,5.554,5.554,0,0,0,3.829-1.125C203.4,96.141,203.791,95.808,204.26,95.443Z" transform="translate(-122.461 -56.818)"/><path class="a" d="M193.457,79.583c-.41.482-.815.967-1.225,1.447a52.165,52.165,0,0,1-6.314,6.292c-1.5,1.236-3.067,2.382-4.617,3.552a2.326,2.326,0,0,1-.809.38.867.867,0,0,1-1.131-.692,3.5,3.5,0,0,1,.09-1.816,10.14,10.14,0,0,1,1.631-3.31,37.76,37.76,0,0,1,7.818-8.171,14.871,14.871,0,0,1,2.738-1.6,5.033,5.033,0,0,1,2.8-.352,4.453,4.453,0,0,0,1.979-.026,2.605,2.605,0,0,0,.813-.482c.194-.164.35-.2.551-.068.231.158.139.322.015.5-1.932,2.843-3.816,5.718-5.5,8.717a41.377,41.377,0,0,0-3.927,8.864c-.322,1.125-.544,2.28-.83,3.507.07-1.148.09-2.222.213-3.287A22.882,22.882,0,0,1,191.8,82.667c.589-.864,1.069-1.8,1.594-2.709a2.581,2.581,0,0,0,.134-.337Zm-11.716,8.482.083.026c0,.043,0,.083,0,.126.021.367.045.753.418.946s.7-.019,1.007-.226c.043-.03.085-.062.126-.092a32.94,32.94,0,0,0,3.94-3.347,73.784,73.784,0,0,0,6.518-7.541.583.583,0,0,0,.013-.843,2.019,2.019,0,0,0-1.571-.771,4.35,4.35,0,0,0-2.766.971,16.505,16.505,0,0,0-3.374,3.3,32.593,32.593,0,0,0-3.985,6.194A8.863,8.863,0,0,0,181.741,88.065Z" transform="translate(-131.888 -57.222)"/><path class="a" d="M221.934,80.389a47.472,47.472,0,0,0-10.185,5.046c-.305.194-.608.395-.933.6.211.305.42.585.608.879a1.505,1.505,0,0,1-.314,2.3,11.551,11.551,0,0,1-2.779,1.7,9.564,9.564,0,0,1-3.027,1.016,1.435,1.435,0,0,1-.433.028,3.472,3.472,0,0,0-1.65.2,1.7,1.7,0,0,1-.521.017c-.263-.021-.312-.186-.2-.395a1.252,1.252,0,0,1,.267-.339c1.161-1.01,2.32-2.021,3.494-3.014.651-.546,1.33-1.059,2.019-1.605-.484-.615-.952-1.21-1.426-1.8a3.846,3.846,0,0,1-.967-2.57,3.988,3.988,0,0,1,.931-2.237,15.243,15.243,0,0,1,3.323-3.135,34.172,34.172,0,0,1,7.272-4.247,15.646,15.646,0,0,1,4.937-1.225.769.769,0,0,1,.435.1.407.407,0,0,1,.1.645,3.814,3.814,0,0,1-1.451,1.2.964.964,0,0,1-.591.049,7.917,7.917,0,0,0-3.024-.256,7.281,7.281,0,0,0-2.374.909,25.746,25.746,0,0,0-6.013,4.508,5.9,5.9,0,0,0-1.317,1.915,2.4,2.4,0,0,0-.068,1.765,6.781,6.781,0,0,0,1.93,2.862.458.458,0,0,0,.651.051,41.7,41.7,0,0,1,11.2-4.984A.448.448,0,0,1,221.934,80.389Zm-16.8,11.176c.137-.019.324-.036.506-.075a13.044,13.044,0,0,0,3.509-1.5,1.594,1.594,0,0,0,.382-.316.971.971,0,0,0,.154-1.257,7.869,7.869,0,0,0-.625-.768c-.141-.175-.263-.169-.44-.028-.768.617-1.571,1.193-2.316,1.838a21.543,21.543,0,0,0-1.671,1.663c-.211.228-.115.384.2.423C204.914,91.557,205,91.559,205.13,91.565Z" transform="translate(-105.605 -60.673)"/><path class="a" d="M206.028,87.716a1.011,1.011,0,0,1-.143.2,14.934,14.934,0,0,1-5,2.975,3.658,3.658,0,0,1-3.5-.465,3.743,3.743,0,0,1-1.439-3.786,14.885,14.885,0,0,1,1.974-5.15,28.314,28.314,0,0,1,5.581-7.026,9.6,9.6,0,0,1,3.468-2.215,1.8,1.8,0,0,1,2.1.395,2.631,2.631,0,0,1,.051,3.654,8.495,8.495,0,0,1-3.086,2.064,36.956,36.956,0,0,1-5.4,1.8,1.4,1.4,0,0,0-.871.619,20.45,20.45,0,0,0-2.395,4.427,6.97,6.97,0,0,0-.425,3.276,1.97,1.97,0,0,0,2.333,1.8,8.578,8.578,0,0,0,3.306-.952c.978-.476,1.919-1.025,2.877-1.543C205.629,87.695,205.789,87.565,206.028,87.716Zm-5.451-8.2.038.079a3.238,3.238,0,0,0,.521-.049c.971-.254,1.966-.448,2.9-.8a9.053,9.053,0,0,0,4.04-2.82,3.26,3.26,0,0,0,.839-1.872.812.812,0,0,0-1.018-.892,4.075,4.075,0,0,0-1.725.828,26.775,26.775,0,0,0-3.9,3.622C201.7,78.241,201.143,78.886,200.577,79.52Z" transform="translate(-113.047 -60.134)"/><path class="a" d="M204.562,82.477c0,1.389.047,2.753-.017,4.109a1.679,1.679,0,0,1-1.891,1.573,1.7,1.7,0,0,1-1.825-1.716c-.03-1.249-.026-2.5-.034-3.744,0-.073.015-.143.023-.228h.51v.339c0,1.163,0,2.329.006,3.494a1.189,1.189,0,0,0,.73,1.227,1.43,1.43,0,0,0,1.528-.156,1.393,1.393,0,0,0,.478-1.17c0-1.123,0-2.248,0-3.37v-.359Z" transform="translate(-107.477 -48.354)"/><path class="a" d="M213.335,82.953h-2.642v-.476H214.3l-2.909,5.031h2.788v.482H210.4Z" transform="translate(-96.575 -48.347)"/><path class="a" d="M197.25,85.419v2.6h-.514V82.469a11.168,11.168,0,0,1,2.589.128,1.407,1.407,0,0,1-.19,2.732c-.48.073-.973.064-1.46.09C197.553,85.425,197.43,85.419,197.25,85.419Zm.021-.472c.615-.034,1.206-.032,1.789-.109a.926.926,0,0,0-.006-1.793c-.583-.068-1.174-.07-1.782-.1Z" transform="translate(-112.081 -48.369)"/><path class="a" d="M203.431,87.089l.412-.235c.109.147.209.288.318.423a1.181,1.181,0,0,0,1.537.312.891.891,0,0,0,.282-1.362,8.392,8.392,0,0,0-.975-.909c-.2-.179-.431-.329-.64-.5a1.337,1.337,0,0,1-.335-1.9A1.5,1.5,0,0,1,206,82.649a8.025,8.025,0,0,1,.668.606l-.44.337a2.367,2.367,0,0,0-.359-.359,2.011,2.011,0,0,0-.6-.295.814.814,0,0,0-.862.371.784.784,0,0,0,.132.924c.265.26.581.47.862.713a7.459,7.459,0,0,1,1.027.943,1.442,1.442,0,0,1-.958,2.327A1.845,1.845,0,0,1,203.431,87.089Z" transform="translate(-104.486 -48.438)"/><path class="a" d="M206.859,87.094l.414-.235c.132.164.254.331.391.482a1.115,1.115,0,0,0,1.27.339.9.9,0,0,0,.463-1.473,12.2,12.2,0,0,0-1.3-1.153c-.126-.109-.26-.207-.384-.318a1.323,1.323,0,0,1-.341-1.686,1.477,1.477,0,0,1,1.7-.581,1.91,1.91,0,0,1,.988.822l-.4.307a1.355,1.355,0,0,0-.233-.254,2.717,2.717,0,0,0-.717-.4.738.738,0,0,0-.841.335.716.716,0,0,0,.064.9,7.062,7.062,0,0,0,.8.689c.295.245.615.463.89.73a1.449,1.449,0,0,1,.352,1.906,1.7,1.7,0,0,1-2.1.608A2.128,2.128,0,0,1,206.859,87.094Z" transform="translate(-100.598 -48.439)"/><path class="a" d="M199.015,82.469h.512v5.046h2.226v.478h-2.738Z" transform="translate(-109.496 -48.356)"/><path class="a" d="M209.354,82.47h.474V88h-.474Z" transform="translate(-97.767 -48.355)"/></svg>