<svg xmlns="http://www.w3.org/2000/svg" width="165.169" height="34.864" viewBox="0 0 165.169 34.864"><defs><style>.a{fill:#3e3e3e;}</style></defs><g transform="translate(-27.272 -48.986)"><path class="a" d="M281.047,55.81a10.679,10.679,0,0,0-5.069-1.757c-2.108,0-3.212,1.606-3.212,4.768v1.958h6.274c2.359,0-.2,5.17-2.56,5.17h-3.714V82.11c0,2.008-5.923,2.008-5.923,0V65.949h-3.062c-2.008,0-2.008-5.17,0-5.17h3.062V58.671c0-6.475,3.714-9.486,8.282-9.486a11.477,11.477,0,0,1,5.923,1.756C282.8,51.946,282.7,56.764,281.047,55.81Z" transform="translate(-147.868 -0.125)"/><path class="a" d="M345.286,99.929a11.481,11.481,0,0,1-3.915.854c-2.007,0-3.664-1-4.316-3.714a12.355,12.355,0,0,1-9.034,3.714c-5.019,0-8.081-3.162-8.081-8.382V80c0-2.359,5.822-4.868,5.822-2.509V90.342c0,3.664,1.656,5.32,4.668,5.32,2.008,0,4.166-.953,6.324-3.463V78.347c0-2.007,5.872-2.007,5.872,0V93.354c0,1.456.5,2.158,1.506,2.158a2.814,2.814,0,0,0,1.155-.3C347.293,94.257,347.394,98.975,345.286,99.929Z" transform="translate(-184.15 -17.341)"/><path class="a" d="M425.468,100.764a11.48,11.48,0,0,1-3.915.853c-2.61,0-4.617-1.656-4.617-6.525V87.966c0-3.714-1.656-5.32-4.668-5.32-2.008,0-4.166.954-6.324,3.413V99.911c0,2.008-5.872,2.008-5.872,0V78.931c0-1.907,4.417-1.757,4.918-.4l.8,2.56a12.519,12.519,0,0,1,8.934-3.614c5.019,0,8.081,3.162,8.081,8.432V94.19c0,1.455.5,2.158,1.506,2.158a2.671,2.671,0,0,0,1.155-.251C427.475,95.093,427.576,99.861,425.468,100.764Z" transform="translate(-234.57 -17.926)"/><path class="a" d="M58.266,84.509v-29.6L44.769,78H43.227L29.73,54.913v29.6H27.272V50.286H29.73L44,74.773,58.266,50.286h2.458V84.509Z" transform="translate(0 -0.818)"/><path class="a" d="M166.109,66.05a18.3,18.3,0,0,1,1.085-6.146,17.044,17.044,0,0,1,3.157-5.471,16.265,16.265,0,0,1,5.085-3.928,15.045,15.045,0,0,1,6.868-1.519,14.031,14.031,0,0,1,7.809,2.1,13.228,13.228,0,0,1,4.82,5.375l-2.024,1.157a11.512,11.512,0,0,0-2.145-2.989,11.317,11.317,0,0,0-2.651-1.952,11.773,11.773,0,0,0-2.964-1.085,14.229,14.229,0,0,0-3.037-.337,12.192,12.192,0,0,0-5.784,1.325,13.67,13.67,0,0,0-4.242,3.446,14.99,14.99,0,0,0-2.627,4.8,16.9,16.9,0,0,0-.892,5.375,15.918,15.918,0,0,0,1.06,5.784,16.086,16.086,0,0,0,2.892,4.845,14.027,14.027,0,0,0,4.338,3.35,11.894,11.894,0,0,0,5.4,1.254,13.846,13.846,0,0,0,3.182-.386,12.378,12.378,0,0,0,3.133-1.2,12.711,12.711,0,0,0,2.8-2.1,11.184,11.184,0,0,0,2.169-3.012l2.121,1.012a11.429,11.429,0,0,1-2.362,3.422,14.818,14.818,0,0,1-3.326,2.507,15.855,15.855,0,0,1-3.881,1.518,16.743,16.743,0,0,1-4.025.506,13.539,13.539,0,0,1-6.435-1.542,17.019,17.019,0,0,1-5.037-4.025,18.663,18.663,0,0,1-3.3-5.64A18.216,18.216,0,0,1,166.109,66.05Z" transform="translate(-87.358)"/><g transform="translate(65.125 49.345)"><path class="a" d="M144.626,89.118a.39.39,0,0,0-.39-.39h-.012a.39.39,0,0,0-.39.39v.87h.791Z" transform="translate(-138.468 -74.351)"/><path class="a" d="M136.716,103.129a1.139,1.139,0,0,0,1.138,1.085h2.35a1.139,1.139,0,0,0,1.138-1.085l1.044-21.78h-6.713Zm1.8-18.654a.576.576,0,0,1,.576-.576h.012a.576.576,0,0,1,.576.576v1.741a.576.576,0,0,1-.576.576h-.012a.576.576,0,0,1-.576-.576Z" transform="translate(-133.332 -69.709)"/><path class="a" d="M140.575,57.358a1.042,1.042,0,0,0-.3.046,1.249,1.249,0,0,0-.675.543c-.062.1-.133.215-.252.429-.132.236-.179.318-.242.422a2.436,2.436,0,0,1-.887.967,1.581,1.581,0,0,1-.857.162,2.051,2.051,0,0,1-.333-.065A1.5,1.5,0,0,1,136.05,59a1.364,1.364,0,0,1-.007-1.08,1.55,1.55,0,0,1,.475-.6,2.109,2.109,0,0,1,.682-.357,3.782,3.782,0,0,1,.682-.134,3.2,3.2,0,0,0,.964-.243,1.381,1.381,0,0,0,.246-.138.984.984,0,0,0,.379-.459.707.707,0,0,0,.04-.174.791.791,0,0,0,.018-.16c-.02-.315-.34-.621-.872-.836-.1-.04-.236-.086-.463-.157a2.721,2.721,0,0,1-1.26-.614,1.294,1.294,0,0,1-.141-.205,1.081,1.081,0,0,1,.2-1.228.86.86,0,0,1,.643-.3,1.179,1.179,0,0,1,.76.272,5.378,5.378,0,0,1,.766.831,3.223,3.223,0,0,0,.591.65.677.677,0,0,0,.5.172.407.407,0,0,0,.232-.122,5.688,5.688,0,0,0-5.372-4.162H135a5.819,5.819,0,0,0-5.639,5.983v.121a6.091,6.091,0,0,0,2.389,4.89h6.615a6.017,6.017,0,0,0,2.253-3.589Z" transform="translate(-129.361 -49.955)"/></g></g></svg>