<svg xmlns="http://www.w3.org/2000/svg" width="283.681" height="27.729" viewBox="0 0 283.681 27.729"><defs><style>.a{fill:#3e3e3e;}</style></defs><g transform="translate(119.205 0.457)"><path class="a" d="M182.377,425.549a6.573,6.573,0,0,0,4.024-6.143,6.969,6.969,0,0,0-7.813-6.855H166.581v26.62H179.75a7.236,7.236,0,0,0,7.725-6.715q.012-.189.016-.379A6.809,6.809,0,0,0,182.377,425.549ZM168.6,414.464h9.892a5.243,5.243,0,0,1,5.828,4.58,5.11,5.11,0,0,1,.035.572,5.176,5.176,0,0,1-5.111,5.243c-.07,0-.137,0-.207,0H168.6Zm11,22.823h-11V426.542h11a5.451,5.451,0,0,1,5.853,5.015c.008.1.013.207.016.312a5.51,5.51,0,0,1-5.584,5.431c-.1,0-.2-.005-.306-.013Z" transform="translate(-166.533 -412.449)"/><path class="a" d="M180.3,439.273c-.172,0-.344-.005-.518-.019H166.563V412.532h12.054a7.573,7.573,0,0,1,.782-.051h.064a7.02,7.02,0,0,1,7.018,6.957,6.6,6.6,0,0,1-3.922,6.132,6.873,6.873,0,0,1,5.012,6.538q0,.2-.016.387a7.292,7.292,0,0,1-7.26,6.779Zm-13.634-.118h13.121a7.184,7.184,0,0,0,7.671-6.669c.008-.121.016-.25.019-.379a6.773,6.773,0,0,0-5.079-6.478l-.145-.038.137-.056a6.5,6.5,0,0,0,4-6.1,6.923,6.923,0,0,0-6.919-6.855H179.4a6.761,6.761,0,0,0-.774.051H166.662Zm13.33-1.773h-.078c-.107,0-.209-.005-.309-.013H168.575V426.526H179.63c.142-.013.285-.019.427-.019a5.508,5.508,0,0,1,5.477,5.079c.008.1.013.207.016.312A5.567,5.567,0,0,1,179.993,437.383Zm-.363-.113c.091.005.185.011.287.011h.075a5.451,5.451,0,0,0,5.455-5.383c0-.1-.005-.2-.013-.306a5.408,5.408,0,0,0-5.8-4.966H168.674v10.642Zm-.411-12.328-.156,0H168.575V414.445h9.943a5.3,5.3,0,0,1,5.877,4.625,5.125,5.125,0,0,1,.038.577,5.232,5.232,0,0,1-5.162,5.291Zm-10.545-.1h10.6a5.134,5.134,0,0,0,5.063-5.192,5.664,5.664,0,0,0-.038-.567,5.191,5.191,0,0,0-5.772-4.534h-9.849Z" transform="translate(-166.563 -412.481)"/></g><g transform="translate(0 0.518)"><path class="a" d="M122.2,414.5h9.583v24.63H133.8V414.5h9.624v-1.98H122.2Z" transform="translate(-122.15 -412.472)"/><path class="a" d="M133.879,439.216h-2.111v-24.63h-9.586V412.5H143.5v2.082h-9.621Zm-2.012-.1h1.912v-24.63H143.4v-1.88h-21.12v1.88h9.586Z" transform="translate(-122.182 -412.504)"/></g><g transform="translate(32.779 0.524)"><path class="a" d="M154.7,425.1H136.417V412.525H134.4v26.6h2.012V427.021H154.7v12.108h2.012v-26.6H154.7Z" transform="translate(-134.354 -412.474)"/><path class="a" d="M156.795,439.212h-2.114V427.1H136.5v12.111h-2.111V412.506H136.5v12.578h18.184V412.506h2.114Zm-2.012-.1H156.7v-26.5h-1.912v12.576H136.4V412.608h-1.912v26.5H136.4V427h18.385Z" transform="translate(-134.386 -412.506)"/></g><g transform="translate(69.542 0.518)"><path class="a" d="M148.091,439.133h18.283v-1.98H150.13V427.024h13.851v-1.91H150.13V414.5h16.245v-1.98H148.091Z" transform="translate(-148.043 -412.472)"/><path class="a" d="M166.456,439.216H148.073V412.5h18.383v2.082H150.211V425.1h13.851V427.1H150.211v10.029h16.245Zm-18.283-.1h18.184v-1.88H150.109V427.005H163.96V425.2H150.109V414.486h16.247v-1.88H148.172Z" transform="translate(-148.073 -412.504)"/></g><g transform="translate(178.011)"><path class="a" d="M202.252,412.33A13.814,13.814,0,1,0,216.1,426.144,13.813,13.813,0,0,0,202.252,412.33Zm0,25.616a11.8,11.8,0,1,1,11.8-11.8A11.8,11.8,0,0,1,202.252,437.946Z" transform="translate(-188.425 -412.279)"/><path class="a" d="M202.322,440.041a13.865,13.865,0,0,1-.038-27.73h0a13.864,13.864,0,1,1,.075,27.727Zm-.038-27.63a13.764,13.764,0,0,0,.038,27.528h.038a13.764,13.764,0,1,0-.075-27.528Zm0,25.616h0a11.852,11.852,0,1,1,11.853-11.85A11.863,11.863,0,0,1,202.284,438.026Zm0-23.6a11.751,11.751,0,1,0,11.751,11.751A11.765,11.765,0,0,0,202.287,414.425Z" transform="translate(-188.457 -412.311)"/></g><g transform="translate(256.567 0.513)"><path class="a" d="M242.829,412.521l-11.6,23.059-11.6-23.059h-1.912v26.615h2.012V416.829l10.779,21.453h1.4l10.811-21.522v22.377h2.012v-26.6Z" transform="translate(-217.672 -412.47)"/><path class="a" d="M244.819,439.219H242.7V417.006l-10.73,21.359h-1.458l-.016-.027-10.685-21.265v22.146H217.7V412.5H219.7l.013.029L231.263,435.5l11.568-23h.03l1.958.011Zm-2.012-.1h1.912v-26.5l-1.826-.011-11.63,23.118-.043-.089L219.635,412.6H217.8V439.12h1.912V416.861l.094-.024,10.768,21.428h1.335l10.8-21.5.1.021Z" transform="translate(-217.704 -412.502)"/></g><g transform="translate(216.388)"><path class="a" d="M216.54,412.33a13.814,13.814,0,1,0,13.851,13.814A13.811,13.811,0,0,0,216.54,412.33Zm0,25.616a11.8,11.8,0,1,1,11.8-11.8A11.8,11.8,0,0,1,216.54,437.946Z" transform="translate(-202.713 -412.279)"/><path class="a" d="M216.607,440.041a13.865,13.865,0,0,1-.035-27.73h0a13.864,13.864,0,0,1,.072,27.727Zm-.035-27.63a13.764,13.764,0,0,0,.035,27.528h.038a13.764,13.764,0,0,0-.072-27.528Zm0,25.616h0a11.852,11.852,0,1,1,11.853-11.85A11.863,11.863,0,0,1,216.572,438.026Zm0-23.6a11.751,11.751,0,1,0,11.751,11.751A11.764,11.764,0,0,0,216.572,414.425Z" transform="translate(-202.745 -412.311)"/></g><g transform="translate(152.905 0.513)"><path class="a" d="M181.141,412.521h-2.012v26.615h17.4v-1.98H181.146Z" transform="translate(-179.078 -412.47)"/><path class="a" d="M196.614,439.219h-17.5V412.5h2.111l.005,24.635h15.388Zm-17.4-.1h17.3v-1.88H181.127l-.005-24.636h-1.912Z" transform="translate(-179.11 -412.502)"/></g></svg>