<svg xmlns="http://www.w3.org/2000/svg" width="155.87" height="32.933" viewBox="0 0 155.87 32.933"><defs><style>.a{fill:#3e3e3e;fill-rule:evenodd;}</style></defs><path class="a" d="M346.921,447.807v.016a4.739,4.739,0,0,0,.967,0c.047.006.063.041.094.063.173.013.414-.038.515.047.129,0,.279-.019.345.047.242-.019.339.107.577.094.069.047.185.05.248.107.2-.022.261.107.452.094.082.116.292.1.377.2h.126a.509.509,0,0,0,.185.11,4.585,4.585,0,0,0,.593.279c.022.047.072.063.094.11.1-.025.072.075.173.047.016.113.182.078.2.188a1.771,1.771,0,0,1,.515.358h.075c.031.085.126.1.157.188.041.028.047-.006.094.016.352.377.713.744,1.092,1.092-.022.132.116.1.11.22.06.06.1.135.188.169a.145.145,0,0,0,.107.157c-.025.129.107.1.094.22a.243.243,0,0,0,.094.075c.031.031,0,.041,0,.079.116.025.088.195.2.22.028.179.122.223.157.374.041.016.034.078.091.078.031.21.2.282.2.515a.7.7,0,0,1,.141.33c0,.044.044.038.063.063.009.047-.016.056-.016.091.063.022.044.122.11.141-.031.129.063.132.044.251.06.057.038.192.11.232,0,.038-.025.06-.016.11-.01.06.06.034.063.078-.031.157.075.173.047.327.075.053.025.226.094.282v.2c0,.05.047.044.063.075a.8.8,0,0,0-.016.22c-.013.06.06.035.063.079a2.579,2.579,0,0,1-.016.421c.009.044.066.041.063.094v.719a4.211,4.211,0,0,1,0,.719c-.013.05-.009.063-.063.094a1.777,1.777,0,0,1,.016.374c.013.06-.06.035-.063.078.006.082-.016.195.016.248.006.06-.05.056-.063.094.031.188-.079.235-.047.421-.063.047-.022.2-.11.22a.3.3,0,0,1,.016.126c.013.06-.06.034-.063.078s-.019.1.016.11c-.085.091-.072.279-.154.373v.141c-.009.047-.072.044-.047.122-.1.016-.019.11-.11.126-.019.044.028.094,0,.094-.041.044-.031.135-.094.157v.126c-.066.034-.066.113-.094.169s-.069.094-.094.141-.044.122-.078.188-.066.119-.091.185c-.038.028-.06.041-.031.094-.05.016-.05.075-.11.078.028.107-.072.085-.047.188-.116.025-.088.195-.2.22.013.088-.038.116-.094.138.016.129-.107.122-.107.236-.053.025-.075.082-.126.11a.123.123,0,0,0-.016.094c-.094.031-.125.125-.2.169v.078c-.129.113-.311.232-.358.4a5.586,5.586,0,0,0-.546.546h-.078c-.085.135-.235.2-.314.345-.173.019-.213.17-.373.2-.038.053-.091.088-.126.141a.117.117,0,0,0-.078.016c-.044.091-.182.088-.217.188-.066-.038-.085.041-.094.047s-.047-.01-.063,0c-.044.025-.063.078-.11.11-.006,0-.031-.006-.047,0s-.028.022-.047.031a.438.438,0,0,0-.063.016c-.016.006-.025.034-.047.047s-.088.028-.122.044a.415.415,0,0,0-.047.031c-.031.019-.057.006-.078.016s-.016.041-.031.047a.3.3,0,0,1-.063.016,1.224,1.224,0,0,1-.11.063.577.577,0,0,0-.217.126c-.176-.031-.213.126-.345.094-.044,0-.041.05-.079.063a.281.281,0,0,0-.232.094c-.079-.013-.132,0-.157.047a.547.547,0,0,0-.358.107.251.251,0,0,0-.22.047h-.157c-.05-.013-.019.053-.063.047-.207-.016-.3.082-.53.047-.05-.013-.019.053-.063.047h-.311c.025.141.163.17.188.311.06.038.094.1.154.141-.022.129.122.088.094.22.088.038.122.129.2.169a.417.417,0,0,0,.188.3c.056.169.213.242.264.421.035.025.06.056.094.078v.078c.066.019.072.094.141.11-.028.11.113.1.11.232.138.1.191.289.342.377-.028.094.069.066.047.157.057.041.085.11.157.138-.031.135.116.094.091.22.069.025.082.107.157.126-.025.129.11.1.094.217.056.034.078.1.141.126-.025.107.11.1.107.22.053.038.078.1.141.126,0,.1.107.191.2.248a.457.457,0,0,0,.2.314c-.025.122.11.085.091.2.031.066.129.06.11.173.063.022.072.094.141.11v.078c.063.028.085.1.157.122-.019.154.148.126.141.267.038.028.066.069.107.094-.016.116.11.091.094.2.1.075.116.242.251.283-.006.113.072.148.141.188-.028.11.11.107.107.235.063.025.078.1.141.122-.019.135.132.1.11.235.085.028.1.129.188.154a.376.376,0,0,0,.2.3c-.028.132.138.119.094.22.06.038.1.1.157.138-.022.129.119.088.094.22.066.028.078.107.154.126,0,.113.072.144.141.188-.022.141.135.1.11.248.06.044.141.069.141.173.022.028.094.009.11.047v.107c.05.041.075.1.138.126-.028.132.144.116.094.22.063.028.081.107.157.126-.013.138.129.132.11.232.057.031.078.1.138.126v.078c.072.013.078.091.141.11-.019.11.107.094.11.217.044.047.072.107.141.126-.038.094.063.107.11.157v.063a.58.58,0,0,0,.138.138v.063c.038.056.126.063.11.173.069.013.075.091.141.11v.079c.125.047.11.232.251.267v.075a1.658,1.658,0,0,0,.154.141c-.044.075.069.06.047.157.047.069.151.078.141.2.066.028.085.1.157.126-.038.1.078.119.094.141s-.013.05,0,.063a.394.394,0,0,0,.154.141c-.025.129.11.1.094.217.053.038.088.091.141.126-.022.1.116.1.11.235.057.025.075.091.138.107.028.013-.006.063,0,.079s.088.044.11.078c.009.016-.009.05,0,.063a1.206,1.206,0,0,1,.251.358c.044.069.151.078.141.2.066.028.085.1.154.126-.035.1.082.119.094.141s-.01.047,0,.06c.085.116.21.2.251.361a1.794,1.794,0,0,0,.141.125c0,.107.107.11.107.217a.364.364,0,0,0,.141.126c.028.031,0,.038,0,.078.116.063.132.223.251.283-.019.113.1.091.107.185-.013.016-.057.006-.044.047h-5c0-.1-.01-.2.063-.217-.009-.082.006-.132.047-.157-.022-.21.028-.443,0-.64-.009-.066-.075-.119-.047-.188-.066-.06-.063-.1-.11-.188,0-.031-.088-.119-.094-.2a.3.3,0,0,0-.094-.094c.041-.1-.1-.088-.044-.157-.113-.066-.116-.239-.251-.279.025-.138-.122-.107-.11-.235-.056-.025-.069-.1-.141-.11.025-.138-.122-.107-.107-.232-.06-.031-.082-.1-.141-.126v-.078c-.069-.025-.082-.107-.157-.126.022-.157-.154-.116-.141-.264-.079-.047-.11-.141-.2-.173.028-.1-.066-.082-.047-.173-.05-.072-.16-.091-.157-.216-.063-.022-.082-.088-.141-.11v-.078c-.063-.019-.069-.094-.138-.11a.088.088,0,0,1-.016-.078c-.044-.044-.075-.1-.141-.126.013-.16-.16-.129-.157-.279-.05-.06-.138-.082-.141-.188-.057-.038-.1-.1-.157-.138v-.078c-.063-.019-.069-.1-.138-.11,0-.122-.085-.157-.157-.2.028-.056-.022-.075-.047-.11s-.025-.066-.047-.094c-.06-.082-.151-.1-.157-.232-.06-.047-.147-.069-.138-.188-.063-.022-.082-.088-.141-.11-.019-.016-.019-.053-.016-.091-.066-.019-.072-.1-.141-.11a.114.114,0,0,1,0-.078c-.063-.031-.078-.107-.157-.126.006-.113-.069-.148-.138-.188,0-.1-.082-.154-.157-.217.022-.129-.119-.088-.094-.22-.075-.038-.11-.119-.188-.157-.016-.06-.013-.081-.06-.122l-.047-.031c-.009-.016.009-.05,0-.063a.4.4,0,0,0-.157-.141v-.079c-.151-.088-.144-.242-.3-.326v-.078c-.085-.041-.122-.129-.2-.173.022-.122-.113-.085-.094-.2a.4.4,0,0,0-.157-.141c.006-.113-.072-.147-.141-.188.006-.129-.1-.151-.154-.22v-.075c-.069-.016-.075-.091-.141-.11v-.078c-.069-.025-.085-.1-.157-.126.025-.075-.025-.082-.063-.122-.022-.028-.019-.066-.031-.082a.669.669,0,0,0-.2-.185c.025-.132-.11-.1-.094-.22-.056-.069-.163-.088-.157-.22-.069-.013-.075-.088-.141-.107v-.078c-.066-.028-.085-.1-.154-.126v-.078c-.163-.1-.16-.273-.345-.358v-.079c-.107-.06-.11-.22-.232-.267a.088.088,0,0,1-.016-.078c-.006-.035-.085,0-.094-.028v-.11a.6.6,0,0,0-.141-.126.1.1,0,0,1-.016-.078c-.041-.047-.072-.1-.141-.122.016-.163-.16-.135-.154-.282-.053-.038-.088-.091-.141-.126v-.079c-.066-.016-.078-.088-.141-.11a.267.267,0,0,0-.157-.2c-.028-.031,0-.041,0-.079-.063-.031-.082-.1-.154-.126.035-.132-.148-.119-.094-.22-.072-.047-.116-.122-.188-.17a.1.1,0,0,1-.016-.078c-.06-.041-.1-.1-.157-.141v-.078c-.06-.022-.079-.085-.138-.11.031-.129-.148-.119-.094-.217-.082-.047-.113-.141-.2-.173.025-.144-.132-.107-.11-.251-.069-.013-.075-.088-.138-.107.006-.116-.091-.129-.141-.188H338.9a1.138,1.138,0,0,0-.016.342c0,3.848.013,7.825-.016,11.664,0,.044.066.025.06.075v.625c-.013.053.053.022.047.063-.035.26.063.386.047.624,0,.05.05.047.063.079-.075.135.11.195.031.326.113.094.063.345.157.455v.141c.06.038.044.154.063.232h-4.84c.006-.082-.022-.2.047-.217v-.141c.066-.044.025-.195.11-.22a.164.164,0,0,1,.047-.2.389.389,0,0,1-.016-.154c-.022-.053.047-.034.063-.078s-.013-.1,0-.141.047-.028.044-.079v-.2c-.022-.041.038-.041.047-.075a2.523,2.523,0,0,0,0-.267c.091-.138.031-.427.047-.64-.019-.072.057-.047.063-.094-.028-8.814-.016-17.938-.016-26.88a2.746,2.746,0,0,0,.016-.4.876.876,0,0,0-.248-.283c-.031-.019-.069-.013-.094-.031-.085-.066-.132-.154-.2-.217a.124.124,0,0,0-.094-.016c-.022-.072-.091-.1-.122-.157-.091.013-.11-.05-.141-.094-.16-.019-.185-.154-.314-.141-.038-.06-.1-.094-.141-.154-.11-.01-.154-.085-.248-.11a.2.2,0,0,1-.094-.094c-.157-.013-.213-.129-.373-.141-.028-.1-.182-.066-.22-.157h-.126c-.041-.075-.176-.06-.217-.138h-.094c-.072-.075-.173-.028-.236-.11a.126.126,0,0,1-.138-.047.632.632,0,0,1-.3-.094h-.126c-.072-.035-.078-.075-.185-.047-.063,0-.05-.066-.11-.063-.107-.006-.169.013-.251,0s-.132-.082-.232-.047v-.982Zm2.059,2.608h0c-.091-.138-.32-.135-.4-.282-.041.031-.066-.025-.078-.031-.028-.013-.053,0-.078-.016s-.028-.038-.047-.047-.056,0-.078-.016l-.044-.031a.23.23,0,0,1-.063-.031c-.031-.016-.094-.031-.11-.075h-.126c-.053-.082-.188-.082-.248-.157-.06.05-.107-.028-.157-.047s-.072.006-.11-.031l-.031-.016a.979.979,0,0,1-.3-.094c-.148.025-.169-.078-.326-.047-.031-.016-.025-.069-.079-.063-.157.019-.2-.078-.373-.047-.041,0-.016-.066-.078-.047H346c-.06.016-.025-.066-.091-.044h-.345a.615.615,0,0,0-.11-.047c-.286-.057-.709.041-1.029,0a.466.466,0,0,0-.11-.047,4.552,4.552,0,0,0-.747,0H338.38v14.281a.184.184,0,0,1,.047.173c.047.013.06.056.094.078-.022.072.082.063.063.173a2.325,2.325,0,0,1,.251.248.962.962,0,0,1,.311.157c.091-.035.166.038.235.047a7.113,7.113,0,0,0,.857,0h5.917c.06.006.041-.063.11-.047h.3c.066.009.028-.085.107-.063.053.009.144-.019.173.016.06,0,.06-.066.126-.063.135.041.141-.082.311-.047.031-.006.013-.06.063-.047h.126a1.289,1.289,0,0,1,.173-.094h.122c.031-.041.094-.05.141-.075a.3.3,0,0,1,.235-.078.938.938,0,0,1,.279-.157.822.822,0,0,1,.314-.141c.006-.05.05-.063.078-.094.088.022.06-.072.154-.044.041-.06.1-.1.141-.157.138.006.113-.148.251-.141.063-.069.11-.151.217-.173.248-.245.483-.505.75-.731-.022-.1.069-.088.047-.188.047-.022.053.013.094-.016-.013-.119.094-.122.141-.188-.006-.119.125-.1.107-.232.066,0,.053-.075.11-.079-.016-.094.047-.11.094-.141-.022-.1.069-.085.047-.188.135-.041.094-.185.2-.264V460.8c.085-.028.056-.069.107-.157.031-.047.053-.035.031-.125.078-.05.063-.17.157-.232-.028-.138.075-.144.047-.283.082,0,.022-.132.11-.126-.063-.122.091-.129.031-.248.013-.034.066-.028.063-.078-.025-.151.078-.169.047-.326.079,0,.022-.113.047-.188.013-.044.05-.013.047-.063v-.141c0-.044.072-.019.06-.078-.06-.1.025-.191.047-.264-.013-.226.082-.345.047-.593-.006-.053.069-.025.047-.094v-.687a.84.84,0,0,0,0-.593v-.687c.016-.06-.066-.025-.047-.091v-.314c-.063-.044-.044-.173-.047-.279a.243.243,0,0,1-.047-.251c.013-.063-.072-.028-.06-.094v-.141c-.082-.016-.028-.122-.047-.185-.013-.047-.056-.013-.047-.063v-.141c-.072-.038-.034-.185-.11-.22.053-.1-.1-.116-.031-.232-.022-.019-.069-.016-.063-.063.022-.085-.028-.1-.047-.141v-.094c-.082-.1-.119-.245-.2-.342-.009-.217-.154-.3-.185-.5a.794.794,0,0,1-.11-.094c.022-.091-.075-.06-.047-.157-.044-.038-.107-.057-.094-.157-.053-.013-.069-.066-.11-.091.025-.122-.122-.075-.091-.2-.151-.088-.195-.286-.345-.374a.1.1,0,0,0-.016-.078c-.213-.2-.424-.411-.625-.625-.122-.028-.176-.129-.248-.2-.129-.006-.138-.147-.251-.125-.013-.069-.091-.076-.11-.138H349l.009-.025-.025.009Z" transform="translate(-330.64 -447.796)"/><path class="a" d="M344.724,447.807h24.507a2.069,2.069,0,0,1,.016.531c-.006.389-.009.851,0,1.249a1.791,1.791,0,0,1-.016.515c-.279-.063-.559-.135-.86-.188a.752.752,0,0,0-.107-.028l-.11-.016a17.166,17.166,0,0,0-2.718-.141H352.951c-.013,0-.016.016-.031.016v9.771c0,.154-.009.308,0,.452s.038.261.047.392c0,.044-.006.082,0,.122s.025.047.031.078c.009.072,0,.138.016.2,0,.025.038.041.044.063.019.044-.013.107,0,.141a.349.349,0,0,1,.063.091c.022.069.025.132.047.188s.057.094.078.141a1.862,1.862,0,0,0,.157.279,1.95,1.95,0,0,0,1.359.86c.028.006.075-.01.107,0s.038.044.063.047c.06.006.135-.019.2-.016,2.009.066,4.193.016,6.2.016h7.1c.028.75.028,1.607,0,2.357-.069.028-.135-.013-.2-.031-.254-.069-.518-.144-.8-.2-.069-.013-.144-.016-.22-.031-.025,0-.053-.041-.075-.047-.041-.006-.088.009-.126,0a9,9,0,0,0-1.139-.107c-.113-.006-.226,0-.361-.016-.031-.006-.063-.031-.094-.031-.157-.006-.323.016-.483.016-3.933,0-8.1.013-12-.016-.031,3.679-.016,7.47-.016,11.224a7.041,7.041,0,0,0,.031.9c.019.154.009.3.031.436,0,.031.025.06.031.094a2.192,2.192,0,0,0,.044.3,1.894,1.894,0,0,0,.282.625,2.413,2.413,0,0,0,2.015.747c4.313,0,8.795-.013,13.079.016.009.016.016.028.031.031.057.3.088.621.126.97.009.069.035.151.047.232s0,.151.016.22c.028.166.094.348.031.468H348.547a.435.435,0,0,1,.094-.358,1.6,1.6,0,0,1,.079-.392c.072-.245.088-.543.173-.779-.047-.122.031-.239.044-.361.019-.138,0-.282.016-.421a7.1,7.1,0,0,0,.031-.857V450.914a4.763,4.763,0,0,0-.982-.829c-.028-.019-.05-.044-.078-.063-.1-.066-.216-.091-.279-.185a9.786,9.786,0,0,0-1.67-.766c-.179-.063-.389-.119-.534-.173-.028-.009-.041.009-.078,0-.213-.047-.433-.094-.684-.125.01-.3-.022-.653.016-.935.016,0,.022-.016.031-.031Z" transform="translate(-300.625 -447.796)"/><path class="a" d="M370.99,447.815h7.04c.574,1.008,1.143,2,1.733,3a3.472,3.472,0,0,1,.188.314c.009.016,0,.056.016.075.022.035.072.057.094.094s.038.1.063.141a1.993,1.993,0,0,1,.2.373,1.111,1.111,0,0,1,.188.283c.012.022,0,.044.016.063s.041.019.047.031c.041.066.056.151.094.216s.088.11.122.173c.333.581.669,1.174,1.017,1.764v.047a1.607,1.607,0,0,1,.22.342.559.559,0,0,0,.122.173.477.477,0,0,0,.078.173c.1.163.2.348.314.53.141.232.264.48.4.719.034.057.075.11.11.169.16.292.342.587.515.891.031.056.075.113.11.17s.041.141.11.173c.217.433.464.844.7,1.265.11.195.229.383.345.593l.031.016c.016.031.012.056.031.094.094.179.235.38.342.577.019.035.05.06.078.11.075.126.147.264.22.4.053.107.129.226.2.342.311.5.609,1.061.923,1.579.166.257.4.719.747.81.512.141.763-.326.97-.593.012-.016.035-.028.044-.044s.006-.06.019-.078.038-.019.047-.031c.258-.424.568-.967.826-1.343q3.329-5.344,6.667-10.678a5.255,5.255,0,0,1,.283-.452c.044-.075.075-.16.122-.235.022-.035.072-.056.094-.094s.025-.085.047-.122c.012-.022.031-.022.047-.047.107-.2.242-.4.373-.609.091-.144.157-.2.11-.408-.006-.025-.028-.035-.031-.06-.041-.3-.176-.59-.2-.876v-.031h3a2.389,2.389,0,0,1,.424,0v.031c-.257.443-.559.857-.829,1.3-.223.361-.446.716-.687,1.077-.179.273-.364.571-.546.857-.756,1.205-1.557,2.436-2.326,3.654-.468.709-.9,1.437-1.375,2.156-.154.232-.292.48-.468.7-.122.235-.276.452-.421.684-.063.1-.144.216-.22.329-.009.016,0,.031-.016.047a3.206,3.206,0,0,0-.2.3c-.163.257-.327.54-.5.813-.06.088-.129.173-.188.264s-.1.191-.157.283l-.047.016a6.2,6.2,0,0,1-.389.64c-.06.088-.11.173-.173.264-.339.515-.678,1.089-1.03,1.607-.05.075-.075.119-.126.2-.085.141-.2.317-.295.468-.028.044-.069.082-.094.126s-.035.107-.063.157c-.053.088-.132.16-.188.251-.238.377-.5.8-.766,1.218-.025.041-.063.079-.091.122-.056.088-.1.185-.157.283l-.047.016a.809.809,0,0,1-.047.107,2.324,2.324,0,0,0-.248.408,4.259,4.259,0,0,0,0,.75c0,3.261,0,6.463,0,9.708,0,.5-.041,1.008,0,1.481.006.116.038.229.047.345a9.664,9.664,0,0,0,.107,1.03c.009.053.038.1.047.157.031.144.053.314.094.468a1.971,1.971,0,0,1,.141.578v.031h-4.809c-.078-.113.082-.176.047-.342.06-.022.035-.085.047-.126.044-.163.107-.4.138-.546.009-.038.006-.078.016-.125a.856.856,0,0,0,.047-.126c.013-.063-.019-.113.016-.173a19.585,19.585,0,0,0,.126-3.088v-9.727c-1.287-2.131-2.568-4.3-3.839-6.431-.057-.094-.119-.207-.173-.279s-.1-.169-.141-.235c-.066-.1-.113-.2-.173-.3-.584-.945-1.152-1.927-1.717-2.875-.088-.151-.188-.3-.279-.452-.141-.229-.273-.49-.4-.7-.148-.232-.286-.455-.424-.684-.32-.537-.637-1.089-.951-1.61-.229-.38-.5-.744-.734-1.124-.254-.32-.49-.65-.766-.951a8.345,8.345,0,0,0-.763-.734c-.022-.019-.028-.047-.047-.063s-.053-.013-.079-.031c-.166-.122-.317-.248-.5-.358a6,6,0,0,0-.546-.314,6.719,6.719,0,0,0-1.28-.436c-.213-.047-.565-.079-.829-.126.013-.317-.019-.675.016-.967Z" transform="translate(-244.377 -447.803)"/><path class="a" d="M374.112,447.807v.016c.3.044.712-.013,1.014.031a1.865,1.865,0,0,0,.22.031c.16.006.295.028.452.047.041.006.085-.009.126,0,.013,0,.041.044.063.047.075.013.16,0,.232.016a3.143,3.143,0,0,1,.408.094c.028.006.047.038.075.047s.075-.009.11,0a5.542,5.542,0,0,1,.562.169,1.584,1.584,0,0,0,.22.079c.069.019.2.1.3.141a7.514,7.514,0,0,1,2.094,1.328c.088.079.192.138.279.217s.154.169.235.251a7.88,7.88,0,0,1,.951,1.139,1.383,1.383,0,0,0,.126.185.758.758,0,0,1,.141.22c.013.041.053.053.078.094s.044.119.075.173c.085.144.185.3.267.468.11.22.188.443.3.672a4.825,4.825,0,0,1,.2.546c.019.057.044.113.063.169.082.251.122.509.2.766.013.05-.009.091,0,.141.01.034.041.047.05.079.013.072,0,.147.016.22,0,.009.025.019.031.044.041.27.057.571.091.876a8.822,8.822,0,0,1-.031,1.5c-.006.16-.041.317-.06.471s-.066.289-.1.421c-.009.044.013.1,0,.141,0,.025-.038.05-.044.075-.009.044,0,.082-.016.126-.031.11-.069.279-.11.408-.013.038-.006.075-.016.107s-.053.044-.063.079.009.066,0,.094a5.26,5.26,0,0,1-.217.562c-.107.242-.2.477-.314.7a8.8,8.8,0,0,1-.794,1.3,10.285,10.285,0,0,1-.986,1.108c-.088.088-.191.163-.282.251a5.366,5.366,0,0,1-.574.468,1.79,1.79,0,0,0-.157.11c-.047.035-.078.091-.125.122-.028.019-.075.013-.11.031-.063.041-.151.107-.232.157-.27.16-.549.323-.844.468-.056.028-.126.038-.188.063s-.113.072-.169.094c-.019.006-.044-.006-.063,0s-.075.044-.125.063a3.419,3.419,0,0,0-.377.141c-.276.063-.559.16-.857.217-.154.031-.311.056-.468.078a3,3,0,0,1-.361.047c-.016,0-.091-.025-.091.031.038.069.053.013.06.094a3.565,3.565,0,0,0,.267.342c.348.505.687,1.014,1.061,1.5.217.276.4.6.64.872-.019.063.05.088.078.126.082.11.166.236.251.361a4.32,4.32,0,0,1,.327.48,4.212,4.212,0,0,1,.358.471c.116.157.226.314.345.468s.21.326.326.483l.345.468c.461.631.895,1.277,1.372,1.89.232.38.5.725.766,1.077.022.028.022.047.047.078.11.132.22.317.326.468a4.328,4.328,0,0,1,.377.546c.125.082.166.232.248.345.044.056.1.1.141.157.195.267.389.581.593.857.461.621.9,1.243,1.359,1.874.151.213.323.455.483.687.223.323.5.675.734,1.014.038.056.069.116.107.173.082.11.207.207.22.358h-4.978c-.016-.013-.009-.044-.031-.047.025-.072.038-.157.06-.232.013-.038.038-.063.05-.094.044-.154-.016-.421.016-.64-.072-.05-.057-.135-.078-.2-.009-.016-.028-.013-.034-.047-.009-.066-.028-.038-.044-.094a3.138,3.138,0,0,0-.436-.731c-.364-.54-.788-1.055-1.158-1.61-.311-.367-.581-.769-.873-1.155-.217-.289-.421-.587-.656-.872s-.427-.578-.64-.876c-.141-.2-.292-.389-.436-.578-.3-.38-.565-.775-.86-1.155-.147-.191-.289-.386-.436-.577s-.276-.4-.421-.593c-.038-.05-.088-.088-.126-.141-.019-.025-.025-.05-.047-.075-.229-.282-.477-.618-.7-.923-.072-.1-.129-.21-.2-.311-.2-.283-.439-.568-.656-.86s-.427-.574-.64-.872a.969.969,0,0,1-.2-.3,8.475,8.475,0,0,1-.609-.782c-.022-.025-.028-.056-.047-.075s-.034.009-.044-.016a.43.43,0,0,0-.1-.173,7.628,7.628,0,0,0-.483-.609c-1.695.038-3.459.006-5.182.016-.028,3.462-.016,7.106-.016,10.647a15.3,15.3,0,0,0,.031,1.748c.031.267.031.527.078.782s.113.48.157.716c.034.119.066.248.091.377s.113.229.078.358h-4.805c-.075-.116.066-.213.044-.373.075-.085.072-.242.11-.361a1.543,1.543,0,0,0,.078-.4,4.711,4.711,0,0,0,.141-.766,3.984,3.984,0,0,0,.016-.436c0-.135.038-.273.047-.4.041-.581,0-1.205,0-1.811V450.914a7.189,7.189,0,0,0-1.874-1.359,8.12,8.12,0,0,0-1.139-.483.342.342,0,0,0-.078-.031c-.17-.028-.364-.11-.546-.157-.116-.028-.242-.025-.358-.047-.053-.01-.1-.038-.157-.047s-.119.031-.157-.031c.013-.307-.022-.716.016-.951Zm-8.525,1.438h0v12.564a7.255,7.255,0,0,0,.063,1.733c0,.013.025.022.031.047a1.043,1.043,0,0,0,.64.672c.016.006.019.028.031.031.044.013.1,0,.154.016s.082.041.126.047a9.734,9.734,0,0,0,1.048,0h5.292a3.42,3.42,0,0,0,.512-.016c.116-.016.254-.009.361-.031.031-.006.057-.041.094-.047.119-.022.242-.025.342-.047.035-.006.06-.038.094-.047.116-.025.226-.038.326-.063.038-.006.06-.034.094-.044.069-.022.141-.028.2-.05.028-.006.05-.034.078-.047s.044.009.063,0l.031-.044c.066-.028.141-.038.2-.063a6.164,6.164,0,0,0,2.891-2.671,8.636,8.636,0,0,0,.637-1.482c.05-.16.094-.326.141-.5,0-.016.028-.019.031-.047s-.006-.053,0-.079c.009-.044.038-.082.047-.126.019-.088.025-.185.047-.279.06-.273.082-.581.126-.86a2.121,2.121,0,0,0,.016-.283,15.229,15.229,0,0,0,0-1.56c-.022-.264-.075-.562-.11-.841a3.313,3.313,0,0,0-.126-.534.847.847,0,0,0-.078-.327c-.016-.056-.016-.113-.031-.173,0-.016-.041-.025-.047-.047s.009-.085,0-.107-.038-.028-.044-.047c-.082-.179-.075-.4-.22-.5.025-.135-.078-.232-.126-.345-.009-.019.006-.044,0-.063a.693.693,0,0,0-.094-.157c-.094-.154-.154-.3-.248-.452a6.845,6.845,0,0,0-1.733-1.842c-.147-.1-.311-.2-.452-.3-.057-.035-.107-.081-.157-.11s-.132-.035-.188-.063c-.006,0-.013-.022-.032-.031l-.126-.063a11.122,11.122,0,0,0-1.108-.436c-.22,0-.32-.116-.546-.11-.044-.078-.138-.035-.2-.047-.041-.006-.044-.035-.078-.047s-.1.009-.141,0c-.072-.009-.148-.035-.22-.044-.088-.013-.176.006-.264,0s-.148-.041-.22-.047c-.088-.009-.176,0-.267,0-2.178-.082-4.633-.038-6.852-.047-.019,0-.016.025-.016.047Z" transform="translate(-272.363 -447.796)"/></svg>