<svg xmlns="http://www.w3.org/2000/svg" width="201" height="50.253" viewBox="0 0 201 50.253"><defs><style>.a{fill:#3e3e3e;}</style></defs><g transform="translate(0)"><path class="a" d="M92.592,493.364s2.886-10.295,3.606-15.442l.723-5.147s.309-14.93,0-18.427a15.769,15.769,0,0,0-2.357-6.874c-.5-.812-1.66-2.7-2.666-2.239s.659,2.007.659,2.007a14.051,14.051,0,0,1,2.586,7.183c.191,4.09-.038,17.8-.038,17.8s-1.583,10.311-2.9,14.824l-1.542,4.791s-.656,1.66,0,1.969A1.442,1.442,0,0,0,92.592,493.364Z" transform="translate(-78.889 -445.161)"/><path class="a" d="M93.639,457.1a.932.932,0,0,1-.962-.927c0-.924,1.351-1.115,2.316-.885a2.825,2.825,0,0,1,2.083,3.09c-.309,1.659-2.083,2.545-4.593,2.357s-5.714-2.625-5.714-4.982c0-3.36,4.287-7.492,9.922-8.033,2.434-.191,12.009-.618,14.515.385s7.607,3.169,7.454,8.842c.038,1.816-2.293,8.623-8.7,11.722,0,0,6.842,2.176,6.88,7.775s-4.23,9.906-15.78,9.718l-.669-.761.465-1.545.233.385,6.832-.229s7.141-1.236,7.106-7.183-7.53-7.721-11.509-6.794c-.424-2.163.118-1.778.118-1.778s11.967-.847,12.818-10.922c0,0,.255-5.785-6.718-7.724l-12.588-.076s-6.68.115-8.221,5.985c-.156,2.007,2.083,3.59,4.284,3.475,0,0,2.01.115,2.163-1.083S93.639,457.1,93.639,457.1Z" transform="translate(-86.768 -440.123)"/><path class="a" d="M114.648,465.136c1.2-2.934,2.239-9.96-2.118-12.856a7.2,7.2,0,0,0-8.766,0,11.737,11.737,0,0,0-4.558,8.954s.105,3.3,5.058,4.017c2.625.774,5.562-2.316,5.714-4.94s-2.277-5.249-5.135-3.243-2.045,4.093-.656,4.9,2.7-1.007,2.548-1.736-1.236-.812-1.43-.462-.038-.889.621-.889,1.5-.271,2.026,1.312-2.026,3.163-3.456,3.243-4.17-1.816-3.166-4.243,3.319-6.759,6.794-6.721,6.141,2.778,5.791,6.909a26.5,26.5,0,0,1-4.052,10.926c-1.159-.306-6.485-1.351-9.766,1.739a4.521,4.521,0,0,0,.694,7.374c1.66.465,4.236.694,8.333.115,0,0-.153,2.319,1.319,2.319s.268-1.51,0-2.319a33.133,33.133,0,0,1-.194-4.9S113.453,468.07,114.648,465.136Zm-5.788,11.145c-.073,1.851-2.4,2.673-2.4,2.673h-3.271c-2.558,0-2.746-2.966-2.746-2.966.115-2.51,3.609-4.007,3.609-4.007h4.81S108.937,474.425,108.86,476.282Z" transform="translate(-61.1 -432.905)"/><path class="a" d="M114.475,445.751h1.851s-.344,13.923-.729,17.4-3.128,16.395-3.284,18.172-2.434,10.664,4.131,10.935c2.816.115,4.749-2.848,4.864-5.2s-.58-4.2-2.854-4.049c0,0-1.621.083-1.777,1.2s1,1.277,1.777,1.277a1.091,1.091,0,0,1,.729,1.854c-.771.774-3.663.35-4.17-1.462a3.772,3.772,0,0,1,3.628-4.867c3.284-.115,4.482,3.9,4.444,5.093s-.271,6.488-5.711,7.954a20.692,20.692,0,0,1-3.169,0,6.461,6.461,0,0,1-4.017-5.6c-.115-3.478,2.01-16.408,2.975-20.345.952-3.886.927-6.976,1.08-11.8S114.475,445.751,114.475,445.751Z" transform="translate(-35.598 -443.872)"/><path class="a" d="M109.433,445.751h1.851s-.347,13.923-.729,17.4-3.128,16.395-3.284,18.172-2.434,10.664,4.131,10.935c2.816.115,4.749-2.848,4.864-5.2s-.58-4.2-2.854-4.049c0,0-1.625.083-1.777,1.2s1,1.277,1.777,1.277a1.091,1.091,0,0,1,.729,1.854c-.771.774-3.666.35-4.17-1.462a3.769,3.769,0,0,1,3.628-4.867c3.284-.115,4.482,3.9,4.444,5.093s-.271,6.488-5.714,7.954a20.685,20.685,0,0,1-3.169,0,6.459,6.459,0,0,1-4.013-5.6c-.115-3.478,2.01-16.408,2.975-20.345.949-3.886.927-6.976,1.08-11.8S109.433,445.751,109.433,445.751Z" transform="translate(-46.616 -443.872)"/><path class="a" d="M124.924,460.8s-1.586.038-1.586.927,1.586,1.274,2.666.306,2.975-2.816.886-4.9-6.129,1.15-6.371,3.628c-.28,2.908,1.236,5.131,7.336,5.055s7.842-4.558,7.842-6.947-2.781-7.412-8.381-7.492-11.97,7.839-12.085,12.741,1.851,11.929,7.3,15.289,12.009-1.583,12.279-4.555-1.08-6.45-5.1-6.294-4.252,5.147-3.4,6.641c.592,1.038,4.131,2.086,5.405-.736s-2.242-3.128-2.277-.962c0,.733-1.2,1.351-1.392-.08a2.44,2.44,0,0,1,2.628-2.778c1.7.153,4.364,3.552.076,6.989s-10.734-1.586-11.856-5.135-3.9-10.855,2.357-15.984,9.613-3.01,11.429-.85,2.125,7.256-4.287,8.224-6.68-2.2-6.294-3.36a3.458,3.458,0,0,1,3.09-2.045C126.425,458.484,126.093,460.507,124.924,460.8Z" transform="translate(-24.578 -431.578)"/><path class="a" d="M124.576,452.451l-1.1,1.1a70.784,70.784,0,0,1,2.9,8.658,124.159,124.159,0,0,1,1.516,18.43h1.389s-.233-10.139-.58-15.117,1.851-12.267,7.915-12.308,2.7,9.119-.889,9.19-3.7-4.163-1.389-4.587,1.739,2.144,1,2.415-.233,1.959,1,1.379,3.246-5.1-1-5.562a3.84,3.84,0,0,0-3.09,6.673c2.513,2.277,8.725,1.659,9.307-4.9s-5.87-7.683-8.03-6.138-5.714,5.364-6.256,7.489C126.892,458.974,125.041,452.68,124.576,452.451Z" transform="translate(-6.548 -432.263)"/><path class="a" d="M131.313,451.59h1.854s.847,7.772.927,12.174-.5,15.723-.5,15.723h-1.66s.694-11.633.58-15.646S131.313,451.59,131.313,451.59Z" transform="translate(10.576 -431.112)"/><path class="a" d="M135.192,450.86h1.851s.851,8.4.93,13.181.115,17.041.115,17.041h-1.66s.076-12.595-.041-16.959S135.192,450.86,135.192,450.86Z" transform="translate(19.053 -432.708)"/><path class="a" d="M134.683,453.607s1.908-.035,1.9.694a1.712,1.712,0,0,1-2.325,1.16,3.1,3.1,0,0,1-1.7-3.087c.268-1.43,4.014-3.246,5.52.618s-4.287,5.444-6.256,3.822-3.421-8.5,3.249-9.075c0,0,3.816-.385,4.819,2.742,0,0,.025.758-1.21.784s-.991-1.828-3-1.71-5.1.694-3.743,4.052,3.612,2.494,4.641,1.545C138.263,453.6,134.466,451.473,134.683,453.607Z" transform="translate(8.092 -439.56)"/><path class="a" d="M135.86,461.662s6.18-7.447,8.842-8.03,8.107-.309,9.651,6.447-.347,14.015-3.475,16.911-6.941.041-5.495-2.7c0,0,.669-1.583,1.79-.812s-.5,1.9-.85,1.739-.774,1.271.733,1.465,3.09-2.392,2.319-3.9-4.135-2.083-5.332-.268-.771,6.871,2.7,7.568,8.572-2.625,9.964-11.311-1.93-14.133-4.829-16.1-8.186-3.01-16.06,6.218Z" transform="translate(20.43 -431.669)"/><path class="a" d="M160.616,465.136c1.194-2.934,2.239-9.96-2.125-12.856a7.2,7.2,0,0,0-8.763,0,11.728,11.728,0,0,0-4.555,8.954s.258,3.249,5.055,4.017c2.628.774,5.562-2.316,5.714-4.94s-2.278-5.249-5.135-3.243-2.048,4.093-.656,4.9,2.7-1.007,2.548-1.736-1.236-.812-1.427-.462-.038-.889.618-.889,1.5-.271,2.023,1.312-2.023,3.163-3.453,3.243-4.17-1.816-3.166-4.243,3.322-6.759,6.794-6.721,6.141,2.778,5.791,6.909a26.541,26.541,0,0,1-4.052,10.926c-1.159-.306-6.488-1.351-9.769,1.739a4.523,4.523,0,0,0,.694,7.374c1.66.465,4.24.694,8.336.115,0,0-.15,2.319,1.316,2.319s.274-1.51,0-2.319a33.059,33.059,0,0,1-.191-4.9S159.418,468.07,160.616,465.136Zm-5.788,11.145c-.076,1.851-2.408,2.673-2.408,2.673h-3.271c-2.555,0-2.743-2.966-2.743-2.966.115-2.51,3.609-4.007,3.609-4.007h4.813S154.9,474.425,154.828,476.282Z" transform="translate(39.342 -432.905)"/></g></svg>