<svg xmlns="http://www.w3.org/2000/svg" width="153.6" height="30.997" viewBox="0 0 153.6 30.997"><defs><style>.a{fill:#3e3e3e;}</style></defs><g transform="translate(-4.937 -6.546)"><path class="a" d="M4.937,38.077A41.908,41.908,0,0,0,9.18,31.7a101.2,101.2,0,0,0,4.493-9.372q1.974-4.606,3.256-8.237a22.2,22.2,0,0,0,1.282-4.357,2.867,2.867,0,0,0-.091-.715,4.26,4.26,0,0,0-.272-.738h5.764q3.381,11.256,6.377,18.993t5.151,10.8H30.057L25.382,25.166H14.535l-2,4.879-.045.113q-1.861,4.471-1.861,6.49a4.2,4.2,0,0,0,.057.669,6.926,6.926,0,0,0,.17.76ZM15.284,23.441h9.394l-4.379-12Z" transform="translate(0 -1.193)"/><path class="a" d="M119.47,38.735,108.736,11.074l-.091,20.309v1.452a16.031,16.031,0,0,0,.249,3.245,5.9,5.9,0,0,0,.817,2h-5.287q1.316-1.157,1.906-7.409t.59-19.118a5.766,5.766,0,0,0-.261-1.906,3.708,3.708,0,0,0-.9-1.362h5.2a1.411,1.411,0,0,1,.84.17,1.6,1.6,0,0,1,.386.669l8.4,22.442L129.93,9.35a1.856,1.856,0,0,1,.556-.851,1.753,1.753,0,0,1,.987-.216h4.538a5.468,5.468,0,0,0-.851,2.439,33.416,33.416,0,0,0-.261,4.822q0,11.664.488,16.327t1.69,6.206h-6.83a6.8,6.8,0,0,0,.942-2.485,24.234,24.234,0,0,0,.284-4.255c0-.015-.008-.113-.023-.295q-.046-1.77-.091-3.721l-.272-16.247Z" transform="translate(-68.31 -1.193)"/><path class="a" d="M222.884,38.077a6.011,6.011,0,0,0,.9-3.131q.26-2.451.261-10.483V22.556q0-8.759-.261-11.176a5.937,5.937,0,0,0-.9-3.1h6.308a5.648,5.648,0,0,0-.9,3.018q-.261,2.36-.261,10.052v3.608q0,7.715.261,10.086a5.668,5.668,0,0,0,.9,3.029Z" transform="translate(-149.645 -1.193)"/><path class="a" d="M255.9,35.682v-5.06a9.4,9.4,0,0,0,8.373,4.72,6.152,6.152,0,0,0,4.391-1.589,5.328,5.328,0,0,0,1.69-4.062,5.429,5.429,0,0,0-1.135-3.4,11.953,11.953,0,0,0-3.835-2.927l-.613-.34q-7.852-4.289-7.851-8.714A6.869,6.869,0,0,1,259.6,8.713a10.764,10.764,0,0,1,6.989-2.167q1.383,0,3.029.091t1.918.091c.06,0,.185.008.374.023s.352.023.488.023h1.18v4.833a5.755,5.755,0,0,0-2.462-2.246,8.3,8.3,0,0,0-3.687-.772,7.429,7.429,0,0,0-4.584,1.271,4.074,4.074,0,0,0-1.679,3.427q0,3.2,6.15,6.444.2.091.295.136a18.324,18.324,0,0,1,5.514,4.039,6.886,6.886,0,0,1,1.657,4.516,8.139,8.139,0,0,1-3.075,6.388,11.2,11.2,0,0,1-7.568,2.644,18.312,18.312,0,0,1-3.812-.431A30.921,30.921,0,0,1,255.9,35.682Z" transform="translate(-172.315)"/><path class="a" d="M336.718,21.762a4.3,4.3,0,0,0,2.02-.9,21.524,21.524,0,0,0,2.814-2.621q4.13-4.447,5.48-6.3a5.664,5.664,0,0,0,1.35-2.825V8.9a1.538,1.538,0,0,0-.034-.374,2.306,2.306,0,0,0-.08-.238h6.15a38.355,38.355,0,0,0-5.094,4.55q-3.6,3.6-8.43,8.974l7.488,10.6q.227.318.636.908a23.04,23.04,0,0,0,4.062,4.765h-4.606a2.517,2.517,0,0,1-1.112-.2,2.1,2.1,0,0,1-.749-.681L337.649,23.35h-.93v3.2q0,6.831.261,8.816a5.332,5.332,0,0,0,.9,2.711h-6.309a6.006,6.006,0,0,0,.9-3.131q.261-2.451.261-10.483V22.556q0-8.759-.261-11.176a5.931,5.931,0,0,0-.9-3.1h6.309a5.314,5.314,0,0,0-.9,2.7q-.261,1.974-.261,8.782Z" transform="translate(-224.268 -1.193)"/><path class="a" d="M398.689,38.077a41.905,41.905,0,0,0,4.243-6.376,101.286,101.286,0,0,0,4.493-9.372q1.974-4.606,3.256-8.237a22.194,22.194,0,0,0,1.282-4.357,2.866,2.866,0,0,0-.091-.715,4.289,4.289,0,0,0-.272-.738h5.764q3.381,11.256,6.376,18.993t5.151,10.8h-5.083l-4.674-12.911H408.287l-2,4.879-.045.113q-1.861,4.471-1.861,6.49a4.2,4.2,0,0,0,.057.669,6.917,6.917,0,0,0,.17.76Zm10.347-14.636h9.394l-4.379-12Z" transform="translate(-270.355 -1.193)"/></g></svg>