<svg xmlns="http://www.w3.org/2000/svg" width="140.742" height="43.46" viewBox="0 0 140.742 43.46"><defs><style>.a{fill:#3e3e3e;}</style></defs><g transform="translate(-632 -763.391)"><path class="a" d="M136.949,76.2H121.172c-.622,0-.84.28-.619.878a6.618,6.618,0,0,0,5.911,4.674,9.125,9.125,0,0,0,1,.048h5.723V84.25a1.957,1.957,0,0,1-.213.022c-2.055,0-4.111.045-6.157-.019a9,9,0,0,1-8.978-7.836,10.416,10.416,0,0,1,.591-5.851,8.65,8.65,0,0,1,6.17-5.253,10.169,10.169,0,0,1,8.587,1.433,8.645,8.645,0,0,1,3.651,5.991c.034.2.076.4.112.593Zm-9.626-2.474h6.388c.481,0,.73-.26.647-.688a6.436,6.436,0,0,0-2.329-3.965,7.6,7.6,0,0,0-5.487-1.565,6.753,6.753,0,0,0-6.185,5.391c-.123.582.073.839.663.839Z" transform="translate(635.788 710.045)"/><path class="a" d="M51.775,96.8V64.984a.561.561,0,0,1,.106-.034c1.642,0,3.291-.039,4.928.045a8.936,8.936,0,0,1,8.458,7.142,10.145,10.145,0,0,1-1.455,8.235,8.635,8.635,0,0,1-6.075,3.714c-.314.05-.63.076-.946.11h-.3V81.814a20.229,20.229,0,0,0,2.2-.56,6.355,6.355,0,0,0,4.01-4.3A7.347,7.347,0,0,0,61.522,70a6.553,6.553,0,0,0-4.894-2.536c-.594-.05-1.195-.03-1.791-.034a.541.541,0,0,0-.594.481.628.628,0,0,0,0,.079V96.794Z" transform="translate(627.971 710.047)"/><path class="a" d="M35.141,84.232H32.67V70.091a4.813,4.813,0,0,1,1.906-4.1,5.543,5.543,0,0,1,6.554.13c.447.36.559.36,1.013,0a5.4,5.4,0,0,1,7.574.951l.037.048a5.061,5.061,0,0,1,.84,2.887V83.98a1.67,1.67,0,0,1-.015.261H48.12V70.064a2.5,2.5,0,0,0-1.659-2.421,2.729,2.729,0,0,0-3.009.761,2.7,2.7,0,0,0-.573,1.8V84.232H40.394V70.091a2.408,2.408,0,0,0-1.368-2.326,2.641,2.641,0,0,0-2.838.21A2.43,2.43,0,0,0,35.163,70.1V83.848Z" transform="translate(625.705 710.052)"/><path class="a" d="M87.593,81.79v2.446a.415.415,0,0,1-.1.025c-2.13,0-4.259.048-6.388-.019a8.981,8.981,0,0,1-6.114-2.469,9.194,9.194,0,0,1-2.715-5.188,10.448,10.448,0,0,1,.675-6.271,8.65,8.65,0,0,1,6.034-4.99,10.18,10.18,0,0,1,8.608,1.427,8.4,8.4,0,0,1,3.638,5.935,32.394,32.394,0,0,1,.16,3.375.6.6,0,0,1-.031.132H75.374a.513.513,0,0,0-.509.52.5.5,0,0,0,.031.171,6.568,6.568,0,0,0,5.166,4.735,8.91,8.91,0,0,0,1.724.162c1.81.019,3.624,0,5.434,0Zm-5.827-8.076h6.39c.466,0,.691-.248.607-.688a6.409,6.409,0,0,0-2.357-3.977,7.557,7.557,0,0,0-5.521-1.531A6.716,6.716,0,0,0,74.759,72.9c-.123.56.07.812.647.812Z" transform="translate(630.378 710.046)"/><path class="a" d="M9.091,85.481V83.027h.321c2.8,0,5.6.025,8.4,0a6.127,6.127,0,0,0,4.459-1.774A5.778,5.778,0,0,0,23.7,78.175a5.318,5.318,0,0,0-1.4-5.063,14.623,14.623,0,0,0-1.917-1.491c-2.059-1.467-4.139-2.905-6.2-4.377a30.4,30.4,0,0,1-2.583-2,6.406,6.406,0,0,1-1.058-9c.081-.1.163-.2.249-.3a4.053,4.053,0,0,1,3.064-1.36c3.194-.028,6.39,0,9.582,0h.179v2.429h-8.9a3.094,3.094,0,0,0-2.169.762,3.171,3.171,0,0,0-.917,2.27,3.909,3.909,0,0,0,1.267,3.021A18.328,18.328,0,0,0,15.9,65.447c2.393,1.679,4.8,3.332,7.161,5.037A8.032,8.032,0,0,1,25.9,79.52a8.383,8.383,0,0,1-1.5,3A8.2,8.2,0,0,1,19.447,85.3a10.405,10.405,0,0,1-1.864.162c-2.717.017-5.434,0-8.155,0Z" transform="translate(622.909 708.817)"/><path class="a" d="M119.631,65.15H115.5c-.47,0-.666.192-.669.658V85.464h-2.477V60.437a5.481,5.481,0,0,1,2.958-5.149,4.742,4.742,0,0,1,2.163-.6c.708-.022,1.416,0,2.149,0v2.426l-.31.013a16.564,16.564,0,0,0-1.928.059,2.988,2.988,0,0,0-2.555,3.039v1.819c0,.445.207.643.66.643h4.14Z" transform="translate(635.157 708.83)"/><path class="a" d="M98.633,54.655V82.3c0,.475.191.666.661.666h4.995v2.48h-8.1V54.666Z" transform="translate(633.24 708.827)"/><path class="a" d="M66.863,54.65H69.3V85.495H66.863Z" transform="translate(629.761 708.826)"/><path class="a" d="M109.019,84.207h-2.454v-19.2h2.454Z" transform="translate(634.47 710.055)"/><path class="a" d="M27.378,65H29.8V84.219H27.378Z" transform="translate(625.078 710.054)"/><path class="a" d="M29.819,54.65V57.1H27.378V54.65Z" transform="translate(625.078 708.826)"/><path class="a" d="M108.992,57.1h-2.437V54.657h2.437Z" transform="translate(634.469 708.827)"/></g></svg>