<svg xmlns="http://www.w3.org/2000/svg" width="35.568" height="54.185" viewBox="0 0 35.568 54.185"><defs><style>.a{fill:#3e3e3e;}</style></defs><g transform="translate(-15.404 -17.109)"><path class="a" d="M31.971,43.755a7.968,7.968,0,0,1-6.079-3.869c-1.068-2-1.336-3.137-1.336-7.548a38.644,38.644,0,0,1,.268-6.151c1-6.478,6.078-7.48,7.344-7.48,4.945,0,6.88,3.141,6.88,12.757,0,3.519-.054,4.956-.573,6.75l1.717,4.135c3.56-2.564,4.936-6.443,4.936-10.682,0-10.549-7.284-14.557-12.426-14.557a9.221,9.221,0,0,0-8.146,5.139l-.138.077V17.109a22.619,22.619,0,0,1-3.8.531,35.518,35.518,0,0,1-3.812.137H15.4v1.53h3.937V57.784H15.4v1.538H29.092V57.784H24.557V40.617h.131a8.365,8.365,0,0,0,7.745,4.474,5.334,5.334,0,0,0,1.641-.142L33.54,43.7c-.815.212-.715.056-1.569.056"/><path class="a" d="M378.382,508.26a1.751,1.751,0,1,1-1.756-1.749,1.753,1.753,0,0,1,1.756,1.749" transform="translate(-332.225 -452.302)"/><path class="a" d="M199.5,182.94H194.26v1.536h2.619l-6.4,17.965-2.707-6.5-1.486-3.587-3.289-7.875h2.333V182.94h-8.461l5.7,13.707.54,1.288,4.743,11.453a82.634,82.634,0,0,1-2.9,7.749c-.877,2.333-1.55,4.071-2.563,4.071-.739,0-.808-2.47-3.5-2.47a2.719,2.719,0,0,0-2.773,2.871c0,1.607,1.819,2.944,3.235,2.944,4.318,0,6.268-4.28,8.63-10.691Zm-20.512,40.93a2.29,2.29,0,1,1,2.289-2.287,2.286,2.286,0,0,1-2.289,2.287" transform="translate(-148.532 -153.26)"/></g></svg>