<svg xmlns="http://www.w3.org/2000/svg" width="140.38" height="60.491" viewBox="0 0 140.38 60.491"><defs><style>.a{fill:#3e3e3e;}</style></defs><g transform="translate(-9.859 -10.521)"><path class="a" d="M229.729,139.348c.474-.151.867-.309,1.275-.4,1.594-.351,1.863-.611,1.882-2.284.035-3,.011-5.994.011-8.991,0-1.931.024-3.863-.008-5.794-.025-1.534-.275-1.788-1.781-2.155-.456-.111-.9-.267-1.351-.4l.03-.407a3.61,3.61,0,0,1,1.014-.319c4.262-.015,8.537-.2,12.785.046,10.12.592,12.529,10.552,9.121,16.113a10.781,10.781,0,0,1-7.622,4.973,22.3,22.3,0,0,1-3.769.33c-3.263.045-6.527.031-9.79,0C230.941,140.053,230.183,140.364,229.729,139.348Zm7.368-10.009h0c0,2.523-.063,5.048.023,7.568.052,1.522.453,1.877,1.9,2.039,5.185.58,9.873-1.931,10.46-7.817.63-6.317-2.2-11.883-9.9-11.5-1.951.1-2.384.417-2.456,2.338C237.028,124.423,237.1,126.883,237.1,129.339Z" transform="translate(-155.605 -76.427)"/><path class="a" d="M95.88,17.579c4.9-5.607,8.324-7.554,12-6.954-.165,1.9-.44,3.786-.471,5.673-.071,4.33-.019,8.661-.025,12.992,0,2.3-.01,2.3.966,3.984h-4.378c1.972-2.03,1.227-4.186.592-6.235-1.132-3.651-3.664-6.082-7.327-7.733-.414.954-.84,1.833-1.182,2.744a17.685,17.685,0,0,0-.858,7.483,6.274,6.274,0,0,0,2.589,4.606c-1.249.554-2.317,1.034-3.393,1.5a.9.9,0,0,1-.576.1c-1.838-.677-3.766-1.209-5.029-2.886-.025-.033.027-.124.084-.346,2.107.6,2.675-.934,3.174-2.476.327-1.01.531-2.06.8-3.089.694-2.629,1.4-5.255,2.147-8.077a5.649,5.649,0,0,0-4.779.739c-.677.383-1.236,1-.814,1.8.466.879,1.2.493,1.841-.179-.062,1.807-.6,2.468-1.812,2.466a2.142,2.142,0,0,1-2.1-2.014,2.954,2.954,0,0,1,1.428-2.692,8.156,8.156,0,0,1,4.91-1.4C94.4,17.565,95.133,17.579,95.88,17.579Zm1.848.6A18.459,18.459,0,0,1,104.82,24.1c.422-2.5.352-10.074-.1-11.725A12.512,12.512,0,0,0,97.728,18.183Z" transform="translate(-54.822 0)"/><path class="a" d="M9.859,119.22c1.93-.618,9.462-.643,11.218-.161-.042.774-.649.668-1.138.737-1.938.274-2.245.516-2.26,2.327q-.061,7.4,0,14.793c.011,1.485.517,1.994,2.051,2.162a10.685,10.685,0,0,0,9.454-3.241c.456-.48.723-1.373,1.958-1.027l-1.955,5.279c-6.316,0-12.5,0-18.674-.019-.1,0-.192-.284-.39-.6a10.327,10.327,0,0,1,1.14-.324c2.05-.323,2.3-.594,2.342-2.711.02-1,0-2,0-3,0-3.532.01-7.063,0-10.595-.01-2.552-.08-2.608-2.585-3.07A6.394,6.394,0,0,1,9.859,119.22Z" transform="translate(0 -76.577)"/><path class="a" d="M437.148,146.8c1.523-.816,7.035-.81,8.458-.022a7.3,7.3,0,0,1-.829.492c-1.228.516-1.464.854-.978,2.075.757,1.9,1.638,3.755,2.663,6.073a30.261,30.261,0,0,0,2.221-5.584,2.079,2.079,0,0,0-1.037-2.559c-.217-.113-.3-.476-.476-.765a9.93,9.93,0,0,1,5.467.093c-.018.129.01.33-.062.376-2.227,1.426-3.032,3.772-3.947,6.051-1.313,3.27-2.564,6.568-4,9.783a13.08,13.08,0,0,1-2.351,3.386,2.841,2.841,0,0,1-3.16.6,1.572,1.572,0,0,1-1.156-1.841,1.734,1.734,0,0,1,1.882-1.139,4.332,4.332,0,0,1,.763.217c1.787.542,2.156.367,2.954-1.213a4.654,4.654,0,0,0,.077-4.689c-1.162-2.16-2.019-4.483-3.041-6.72C439.793,149.656,439.413,147.6,437.148,146.8Z" transform="translate(-302.398 -96.009)"/><path class="a" d="M144.4,146.606c1.3-.523,5.8-.609,8.346-.08a5.028,5.028,0,0,1-1.139.742c-1.048.26-1.231.887-.892,1.8.185.5.354,1,.569,1.489.671,1.508,1.36,3.009,2.212,4.887.789-1.943,1.527-3.5,2.049-5.128.406-1.264.332-2.532-1.162-3.2-.09-.04-.126-.217-.171-.336a1.988,1.988,0,0,1,0-.405c1.716-.379,3.474-.112,5.435-.186-.173.482-.195.969-.417,1.092A6.285,6.285,0,0,0,156.6,150.7c-1.578,3.809-3.087,7.647-4.689,11.445a15.818,15.818,0,0,1-1.822,3.3,3.433,3.433,0,0,1-3.487,1.483c-1.085-.195-1.869-1.048-1.728-1.85a1.836,1.836,0,0,1,2.383-1.183c.256.064.495.2.748.277,1.237.387,1.653.26,2.275-.859.927-1.67,1.387-3.253.326-5.211-1.482-2.74-2.583-5.687-3.829-8.553-.457-1.05-.889-2.09-2.156-2.426C144.513,147.085,144.473,146.783,144.4,146.606Z" transform="translate(-95.215 -95.997)"/><path class="a" d="M327.72,150.859c.323-4.051-.5-4.972-3.312-3.7.056.329.1.7.184,1.059a1.424,1.424,0,0,1-.9,1.785,3.251,3.251,0,0,1-2.07-.036,1.18,1.18,0,0,1-.454-1.863,5.036,5.036,0,0,1,1.561-1.486,8.144,8.144,0,0,1,5.8-.813,3.56,3.56,0,0,1,3,3.691c.044,2.652.011,5.306.011,8.1H333.6a10.426,10.426,0,0,1-1.212,1.344c-1.613,1.168-2.839.947-4.445-.709a32.352,32.352,0,0,1-3.714,1.35,3.285,3.285,0,0,1-3.426-1.541,3.015,3.015,0,0,1,.706-3.461,11.731,11.731,0,0,1,1.925-1.405c.736-.45,1.529-.8,2.292-1.212C326.372,151.616,327.005,151.255,327.72,150.859Zm.113,1.282c-1.74.869-3.042,1.607-3.333,3.324a1.669,1.669,0,0,0,1.236,2.138,1.859,1.859,0,0,0,2.088-1.8C327.865,154.7,327.833,153.582,327.833,152.141Z" transform="translate(-219.864 -95.604)"/><path class="a" d="M115.14,118.68a28.159,28.159,0,0,1,5.846-1.867c0,.934,0,1.652,0,2.37,0,5.318.035,10.636-.022,15.953-.015,1.457.144,2.626,1.85,2.919.056.01.077.232.112.356-1.271.611-6,.654-7.692.027.17-.214.3-.542.465-.558,1.451-.141,1.595-1.1,1.586-2.278-.029-3.922-.01-7.844-.01-11.766C117.275,120.777,117.275,120.777,115.14,118.68Z" transform="translate(-74.509 -75.224)"/><path class="a" d="M407.517,146.747c.039.541.106,1.132.117,1.724.01.522-.042,1.045-.086,1.976-.6-.474-.977-.746-1.325-1.052-.844-.742-1.625-1.566-2.529-2.224a2.169,2.169,0,0,0-3.216.509c-.391.633,0,1.3.659,1.659.813.449,1.649.86,2.488,1.261,1.019.488,2.092.877,3.069,1.435,2.776,1.587,2.918,4.611.337,6.5a5.475,5.475,0,0,1-3.946,1.107c-1.556-.194-3.08-.651-4.639-1v-4.321a5.716,5.716,0,0,1,1.224.713,18.384,18.384,0,0,0,1.966,2.23,6.783,6.783,0,0,0,2.664,1.17,1.588,1.588,0,0,0,1.836-1.208c.27-.88-.279-1.393-.958-1.748-1-.523-2.044-.962-3.05-1.473a13.647,13.647,0,0,1-2.418-1.364c-2.491-2-1.972-5.28.988-6.549C402.448,145.347,405.177,145.592,407.517,146.747Z" transform="translate(-274.778 -95.646)"/><path class="a" d="M374.671,146.2v7.9c0,.533.025,1.068,0,1.6-.088,1.517-.156,3.008,2.292,3.158-1.4,1.265-2.747.694-3.941.777-1.221.085-2.455-.032-3.649-.061-.024-.377-.072-.6-.034-.618,1.364-.571,1.694-1.62,1.593-3.013a37.438,37.438,0,0,1-.008-4.4c.067-1.486-.121-2.8-1.684-3.508A9.957,9.957,0,0,1,374.671,146.2Z" transform="translate(-254.337 -96.023)"/><path class="a" d="M259.922,14.31l-1.614.343a11.9,11.9,0,0,1,3.859-3.9c0,.906,0,1.741,0,2.575,0,5.594-.03,11.188.02,16.782a22.215,22.215,0,0,0,.53,3.3h-3.661c1.233-1.663.845-3.509.856-5.293C259.941,23.6,259.922,19.071,259.922,14.31Z" transform="translate(-175.831 -0.167)"/><path class="a" d="M177.278,34.744c-.136,1.719-1.443,1.838-2.134,2.593-1.875-1.242-2.221-2.976-2.253-4.8-.047-2.722-.015-5.445-.016-8.168,0-.659,0-1.318,0-1.8-.487-.929-1.8.094-1.982-1.3l2.053-.522-.644-2.576L175.1,15.22v5.6l2.205.348c-.182,1.508-1.466.524-1.984,1.074-.6,3.592-.3,11.24.572,12.8Z" transform="translate(-113.966 -3.326)"/><path class="a" d="M86.137,146.816,91.742,145v2.46c0,2.6.021,5.2-.009,7.794-.015,1.277.073,2.421,1.679,2.665.094.014.144.321.337.788-2.491.2-4.832.084-7.448.08.267-.481.371-.953.589-1.013.99-.273,1.167-.972,1.164-1.836-.006-2.065-.068-4.133.023-6.195C88.136,148.413,87.127,147.83,86.137,146.816Z" transform="translate(-53.983 -95.175)"/><path class="a" d="M378.811,37.254c.476-.776,1.706-1.058.993-2.058-.6-.841-1.524-.678-2.369-.394a4.15,4.15,0,0,0-2.654,3.648c-.042,2.795-.062,5.592.024,8.385a8.747,8.747,0,0,0,.763,2.283h-4.06c1.376-1.126,1.109-2.489,1.116-3.786.011-2.063-.063-4.129.022-6.189.076-1.822-.268-3.325-2.47-4.071l2.035-2.107,2.375,2.807c.356-.356.746-.777,1.169-1.164a4.465,4.465,0,0,1,4.01-1.327,4.208,4.208,0,0,1,2,1.13,1.923,1.923,0,0,1-.046,2.562C380.927,37.886,380,37.774,378.811,37.254Z" transform="translate(-255.001 -15.884)"/><path class="a" d="M294.416,51.183h-3.785c1.575-2.143.944-4.449.9-6.625-.044-2.149.793-4.468-.912-6.654l3.218-2.1v3.027c0,3.049-.043,6.1.025,9.148A22.288,22.288,0,0,0,294.416,51.183Z" transform="translate(-198.698 -17.897)"/><path class="a" d="M375.518,124.7a2.25,2.25,0,0,1-2.185-2.114,2.327,2.327,0,0,1,2.293-2.243,2.384,2.384,0,0,1,2.19,2.16A2.231,2.231,0,0,1,375.518,124.7Z" transform="translate(-257.235 -77.725)"/><path class="a" d="M93.241,124.707a2.192,2.192,0,0,1-2.192-2.131,2.322,2.322,0,0,1,2.16-2.215,2.4,2.4,0,0,1,2.307,2.289A2.224,2.224,0,0,1,93.241,124.707Z" transform="translate(-57.459 -77.735)"/><path class="a" d="M295.72,17.219a1.778,1.778,0,0,1-3.557-.011,1.8,1.8,0,0,1,1.772-1.769A1.856,1.856,0,0,1,295.72,17.219Z" transform="translate(-199.791 -3.481)"/><path class="a" d="M317.106,38.488a9.063,9.063,0,0,1,1.473-2.714,7.354,7.354,0,0,1,5.96-2.809,10.767,10.767,0,0,1,5.155,1.576q-.873,1.293-2.406,3.583t-3.07,4.582q-1.537,2.291-2.411,3.583a4.327,4.327,0,0,0,1.692,1.057,7.373,7.373,0,0,0,2.162.27,6.534,6.534,0,0,0,2.445-.385,8.616,8.616,0,0,0,1.845-1.058,6.837,6.837,0,0,1,1.327-.835,5.231,5.231,0,0,1-2.333,3.057,8.165,8.165,0,0,1-4.646,1.259,6.377,6.377,0,0,1-1.9-.235,8.07,8.07,0,0,1-1.344-.561,2.318,2.318,0,0,0-.822-.326q-.12,0-.625.608a1.874,1.874,0,0,0-.505,1.182,1.1,1.1,0,0,0,.12.591.894.894,0,0,0,.347.3,1.1,1.1,0,0,1,.338.244.685.685,0,0,1,.111.445v.916q-2.243-.051-2.243-1.824A4.681,4.681,0,0,1,318.438,49a9.24,9.24,0,0,0,.664-1.379q0-.146-.48-.689a11.058,11.058,0,0,1-.894-1.164,6.782,6.782,0,0,1-.762-1.752,9.286,9.286,0,0,1-.347-2.706A8.844,8.844,0,0,1,317.106,38.488Zm4.072-3.575a6.637,6.637,0,0,0-1.952,2.226,6.129,6.129,0,0,0-.784,3.044,7.989,7.989,0,0,0,.479,2.4,6.037,6.037,0,0,0,1.653,2.547,21.1,21.1,0,0,0,2.71-3.4,39.923,39.923,0,0,0,2.171-3.7,11.2,11.2,0,0,0,.873-1.914,1.707,1.707,0,0,0-.9-1.439,3.643,3.643,0,0,0-2.047-.591A3.873,3.873,0,0,0,321.178,34.914Z" transform="translate(-217.098 -15.884)"/><path class="a" d="M203.25,37.3a9.069,9.069,0,0,1,1.473-2.715,7.356,7.356,0,0,1,5.96-2.809,10.768,10.768,0,0,1,5.155,1.576q-.873,1.294-2.406,3.584t-3.07,4.581q-1.537,2.291-2.41,3.584a4.33,4.33,0,0,0,1.691,1.057,7.375,7.375,0,0,0,2.162.27,6.532,6.532,0,0,0,2.445-.385,8.616,8.616,0,0,0,1.845-1.058,6.857,6.857,0,0,1,1.328-.835,5.233,5.233,0,0,1-2.334,3.057,8.162,8.162,0,0,1-4.645,1.259,6.369,6.369,0,0,1-1.9-.235,8.071,8.071,0,0,1-1.344-.561,2.314,2.314,0,0,0-.822-.326q-.12,0-.625.608a1.872,1.872,0,0,0-.505,1.182,1.1,1.1,0,0,0,.12.591.893.893,0,0,0,.347.3,1.1,1.1,0,0,1,.338.244.685.685,0,0,1,.111.445v.916q-2.243-.051-2.243-1.824a4.684,4.684,0,0,1,.663-1.995,9.269,9.269,0,0,0,.664-1.379q0-.146-.48-.69a11.048,11.048,0,0,1-.895-1.164,6.793,6.793,0,0,1-.762-1.752,9.288,9.288,0,0,1-.347-2.706A8.843,8.843,0,0,1,203.25,37.3Zm4.072-3.575a6.635,6.635,0,0,0-1.952,2.226A6.128,6.128,0,0,0,204.586,39a7.989,7.989,0,0,0,.479,2.4,6.035,6.035,0,0,0,1.653,2.547,21.081,21.081,0,0,0,2.71-3.4,40.067,40.067,0,0,0,2.171-3.7,11.211,11.211,0,0,0,.873-1.914,1.707,1.707,0,0,0-.9-1.439,3.645,3.645,0,0,0-2.047-.591A3.874,3.874,0,0,0,207.322,33.726Z" transform="translate(-136.52 -15.043)"/></g></svg>