<svg xmlns="http://www.w3.org/2000/svg" width="187.791" height="35.402" viewBox="0 0 187.791 35.402"><defs><style>.a{fill:#3e3e3e;fill-rule:evenodd;}</style></defs><g transform="translate(-4.924 -9.799)"><path class="a" d="M107.873,90.916V84.159h2.258a2.5,2.5,0,0,1,1.641.451,1.755,1.755,0,0,1,.507.7,2.346,2.346,0,0,1,.17.882,1.891,1.891,0,0,1-.587,1.433,2.227,2.227,0,0,1-1.611.539h-1.534v2.754h-.843m2.275-3.447a1.506,1.506,0,0,0,1.079-.359,1.2,1.2,0,0,0,.364-.918,1.277,1.277,0,0,0-.467-1.071,1.441,1.441,0,0,0-.9-.256h-1.5v2.6Zm10.728,3.447L119.627,88h-1.881v2.92H116.9V84.159h2.541a2.479,2.479,0,0,1,1.523.4,1.763,1.763,0,0,1,.723,1.492,1.84,1.84,0,0,1-.334,1.083,1.639,1.639,0,0,1-.913.647l1.32,3.131ZM119.344,87.3a2.567,2.567,0,0,0,.67-.073,1.043,1.043,0,0,0,.486-.3,1.2,1.2,0,0,0,.347-.888,1.069,1.069,0,0,0-.467-.948,1.711,1.711,0,0,0-.933-.211h-1.7V87.3Zm11.435,3.612h-4.365V84.159h4.277v.722h-3.434v2.153h2.724v.677h-2.724v2.468h3.521Zm5.162,0h-.722V84.159h1.262l2.034,5.416,2.019-5.416h1.231v6.757h-.843v-5.9h-.057l-2.127,5.9h-.569l-2.2-5.9h-.03Zm10.778-6.757h.843v6.757h-.843Zm10.533,0v4.274a4.932,4.932,0,0,1-.093,1.036,1.824,1.824,0,0,1-.389.785,2.229,2.229,0,0,1-1.836.752,2.4,2.4,0,0,1-1.823-.632,1.993,1.993,0,0,1-.423-.848,5.085,5.085,0,0,1-.1-1.1V84.159h.843v4.274a2.372,2.372,0,0,0,.27,1.31,1.861,1.861,0,0,0,2.514.045,1.209,1.209,0,0,0,.279-.574,4.767,4.767,0,0,0,.052-.78V84.159Zm5.689,6.757h-.723V84.159h1.262l2.034,5.416,2.019-5.416h1.232v6.757h-.842v-5.9h-.058l-2.127,5.9h-.569l-2.2-5.9h-.029ZM179.393,88.7a5.751,5.751,0,0,1-.066.941,1.54,1.54,0,0,1-.323.7,1.918,1.918,0,0,1-1.628.664,3.72,3.72,0,0,1-.994-.135v-.693a4.21,4.21,0,0,0,.873.106,1.2,1.2,0,0,0,1.067-.394,1.339,1.339,0,0,0,.228-.87V84.159h.842Zm9.316,2.213h-4.365V84.159h4.276v.722h-3.434v2.153h2.724v.677h-2.724v2.468h3.522Zm8.26,0-.675-1.972h-2.5l-.616,1.972h-.7l2.2-6.757h.964l2.212,6.757Zm-1.9-5.854L194.021,88.3h2.092ZM206.2,90.916l-3.449-5.9v5.9h-.708V84.159h1.069l3.191,5.508V84.159h.723v6.757Zm6.063-1.989a1.865,1.865,0,0,0,.426.758,1.8,1.8,0,0,0,.692.452,2.592,2.592,0,0,0,.883.148,1.983,1.983,0,0,0,1.207-.316,1.064,1.064,0,0,0,.421-.888q0-.824-1.161-1.084l-1.126-.283a2.856,2.856,0,0,1-1.222-.545,1.751,1.751,0,0,1,.131-2.641,2.734,2.734,0,0,1,1.63-.475,2.628,2.628,0,0,1,1.5.426,2.293,2.293,0,0,1,.9,1.232l-.77.208a1.3,1.3,0,0,0-.59-.871,1.867,1.867,0,0,0-1.069-.333,1.84,1.84,0,0,0-.993.283.9.9,0,0,0-.449.8.79.79,0,0,0,.3.71,3.174,3.174,0,0,0,.923.374l1.021.228a3.2,3.2,0,0,1,1.234.539,1.648,1.648,0,0,1,.635,1.34,1.829,1.829,0,0,1-.767,1.535,2.859,2.859,0,0,1-1.762.481A2.643,2.643,0,0,1,211.5,89.08Z" transform="translate(-63.506 -45.805)"/><path class="a" d="M237.248,15.6v8.238l1.913.058a7.926,7.926,0,0,0,2.172-.261,3.705,3.705,0,0,0,1.447-.75,3.255,3.255,0,0,0,.857-1.16,3.764,3.764,0,0,0,.289-1.51,4.561,4.561,0,0,0-.289-1.606,5.663,5.663,0,0,0-.882-1.532h0a3.351,3.351,0,0,0-1.542-1.053,7.571,7.571,0,0,0-2.532-.367l-1.432-.058m-4.742-.831v-.433H239q1.109,0,2,.025.854.024,1.381.072a5.825,5.825,0,0,1,1.125.212,7.338,7.338,0,0,1,1.143.44,4.747,4.747,0,0,1,1.042.67,3.756,3.756,0,0,1,1.22,1.975A5.178,5.178,0,0,1,247.056,19a4.668,4.668,0,0,1-.266,1.554A5.556,5.556,0,0,1,246,22.022a7.08,7.08,0,0,1-1.254,1.3,9.127,9.127,0,0,1-1.27.858l1.28,1.773q.245.387.9,1.244c.928,1.219,1.821,3.4,3.037,4.643.9.917,2.031,1.865,3.443,1.436a6.825,6.825,0,0,0,1.228-.529l.474-.257.353.728-.223.166a8.364,8.364,0,0,1-6.119.752v0c-2.309-.72-4.06-4.247-5.45-6.111a.5.5,0,0,1-.071-.1h0l-.016-.032-1.988-2.754-1.655.047-.013,0-1.408-.058v7.234a3.62,3.62,0,0,0,.056.7,1.08,1.08,0,0,0,.138.378.4.4,0,0,0,.216.123,3.018,3.018,0,0,0,.785.133h.434v.731h-6.371v-.713l.574-.016a2.818,2.818,0,0,0,.7-.1.421.421,0,0,0,.211-.112l0,0a1.014,1.014,0,0,0,.127-.388,5.062,5.062,0,0,0,.056-.842V16.514a3.806,3.806,0,0,0-.046-.626h0a2.009,2.009,0,0,0-.133-.47.342.342,0,0,0-.2-.157,2.08,2.08,0,0,0-.7-.1l-.588,0ZM104.609,34.01v-.377h.434a2.943,2.943,0,0,0,.711-.069v0a.526.526,0,0,0,.258-.125.758.758,0,0,0,.138-.3,2.547,2.547,0,0,0,.062-.617V16.311a3.5,3.5,0,0,0-.052-.653,1.116,1.116,0,0,0-.125-.367.475.475,0,0,0-.221-.1,3.371,3.371,0,0,0-.812-.1l-.424-.009v-.751h6.6v.762h-.434a3.806,3.806,0,0,0-.6.038.907.907,0,0,0-.287.084.736.736,0,0,0-.166.124.373.373,0,0,0-.076.109,1.363,1.363,0,0,0-.05.311c-.016.174-.023.4-.023.686V30.4a3.88,3.88,0,0,0,.207,1.36,1.75,1.75,0,0,0,.565.8h0a2.741,2.741,0,0,0,1.081.455,8.453,8.453,0,0,0,1.816.166h2.609a5.188,5.188,0,0,0,1.5-.189,2.334,2.334,0,0,0,.952-.528,2.412,2.412,0,0,0,.581-1.046,7.49,7.49,0,0,0,.282-1.858l.017-.376h1.057V34.4h-15.6ZM218.474,15.421v7.932h4.895a4.32,4.32,0,0,0,2.537-.515,3.15,3.15,0,0,0,.95-2.392h.6V27.44h-.6a7.1,7.1,0,0,0-.459-1.887,1.985,1.985,0,0,0-.967-.813,5.4,5.4,0,0,0-2.062-.3h-4.895v6.62a5.755,5.755,0,0,0,.128,1.619.978.978,0,0,0,.459.459,3.011,3.011,0,0,0,1.246.172h3.76a11.331,11.331,0,0,0,2.732-.237,4.119,4.119,0,0,0,1.632-.933,11.447,11.447,0,0,0,2.078-2.765h.67L229.264,34.4H212.138v-.545h.788a3.388,3.388,0,0,0,1.492-.343,1.278,1.278,0,0,0,.715-.711,6.229,6.229,0,0,0,.19-1.943V17.812a3.924,3.924,0,0,0-.425-2.346,2.726,2.726,0,0,0-1.972-.59h-.788v-.545h17.132l.235,4.42h-.637a6.572,6.572,0,0,0-.76-2.195,2.622,2.622,0,0,0-1.234-.913,8.244,8.244,0,0,0-2.308-.222Zm-15.105-.551v-.539h7.724v.539h-.823a2.291,2.291,0,0,0-1.989.978,4.106,4.106,0,0,0-.337,2.105V26a12.967,12.967,0,0,1-.652,4.63,5.981,5.981,0,0,1-2.575,2.824,9.912,9.912,0,0,1-5.21,1.177,10.622,10.622,0,0,1-5.448-1.127,6.2,6.2,0,0,1-2.635-3.028,15.153,15.153,0,0,1-.52-4.885V17.834a3.589,3.589,0,0,0-.558-2.395,2.438,2.438,0,0,0-1.8-.569h-.823v-.539H197.2v.539h-.84a2.273,2.273,0,0,0-1.939.774,3.952,3.952,0,0,0-.4,2.19v8.646a17.515,17.515,0,0,0,.232,2.649,5.365,5.365,0,0,0,.851,2.325,4.644,4.644,0,0,0,1.774,1.377,6.715,6.715,0,0,0,2.84.539,8.542,8.542,0,0,0,3.857-.849,4.784,4.784,0,0,0,2.321-2.17,11.5,11.5,0,0,0,.624-4.485V17.834a3.727,3.727,0,0,0-.453-2.32,2.508,2.508,0,0,0-1.873-.644Zm-20.127-.535.545,6.051h-.577a8.131,8.131,0,0,0-2.138-3.392,7.981,7.981,0,0,0-11.008,1.255,9.679,9.679,0,0,0-1.764,5.824,10.666,10.666,0,0,0,1.176,5,7.714,7.714,0,0,0,3.072,3.315,7.994,7.994,0,0,0,3.907,1.052,9.412,9.412,0,0,0,4.382-1.066V26.813a4.7,4.7,0,0,0-.241-1.892,1.586,1.586,0,0,0-.754-.68,4.7,4.7,0,0,0-1.8-.237v-.521h8.208V24h-.39a1.807,1.807,0,0,0-1.673.738,4.56,4.56,0,0,0-.31,2.07V32.7a16.793,16.793,0,0,1-3.548,1.293,17.052,17.052,0,0,1-3.9.41q-6.147,0-9.336-3.566a8.964,8.964,0,0,1-2.394-6.167,9.523,9.523,0,0,1,1.347-4.854,10.9,10.9,0,0,1,4.376-4.247,11.642,11.642,0,0,1,5.509-1.23,12.178,12.178,0,0,1,2.1.169,21.422,21.422,0,0,1,2.682.748,4.736,4.736,0,0,0,1.176.3.651.651,0,0,0,.508-.246,1.772,1.772,0,0,0,.257-.97Zm-31.97,1.086v7.871H155.3a3.159,3.159,0,0,0,2.051-.544,3.462,3.462,0,0,0,.866-2.21h.6v6.811h-.6a3.636,3.636,0,0,0-.335-1.715,2.035,2.035,0,0,0-.894-.823,3.952,3.952,0,0,0-1.687-.277h-4.023V30.86a6.066,6.066,0,0,0,.212,2.008,1.37,1.37,0,0,0,.682.636,3.3,3.3,0,0,0,1.5.353h.793V34.4h-9.522v-.545h.788a2.528,2.528,0,0,0,2.006-.721,4.124,4.124,0,0,0,.391-2.276V17.873a6.062,6.062,0,0,0-.212-2.008,1.408,1.408,0,0,0-.676-.636,3.3,3.3,0,0,0-1.509-.353h-.788v-.545H161.43l.234,4.42h-.57a5.853,5.853,0,0,0-.989-2.073,3.285,3.285,0,0,0-1.391-.959,8.158,8.158,0,0,0-2.559-.3Zm-19.145-.071a5.831,5.831,0,0,0-4.557,1.91q-2.14,2.382-2.142,6.967,0,4.7,2.217,7.232a5.718,5.718,0,0,0,4.5,1.925,6.422,6.422,0,0,0,4.932-2.109q1.948-2.113,1.945-6.653,0-4.928-2.143-7.348A6.032,6.032,0,0,0,132.127,15.35Zm.3-1.013a10.107,10.107,0,0,1,7.155,2.837,9.3,9.3,0,0,1,3.03,7.083,9.562,9.562,0,0,1-3.051,7.256,10.953,10.953,0,0,1-14.742.067,9.566,9.566,0,0,1-2.981-7.285,9.288,9.288,0,0,1,3.441-7.454A10.772,10.772,0,0,1,132.427,14.336Z" transform="translate(-61.474 -2.796)"/><path class="a" d="M17.1,9.814a5.068,5.068,0,0,0-1.256.572,5.149,5.149,0,0,0-1.151.98,11.636,11.636,0,0,0-.959,1.249,3.685,3.685,0,0,1-.652.861c-.184.118-.355.013-.723-.138a12.224,12.224,0,0,0-1.552-.507,10.819,10.819,0,0,0-2.051-.322,14.4,14.4,0,0,0-2.282.053,5.367,5.367,0,0,0-1.367.289c-.231.1-.217.178-.1.276a4.823,4.823,0,0,1,.848.776A21.558,21.558,0,0,1,7.736,16.37a14.857,14.857,0,0,1,1.256,2.42,18.729,18.729,0,0,1,.664,1.867,12.02,12.02,0,0,1,.427,1.874,13.583,13.583,0,0,1,.092,2.249,19.139,19.139,0,0,1-.224,2.42c-.118.7-.276,1.216-.329,1.512s0,.375.138.427a5.816,5.816,0,0,0,.7.145,5.674,5.674,0,0,1,1.29.4,7.685,7.685,0,0,1,1.538.96,16.654,16.654,0,0,1,1.275,1.2,11.188,11.188,0,0,0,1.447,1.243,2.2,2.2,0,0,0,1.2.492.242.242,0,0,0,.03-.007l.03.007a2.2,2.2,0,0,0,1.2-.492,11.185,11.185,0,0,0,1.447-1.243,16.865,16.865,0,0,1,1.275-1.2,7.68,7.68,0,0,1,1.539-.96,5.67,5.67,0,0,1,1.289-.4,5.792,5.792,0,0,0,.7-.145c.138-.052.191-.131.138-.427s-.21-.808-.328-1.512a19.139,19.139,0,0,1-.224-2.42,13.584,13.584,0,0,1,.092-2.249,12.02,12.02,0,0,1,.427-1.874,18.827,18.827,0,0,1,.664-1.867,14.852,14.852,0,0,1,1.256-2.42A21.556,21.556,0,0,1,28.626,13.9a4.808,4.808,0,0,1,.848-.776c.118-.1.131-.177-.1-.276a5.367,5.367,0,0,0-1.368-.289,14.4,14.4,0,0,0-2.282-.053,10.815,10.815,0,0,0-2.051.322,12.171,12.171,0,0,0-1.552.507c-.368.151-.539.256-.723.138a3.686,3.686,0,0,1-.651-.861,11.736,11.736,0,0,0-.959-1.249,5.16,5.16,0,0,0-1.151-.98,5.057,5.057,0,0,0-1.256-.572.7.7,0,0,0-.283,0M7.151,13.838a19.789,19.789,0,0,1,1.755,2.324,15.2,15.2,0,0,1,1.267,2.44,19.046,19.046,0,0,1,.661,1.86,12.448,12.448,0,0,1,.436,1.914,13.779,13.779,0,0,1,.1,2.283,18.323,18.323,0,0,1-.225,2.419c-.051.311-.118.617-.191.923l-.02.081.018,0a6.281,6.281,0,0,1,1.416.442,8,8,0,0,1,1.646,1.026,17.017,17.017,0,0,1,1.279,1.2,9.5,9.5,0,0,0,1.259,1.086,2.955,2.955,0,0,0,.576.312l.12-.037.119.037a2.926,2.926,0,0,0,.576-.312,9.526,9.526,0,0,0,1.259-1.086,17.091,17.091,0,0,1,1.279-1.2,7.977,7.977,0,0,1,1.646-1.026,6.287,6.287,0,0,1,1.416-.442l.018,0L23.534,28c-.074-.305-.14-.612-.192-.923a18.258,18.258,0,0,1-.225-2.419,13.738,13.738,0,0,1,.1-2.283,12.447,12.447,0,0,1,.435-1.914,18.954,18.954,0,0,1,.662-1.86,15.109,15.109,0,0,1,1.267-2.44,19.7,19.7,0,0,1,1.755-2.324,12.245,12.245,0,0,0-1.958-.039,9.531,9.531,0,0,0-1.794.282,10.381,10.381,0,0,0-1.365.445c-.513.21-.944.4-1.473.06a3.62,3.62,0,0,1-.866-1.061,10.043,10.043,0,0,0-.841-1.1,4.109,4.109,0,0,0-.91-.778,4.32,4.32,0,0,0-.883-.425,4.352,4.352,0,0,0-.883.425,4.116,4.116,0,0,0-.91.778,10.046,10.046,0,0,0-.841,1.1,3.6,3.6,0,0,1-.866,1.061c-.529.341-.96.15-1.473-.06a10.375,10.375,0,0,0-1.365-.445A9.526,9.526,0,0,0,9.109,13.8,12.245,12.245,0,0,0,7.151,13.838Z"/></g></svg>