<svg xmlns="http://www.w3.org/2000/svg" width="160.61" height="61.144" viewBox="0 0 160.61 61.144"><defs><style>.a{fill:#3e3e3e;}</style></defs><g transform="translate(-85 -16.496)"><path class="a" d="M85.447,31.9l-.166,23.249a28.47,28.47,0,0,1,12.472.248,17.927,17.927,0,0,0,1.713-1.569.9.9,0,0,0-.722-1.445c-2.57-.381-10.386.289-10.386.289l-.123-21.308s.784-.454-.083-.888a2.974,2.974,0,0,0-3.1.413S84.786,31.074,85.447,31.9Z" transform="translate(0 0.497)"/><path class="a" d="M103.45,35.207s-.263,14.525-.4,19.108c-.016.5.867.549,1.951.5a1.191,1.191,0,0,0,1.239-.836s.185-.249-.465-.867l.279-17.9s.434-1.394-2.012-1.363C104.039,33.844,102.149,33.905,103.45,35.207Z" transform="translate(0.651 0.628)"/><path class="a" d="M110.807,35.525s-.284,14.7-.5,18.913c-.015.3,2.209,1.672,3.045-.17a.524.524,0,0,0-.185-.651l.294-12.032,9.957,11.986,9.354-12.358.248,12.435s-.836,1.311,1.068,1.553c0,0,1.332.088,1.565-.268l.077-19.124s1.1-.728.557-1.13a2.579,2.579,0,0,0-3.22.743c-.945,1.285-9.865,13.007-9.865,13.007l-10.1-13.875s-.79-1.162-2.694-.372c0,0-1.285.5.372,1.208Z" transform="translate(0.903 0.63)"/><path class="a" d="M142.388,36.421s1.827-1.239,6.163-.073c.508.137,2.473-.584,2.524-1.276.035-.489-.341-.913-1.456-1.176a41.974,41.974,0,0,0-10.112.185s-1.75.341,0,1.285l-.185,19.326s-.6.232-.325.712,1.486.279,1.486.279l2.323-.464s2.68-.635,8.44.31a2.2,2.2,0,0,0,2.509-1.672c.464-2-1.331-1.347-1.331-1.347l-.914.31s-6.411-.263-7.975.263c0,0-1.642.418-1.611-1.208s.263-6.52.263-6.52,4.847-.4,6.938.279a1.088,1.088,0,0,0,1.378-1.192c-.062-1.487-2.68-1.549-2.68-1.549l-5.4-.061-.109-6.009S142.285,36.482,142.388,36.421Z" transform="translate(1.944 0.622)"/><path class="a" d="M157.4,32.219s-.187,18.892-.31,20.626c0,0-.929,3.128,1.146,3.252,0,0,8.392-.928,10.9.124.394.165,1.952-2.132,2.169-2.54.319-.6-.062-.743-3.9-.682l-7.465.249.372-20.689s1.92-2.075-2.6-1.7C157.711,30.857,156.906,31.011,157.4,32.219Z" transform="translate(2.602 0.518)"/><path class="a" d="M175.311,36.429,175,54.33a1.37,1.37,0,0,0,1.828,1.425c1.858-.464,1.146-1.208,1.146-1.208l-.187-.34.062-18.149s.372-1.859-2.013-1.766S175.311,36.429,175.311,36.429Z" transform="translate(3.243 0.644)"/><path class="a" d="M198.972,50.347a.171.171,0,0,1,.089.085c.5,1.063-11.825,7.608-15.388-3.615-1.286-4.052,3.562-13.132,14.681-8.579l2.85.154s-6.473-6.349-14.464-2.2-5.853,11.336-5.853,11.336,2.509,10.871,16.384,7.587c0,0,4.273-.96,4.77-4.242,0,0,1.827-1.054,1.858-1.58,0,0,.743-1.238-3.592-1.425,0,0-2.509-.433-3.438.867C196.866,48.737,196.092,49.081,198.972,50.347Z" transform="translate(3.461 0.662)"/><path class="a" d="M206.413,32.585,206.124,54.1s-1.859,1.379.991,1.784c0,0,2.354.238,1.817-2.859l.079-9.621,11.235-.124-.165,10.86s-.537,1.958,2.6,1.744c0,0,1.2-.711-.206-1.744l.372-21.184s1.4-2.478-1.57-2.23c0,0-1.858.124-.826,1.611l-.331,8.754-11.231-.041.082-8.63s1.322-1.81-1.321-1.711S206.413,32.585,206.413,32.585Z" transform="translate(4.362 0.514)"/><path class="a" d="M229.809,26.78v3.552s-.867,0-.744,1.2.909.578.909.578l-.289,22.877s-1.445,1.027.124,1.77a8.037,8.037,0,0,0,2.767-.16s1.652-.7,0-1.734l.041-22.837s1.073.205.991-.805-.909-.97-.909-.97l.083-3.675h3.262s0,.95.62,1.2,1.487-1.363,1.487-1.363h1.9s.743-.331.578-.95-.992-.909-.992-.909H238.15a1.687,1.687,0,0,0-1.528-1.445,1.268,1.268,0,0,0-.66,1.57l-3.18-.041-.165-2.891a1.083,1.083,0,0,0,1.073-1.032c.165-1.073-1.033-1.115-1.033-1.115l-.082-1.239s.743-.412.826-.908-.041-.992-2.313-.95c0,0-2.85.372-1.032,1.9l.041,1.445s-1.346,0-1.044,1.528c0,0,.59.7,1.044.412l-.248,2.643-3.386.165s.289-1.445-.5-1.4-1.527,1.57-1.527,1.57l-1.652-.083a.8.8,0,0,0-.784.949c.123.909.784.826.784.826h1.61s.578,1.4,1.363,1.364.826-1.2.826-1.2Z" transform="translate(4.958)"/><path class="a" d="M133.38,62.007s1.239-.062,1.332,1.487c0,0,.341,8.548-.34,10.344a2.3,2.3,0,0,1-2.571,1.425s-1.162-.016-1.781-2.214l-.852,2.524a5.732,5.732,0,0,0,4.925-.31,4.692,4.692,0,0,0,2.371-3.161l.075-.633.017-7.912s.047-1.7,1.162-1.549V61.79h-4.274Z" transform="translate(1.598 1.639)"/><path class="a" d="M138.856,62.038s1.239.093,1.239,1.889c0,0,.123,9.664-.248,10.282,0,0-.317,1.208-1.119,1.208V75.6l12.547-.185,1.084-3.252h-.185s-1.085,2.322-5.2,2.725-4.77-.124-4.924-.929l-.124-5.481h4.615a3.128,3.128,0,0,1,2.725,1.8h.154l-.03-4.089-.187-.062a2.612,2.612,0,0,1-2.013,1.7l-5.265.093.031-5.544,4.46-.031s3.531.217,4.77,2.354l.155.154.185-.093L150.44,61.79H138.825Z" transform="translate(1.944 1.639)"/><g transform="translate(154.49 62.981)"><path class="a" d="M166.217,72.924,160.07,61.357h-.14l-5.559,11.211s-1.44,2.354-2.308,2.787v.171h4.181s.171-.171-.2-.248c0,0-1.378-.589-1.084-1.626s1.7-4.43,1.7-4.43h5.4l2.013,4.151a1.359,1.359,0,0,1-.727,1.981l-.031.171,4.877-.062v-.17A5.472,5.472,0,0,1,166.217,72.924Zm-9.2-4.3,2.423-5,2.424,5Z" transform="translate(-152.063 -61.357)"/></g><path class="a" d="M168.059,61.842a1.83,1.83,0,0,1,1.342,1.77s.124,8.987-.206,9.421a2.716,2.716,0,0,1-1.136,2.085h-.424v.341h4.2v-.341s-1.259-.123-1.631-2.209l-.185-9.581,11.129,12.409.227-.217V65.351s-.144-2.994,1.693-3.675v-.165h-4.088v.268a2.465,2.465,0,0,1,1.527,2.188l.268,7.867-9.58-10.18-3.159-.02Z" transform="translate(2.991 1.629)"/><path class="a" d="M183.774,71.331a20.107,20.107,0,0,0-.805,2.994,10.753,10.753,0,0,0,5.554,1.342s6.088.31,6.854-4.088c.62-3.551-3.139-4.088-5.533-4.212-.882-.046-7-.991-2.808-4.893,1.144-1.065,5.143-2.091,6.752,2.209,0,0,.185.289.31.144l.784-2.54a10.321,10.321,0,0,0-9.683.145c-1.418.756-3.448,4.46,1.672,6.2,1.538.523,5.182.03,6.193,1.971a2.776,2.776,0,0,1-.619,3.345,5.611,5.611,0,0,1-7.578-.7,7.754,7.754,0,0,1-.888-1.982C184.063,70.959,183.8,71.283,183.774,71.331Z" transform="translate(3.546 1.616)"/></g></svg>