<svg xmlns="http://www.w3.org/2000/svg" width="149.562" height="44.234" viewBox="0 0 149.562 44.234"><defs><style>.a,.b{fill:#3e3e3e;}.b{stroke:#161615;stroke-miterlimit:22.926;stroke-width:0.5px;}</style></defs><g transform="translate(-16.037 -8.718)"><g transform="translate(16.287 9.027)"><path class="a" d="M80.535,16.523l.394,1.032q-3.339,1.547-7.587,3.186l-.789.3q.182-1.062.364-2.58.152-1.213.273-2.154a16.029,16.029,0,0,0,.182-2.125q0-1.851-1.76-1.851-2.853,0-6.737,2.519-5.22,3.369-5.22,7.8a2.022,2.022,0,0,0,1.381,2.109,21.5,21.5,0,0,0,5.9.5h.394q.091-.971.091-1.336a12.847,12.847,0,0,0-.728-4.522q3.034.728,3.035,5.341v.516l4.765-.091a15.607,15.607,0,0,1,4.674.486q4.521,1.609,4.522,6.616,0,6.738-5.038,12.928-6.009,7.375-14.658,7.375a10.773,10.773,0,0,1-9.651-5.129,29.44,29.44,0,0,1-15.933,4.734A24.077,24.077,0,0,1,26.636,49.27q-10.35-5.705-10.349-19.484,0-8.74,4.643-14.325A14.75,14.75,0,0,1,32.8,9.877,17.533,17.533,0,0,1,44.875,14.4a18.96,18.96,0,0,1,4.552,6.085,76.611,76.611,0,0,1,3.945,11.487l1.517,5.463a53.865,53.865,0,0,0,2.246,6.707,19.871,19.871,0,0,0,6.024-6.494,24.2,24.2,0,0,0,3.718-8.68l-1.4.03a21.29,21.29,0,0,1-7.147-.835,2.942,2.942,0,0,1-2.079-2.9q0-3.338,3.672-7.618a21.532,21.532,0,0,1,6.95-5.387,38.9,38.9,0,0,1,10.349-3.05l1.032-.182-.091.486q-.3,1.366-.486,2.428L77.2,14.793a15.326,15.326,0,0,0-.212,1.76q0,.881.728.88a2.923,2.923,0,0,0,1.062-.212Q79.988,16.736,80.535,16.523ZM53.828,46.356a39.581,39.581,0,0,1-2.155-5.766l-2.428-8.922Q46.362,21.015,42.3,16.2a12.745,12.745,0,0,0-10.137-4.81q-6.343,0-9.909,4.249T18.684,27.419a23.287,23.287,0,0,0,1.441,7.921,22.728,22.728,0,0,0,3.9,6.95,21.878,21.878,0,0,0,16.722,7.83A26.313,26.313,0,0,0,53.828,46.356Zm15.356-17.45A26.011,26.011,0,0,1,64.905,37.8a31.029,31.029,0,0,1-7.284,7.5A11.274,11.274,0,0,0,60.9,49.77a7.812,7.812,0,0,0,4.674,1.29,13.82,13.82,0,0,0,10.364-4.826,15.76,15.76,0,0,0,4.507-11.077q0-3.52-1.957-4.871t-7.026-1.351H69.943Z" transform="translate(-16.287 -9.027)"/></g><g transform="translate(16.287 9.027)"><path class="b" d="M80.535,16.523l.394,1.032q-3.339,1.547-7.587,3.186l-.789.3q.182-1.062.364-2.58.152-1.213.273-2.154a16.029,16.029,0,0,0,.182-2.125q0-1.851-1.76-1.851-2.853,0-6.737,2.519-5.22,3.369-5.22,7.8a2.022,2.022,0,0,0,1.381,2.109,21.5,21.5,0,0,0,5.9.5h.394q.091-.971.091-1.336a12.847,12.847,0,0,0-.728-4.522q3.034.728,3.035,5.341v.516l4.765-.091a15.607,15.607,0,0,1,4.674.486q4.521,1.609,4.522,6.616,0,6.738-5.038,12.928-6.009,7.375-14.658,7.375a10.773,10.773,0,0,1-9.651-5.129,29.44,29.44,0,0,1-15.933,4.734A24.077,24.077,0,0,1,26.636,49.27q-10.35-5.705-10.349-19.484,0-8.74,4.643-14.325A14.75,14.75,0,0,1,32.8,9.877,17.533,17.533,0,0,1,44.875,14.4a18.96,18.96,0,0,1,4.552,6.085,76.611,76.611,0,0,1,3.945,11.487l1.517,5.463a53.865,53.865,0,0,0,2.246,6.707,19.871,19.871,0,0,0,6.024-6.494,24.2,24.2,0,0,0,3.718-8.68l-1.4.03a21.29,21.29,0,0,1-7.147-.835,2.942,2.942,0,0,1-2.079-2.9q0-3.338,3.672-7.618a21.532,21.532,0,0,1,6.95-5.387,38.9,38.9,0,0,1,10.349-3.05l1.032-.182-.091.486q-.3,1.366-.486,2.428L77.2,14.793a15.326,15.326,0,0,0-.212,1.76q0,.881.728.88a2.923,2.923,0,0,0,1.062-.212Q79.988,16.736,80.535,16.523ZM53.828,46.356a39.581,39.581,0,0,1-2.155-5.766l-2.428-8.922Q46.362,21.015,42.3,16.2a12.745,12.745,0,0,0-10.137-4.81q-6.343,0-9.909,4.249T18.684,27.419a23.287,23.287,0,0,0,1.441,7.921,22.728,22.728,0,0,0,3.9,6.95,21.878,21.878,0,0,0,16.722,7.83A26.313,26.313,0,0,0,53.828,46.356Zm15.356-17.45A26.011,26.011,0,0,1,64.905,37.8a31.029,31.029,0,0,1-7.284,7.5A11.274,11.274,0,0,0,60.9,49.77a7.812,7.812,0,0,0,4.674,1.29,13.82,13.82,0,0,0,10.364-4.826,15.76,15.76,0,0,0,4.507-11.077q0-3.52-1.957-4.871t-7.026-1.351H69.943Z" transform="translate(-16.287 -9.027)"/></g><g transform="translate(83.049 26.872)"><path class="a" d="M242.815,77a3.472,3.472,0,0,1,.425,1.517q0,2.914-4.037,6.707-5.888,5.554-10.015,5.554-3.551,0-3.551-4.036a19.757,19.757,0,0,1,2.777-9.56,25.745,25.745,0,0,1,7.117-8.255q5.281-3.945,9.408-3.945,2.4,0,2.4,1.76a5.117,5.117,0,0,1-1.153,2.777,13.382,13.382,0,0,1-2.883,2.929,18.842,18.842,0,0,1-4.082,2.185,11.178,11.178,0,0,1-3.809,1,2.008,2.008,0,0,1-1.972-1.578,15.129,15.129,0,0,0,2.033.182,9.748,9.748,0,0,0,5.6-1.745q2.564-1.745,2.564-3.778,0-1.457-1.881-1.457-3.37,0-6.889,4.128a25.232,25.232,0,0,0-4.1,6.8,18.4,18.4,0,0,0-1.609,6.919q0,3.126,2.61,3.126,2.852,0,5.933-3.141A24.921,24.921,0,0,0,242.815,77Z" transform="translate(-225.638 -64.986)"/></g><g transform="translate(83.049 26.872)"><path class="b" d="M242.815,77a3.472,3.472,0,0,1,.425,1.517q0,2.914-4.037,6.707-5.888,5.554-10.015,5.554-3.551,0-3.551-4.036a19.757,19.757,0,0,1,2.777-9.56,25.745,25.745,0,0,1,7.117-8.255q5.281-3.945,9.408-3.945,2.4,0,2.4,1.76a5.117,5.117,0,0,1-1.153,2.777,13.382,13.382,0,0,1-2.883,2.929,18.842,18.842,0,0,1-4.082,2.185,11.178,11.178,0,0,1-3.809,1,2.008,2.008,0,0,1-1.972-1.578,15.129,15.129,0,0,0,2.033.182,9.748,9.748,0,0,0,5.6-1.745q2.564-1.745,2.564-3.778,0-1.457-1.881-1.457-3.37,0-6.889,4.128a25.232,25.232,0,0,0-4.1,6.8,18.4,18.4,0,0,0-1.609,6.919q0,3.126,2.61,3.126,2.852,0,5.933-3.141A24.921,24.921,0,0,0,242.815,77Z" transform="translate(-225.638 -64.986)"/></g><g transform="translate(100.497 26.781)"><path class="a" d="M301.656,85.853l.486.82a22.4,22.4,0,0,1-8.619,3.642q.638-5.007,5.888-15.2l1.973-3.763a8.027,8.027,0,0,0,1-2.489q0-.819-.668-.82-.941,0-3.566,2.125a43.763,43.763,0,0,0-5.114,4.916,50.749,50.749,0,0,0-8.649,13.839,26.453,26.453,0,0,0-4.036,1.457q2.792-5.705,5.63-12.822t2.838-8.422q0-1.093-.88-1.093a9.244,9.244,0,0,0-1.972.455q-.121.031-.334.091l-.182-.971a59.119,59.119,0,0,0,7.678-2.731l.395-.182a4.342,4.342,0,0,1,.061.546q0,2.7-3.975,11.5l-.425.91.516-.577a68.643,68.643,0,0,1,9.18-8.937q4.2-3.262,6.571-3.263a1.328,1.328,0,0,1,1.487,1.518q0,1.578-3.976,9.317Q298.2,84.943,298.2,86.1q0,.881.82.88a5.2,5.2,0,0,0,2.488-1Z" transform="translate(-280.351 -64.7)"/></g><g transform="translate(100.497 26.781)"><path class="b" d="M301.656,85.853l.486.82a22.4,22.4,0,0,1-8.619,3.642q.638-5.007,5.888-15.2l1.973-3.763a8.027,8.027,0,0,0,1-2.489q0-.819-.668-.82-.941,0-3.566,2.125a43.763,43.763,0,0,0-5.114,4.916,50.749,50.749,0,0,0-8.649,13.839,26.453,26.453,0,0,0-4.036,1.457q2.792-5.705,5.63-12.822t2.838-8.422q0-1.093-.88-1.093a9.244,9.244,0,0,0-1.972.455q-.121.031-.334.091l-.182-.971a59.119,59.119,0,0,0,7.678-2.731l.395-.182a4.342,4.342,0,0,1,.061.546q0,2.7-3.975,11.5l-.425.91.516-.577a68.643,68.643,0,0,1,9.18-8.937q4.2-3.262,6.571-3.263a1.328,1.328,0,0,1,1.487,1.518q0,1.578-3.976,9.317Q298.2,84.943,298.2,86.1q0,.881.82.88a5.2,5.2,0,0,0,2.488-1Z" transform="translate(-280.351 -64.7)"/></g><g transform="translate(125.191 26.751)"><path class="a" d="M380.123,64.666l-4.279,7.982h-1.062l.243-.516a9.568,9.568,0,0,0,1.062-3.186q0-1.093-2.306-1.093a7.839,7.839,0,0,0-6.13,3,27.075,27.075,0,0,0-4.2,6.813,17.247,17.247,0,0,0-1.745,6.661q0,3.339,3.066,3.339a8.61,8.61,0,0,0,5.372-2.246,18.156,18.156,0,0,0,4.643-5.918l.789-1.517q.061-.121.273-.516a2.338,2.338,0,0,1,.334,1.183q0,2.611-3.885,6.373-5.736,5.524-10.47,5.524-4.037,0-4.037-4.552a16.906,16.906,0,0,1,2.64-8.437,30.5,30.5,0,0,1,7.01-8.134q5.857-4.825,11.441-4.825Q379.242,64.605,380.123,64.666Z" transform="translate(-357.786 -64.605)"/></g><g transform="translate(125.191 26.751)"><path class="b" d="M380.123,64.666l-4.279,7.982h-1.062l.243-.516a9.568,9.568,0,0,0,1.062-3.186q0-1.093-2.306-1.093a7.839,7.839,0,0,0-6.13,3,27.075,27.075,0,0,0-4.2,6.813,17.247,17.247,0,0,0-1.745,6.661q0,3.339,3.066,3.339a8.61,8.61,0,0,0,5.372-2.246,18.156,18.156,0,0,0,4.643-5.918l.789-1.517q.061-.121.273-.516a2.338,2.338,0,0,1,.334,1.183q0,2.611-3.885,6.373-5.736,5.524-10.47,5.524-4.037,0-4.037-4.552a16.906,16.906,0,0,1,2.64-8.437,30.5,30.5,0,0,1,7.01-8.134q5.857-4.825,11.441-4.825Q379.242,64.605,380.123,64.666Z" transform="translate(-357.786 -64.605)"/></g><g transform="translate(143.649 26.872)"><path class="a" d="M432.846,77a3.471,3.471,0,0,1,.425,1.517q0,2.914-4.036,6.707-5.888,5.554-10.015,5.554-3.551,0-3.551-4.036a19.757,19.757,0,0,1,2.777-9.56,25.742,25.742,0,0,1,7.117-8.255q5.281-3.945,9.408-3.945,2.4,0,2.4,1.76a5.117,5.117,0,0,1-1.153,2.777,13.375,13.375,0,0,1-2.883,2.929,18.835,18.835,0,0,1-4.082,2.185,11.174,11.174,0,0,1-3.809,1,2.008,2.008,0,0,1-1.972-1.578,15.138,15.138,0,0,0,2.034.182,9.749,9.749,0,0,0,5.6-1.745q2.564-1.745,2.564-3.778,0-1.457-1.881-1.457-3.369,0-6.889,4.128a25.241,25.241,0,0,0-4.1,6.8,18.405,18.405,0,0,0-1.608,6.919q0,3.126,2.61,3.126,2.852,0,5.933-3.141A24.921,24.921,0,0,0,432.846,77Z" transform="translate(-415.668 -64.986)"/></g><g transform="translate(143.649 26.872)"><path class="b" d="M432.846,77a3.471,3.471,0,0,1,.425,1.517q0,2.914-4.036,6.707-5.888,5.554-10.015,5.554-3.551,0-3.551-4.036a19.757,19.757,0,0,1,2.777-9.56,25.742,25.742,0,0,1,7.117-8.255q5.281-3.945,9.408-3.945,2.4,0,2.4,1.76a5.117,5.117,0,0,1-1.153,2.777,13.375,13.375,0,0,1-2.883,2.929,18.835,18.835,0,0,1-4.082,2.185,11.174,11.174,0,0,1-3.809,1,2.008,2.008,0,0,1-1.972-1.578,15.138,15.138,0,0,0,2.034.182,9.749,9.749,0,0,0,5.6-1.745q2.564-1.745,2.564-3.778,0-1.457-1.881-1.457-3.369,0-6.889,4.128a25.241,25.241,0,0,0-4.1,6.8,18.405,18.405,0,0,0-1.608,6.919q0,3.126,2.61,3.126,2.852,0,5.933-3.141A24.921,24.921,0,0,0,432.846,77Z" transform="translate(-415.668 -64.986)"/></g></g></svg>